<?xml version="1.0" encoding="utf-8" standalone="no"?>
<!DOCTYPE svg PUBLIC "-//W3C//DTD SVG 1.1//EN"
  "http://www.w3.org/Graphics/SVG/1.1/DTD/svg11.dtd">
<!-- Created with matplotlib (https://matplotlib.org/) -->
<svg height="288pt" version="1.1" viewBox="0 0 432 288" width="432pt" xmlns="http://www.w3.org/2000/svg" xmlns:xlink="http://www.w3.org/1999/xlink">
 <metadata>
  <rdf:RDF xmlns:cc="http://creativecommons.org/ns#" xmlns:dc="http://purl.org/dc/elements/1.1/" xmlns:rdf="http://www.w3.org/1999/02/22-rdf-syntax-ns#">
   <cc:Work>
    <dc:type rdf:resource="http://purl.org/dc/dcmitype/StillImage"/>
    <dc:date>2021-05-03T22:30:15.180375</dc:date>
    <dc:format>image/svg+xml</dc:format>
    <dc:creator>
     <cc:Agent>
      <dc:title>Matplotlib v3.3.2, https://matplotlib.org/</dc:title>
     </cc:Agent>
    </dc:creator>
   </cc:Work>
  </rdf:RDF>
 </metadata>
 <defs>
  <style type="text/css">*{stroke-linecap:butt;stroke-linejoin:round;}</style>
 </defs>
 <g id="figure_1">
  <g id="patch_1">
   <path d="M 0 288 
L 432 288 
L 432 0 
L 0 0 
z
" style="fill:#ffffff;"/>
  </g>
  <g id="axes_1">
   <g id="patch_2">
    <path d="M 54 252 
L 388.8 252 
L 388.8 34.56 
L 54 34.56 
z
" style="fill:#ffffff;"/>
   </g>
   <g id="PolyCollection_1">
    <defs>
     <path d="M 54 -59.440761 
L 54 -45.883636 
L 57.893023 -46.651743 
L 61.786047 -47.454173 
L 65.67907 -48.263166 
L 69.572093 -49.069724 
L 73.465116 -49.872578 
L 77.35814 -50.671547 
L 81.251163 -51.462132 
L 85.144186 -52.243624 
L 89.037209 -53.017523 
L 92.930233 -53.783366 
L 96.823256 -54.539151 
L 100.716279 -55.283019 
L 104.609302 -56.014833 
L 108.502326 -56.735106 
L 112.395349 -57.446728 
L 116.288372 -58.150119 
L 120.181395 -58.854899 
L 124.074419 -59.563207 
L 127.967442 -60.279494 
L 131.860465 -61.005369 
L 135.753488 -61.742404 
L 139.646512 -62.464592 
L 143.539535 -63.184171 
L 147.432558 -63.902317 
L 151.325581 -64.618072 
L 155.218605 -65.327498 
L 159.111628 -66.029595 
L 163.004651 -66.729001 
L 166.897674 -67.421864 
L 170.790698 -68.116424 
L 174.683721 -68.804537 
L 178.576744 -69.50146 
L 182.469767 -70.194794 
L 186.362791 -70.901209 
L 190.255814 -71.610183 
L 194.148837 -72.308814 
L 198.04186 -73.014611 
L 201.934884 -73.706499 
L 205.827907 -74.420428 
L 209.72093 -75.121917 
L 213.613953 -75.834928 
L 217.506977 -76.573185 
L 221.4 -77.348577 
L 225.293023 -78.132124 
L 229.186047 -78.904053 
L 233.07907 -79.686079 
L 236.972093 -80.397173 
L 240.865116 -81.224693 
L 244.75814 -81.983151 
L 248.651163 -82.798649 
L 252.544186 -83.537734 
L 256.437209 -84.380822 
L 260.330233 -85.172696 
L 264.223256 -85.89954 
L 268.116279 -86.70878 
L 272.009302 -87.519048 
L 275.902326 -88.242525 
L 279.795349 -89.226082 
L 283.688372 -89.963122 
L 287.581395 -90.635651 
L 291.474419 -91.551168 
L 295.367442 -92.314895 
L 299.260465 -93.329884 
L 303.153488 -94.232904 
L 307.046512 -95.061884 
L 310.939535 -96.010394 
L 314.832558 -96.934223 
L 318.725581 -98.031965 
L 322.618605 -99.206392 
L 326.511628 -99.811633 
L 330.404651 -100.995769 
L 334.297674 -102.16215 
L 338.190698 -102.834812 
L 342.083721 -104.20221 
L 345.976744 -105.016087 
L 349.869767 -105.612169 
L 353.762791 -107.086962 
L 357.655814 -108.142647 
L 361.548837 -109.138093 
L 365.44186 -110.223594 
L 369.334884 -111.290816 
L 373.227907 -112.213543 
L 377.12093 -113.373389 
L 381.013953 -114.469258 
L 384.906977 -115.096649 
L 388.8 -116.440936 
L 388.8 -192.857981 
L 388.8 -192.857981 
L 384.906977 -191.052873 
L 381.013953 -187.675858 
L 377.12093 -185.555451 
L 373.227907 -183.520622 
L 369.334884 -180.823906 
L 365.44186 -178.431171 
L 361.548837 -175.994211 
L 357.655814 -173.472187 
L 353.762791 -171.400722 
L 349.869767 -170.083132 
L 345.976744 -167.133184 
L 342.083721 -164.493942 
L 338.190698 -163.11515 
L 334.297674 -160.31375 
L 330.404651 -158.637863 
L 326.511628 -156.961491 
L 322.618605 -154.306793 
L 318.725581 -152.608994 
L 314.832558 -150.794508 
L 310.939535 -148.756217 
L 307.046512 -146.80939 
L 303.153488 -144.716384 
L 299.260465 -142.762414 
L 295.367442 -141.256293 
L 291.474419 -139.134802 
L 287.581395 -137.360033 
L 283.688372 -135.198493 
L 279.795349 -133.198624 
L 275.902326 -131.596493 
L 272.009302 -129.65951 
L 268.116279 -127.909649 
L 264.223256 -126.174786 
L 260.330233 -124.367148 
L 256.437209 -122.733023 
L 252.544186 -121.187061 
L 248.651163 -119.52253 
L 244.75814 -117.999575 
L 240.865116 -116.407002 
L 236.972093 -114.965858 
L 233.07907 -113.338866 
L 229.186047 -111.840039 
L 225.293023 -110.357733 
L 221.4 -108.932215 
L 217.506977 -107.527582 
L 213.613953 -106.120077 
L 209.72093 -104.748333 
L 205.827907 -103.377301 
L 201.934884 -102.03815 
L 198.04186 -100.6737 
L 194.148837 -99.343707 
L 190.255814 -98.017062 
L 186.362791 -96.723343 
L 182.469767 -95.447856 
L 178.576744 -94.179759 
L 174.683721 -92.94336 
L 170.790698 -91.72061 
L 166.897674 -90.526354 
L 163.004651 -89.341294 
L 159.111628 -88.178671 
L 155.218605 -87.026176 
L 151.325581 -85.891917 
L 147.432558 -84.77971 
L 143.539535 -83.682895 
L 139.646512 -82.591991 
L 135.753488 -81.503461 
L 131.860465 -80.406846 
L 127.967442 -79.329438 
L 124.074419 -78.270109 
L 120.181395 -77.225741 
L 116.288372 -76.197323 
L 112.395349 -75.17696 
L 108.502326 -74.150334 
L 104.609302 -73.117636 
L 100.716279 -72.080177 
L 96.823256 -71.036161 
L 92.930233 -69.983852 
L 89.037209 -68.928894 
L 85.144186 -67.870578 
L 81.251163 -66.808302 
L 77.35814 -65.74145 
L 73.465116 -64.671798 
L 69.572093 -63.605403 
L 65.67907 -62.543369 
L 61.786047 -61.487574 
L 57.893023 -60.44576 
L 54 -59.440761 
z
" id="m76891d8e2d" style="stroke:#0000ff;stroke-opacity:0.1;"/>
    </defs>
    <g clip-path="url(#p081b8a5aff)">
     <use style="fill:#0000ff;fill-opacity:0.1;stroke:#0000ff;stroke-opacity:0.1;" x="0" xlink:href="#m76891d8e2d" y="288"/>
    </g>
   </g>
   <g id="PolyCollection_2">
    <defs>
     <path d="M 54 -59.440761 
L 54 -45.883636 
L 57.893023 -46.683661 
L 61.786047 -47.473416 
L 65.67907 -48.250838 
L 69.572093 -49.017594 
L 73.465116 -49.775013 
L 77.35814 -50.524987 
L 81.251163 -51.273026 
L 85.144186 -52.023471 
L 89.037209 -52.778315 
L 92.930233 -53.537186 
L 96.823256 -54.29806 
L 100.716279 -55.060061 
L 104.609302 -55.823236 
L 108.502326 -56.588075 
L 112.395349 -57.357394 
L 116.288372 -58.129605 
L 120.181395 -58.903736 
L 124.074419 -59.684325 
L 127.967442 -60.474649 
L 131.860465 -61.274169 
L 135.753488 -62.085611 
L 139.646512 -62.906316 
L 143.539535 -63.736389 
L 147.432558 -64.571713 
L 151.325581 -65.41006 
L 155.218605 -66.248645 
L 159.111628 -67.088867 
L 163.004651 -67.92973 
L 166.897674 -68.779932 
L 170.790698 -69.631196 
L 174.683721 -70.495355 
L 178.576744 -71.369791 
L 182.469767 -72.237446 
L 186.362791 -73.128397 
L 190.255814 -74.018368 
L 194.148837 -74.930937 
L 198.04186 -75.857853 
L 201.934884 -76.764454 
L 205.827907 -77.681208 
L 209.72093 -78.559529 
L 213.613953 -79.535786 
L 217.506977 -80.428972 
L 221.4 -81.384705 
L 225.293023 -82.285129 
L 229.186047 -83.306843 
L 233.07907 -84.249751 
L 236.972093 -85.12034 
L 240.865116 -86.258621 
L 244.75814 -87.073506 
L 248.651163 -88.142568 
L 252.544186 -89.08132 
L 256.437209 -89.907113 
L 260.330233 -91.140763 
L 264.223256 -92.19525 
L 268.116279 -92.98478 
L 272.009302 -94.338092 
L 275.902326 -95.391515 
L 279.795349 -96.205182 
L 283.688372 -97.626344 
L 287.581395 -98.843445 
L 291.474419 -99.739351 
L 295.367442 -100.91898 
L 299.260465 -102.023874 
L 303.153488 -103.085942 
L 307.046512 -104.372185 
L 310.939535 -105.727438 
L 314.832558 -107.128134 
L 318.725581 -108.566092 
L 322.618605 -109.58421 
L 326.511628 -110.798163 
L 330.404651 -112.030976 
L 334.297674 -113.43344 
L 338.190698 -114.725875 
L 342.083721 -115.910345 
L 345.976744 -117.455983 
L 349.869767 -118.664068 
L 353.762791 -120.190152 
L 357.655814 -121.745024 
L 361.548837 -123.015395 
L 365.44186 -124.590763 
L 369.334884 -125.959103 
L 373.227907 -127.268695 
L 377.12093 -128.948596 
L 381.013953 -130.207981 
L 384.906977 -131.554123 
L 388.8 -132.978718 
L 388.8 -218.163642 
L 388.8 -218.163642 
L 384.906977 -215.194027 
L 381.013953 -211.896711 
L 377.12093 -208.914428 
L 373.227907 -206.28539 
L 369.334884 -203.353703 
L 365.44186 -200.443073 
L 361.548837 -197.72648 
L 357.655814 -194.868102 
L 353.762791 -192.987174 
L 349.869767 -190.582626 
L 345.976744 -187.555662 
L 342.083721 -185.377373 
L 338.190698 -182.493868 
L 334.297674 -179.646008 
L 330.404651 -177.525487 
L 326.511628 -174.680006 
L 322.618605 -172.034685 
L 318.725581 -169.122429 
L 314.832558 -166.989354 
L 310.939535 -164.930063 
L 307.046512 -162.953439 
L 303.153488 -160.647308 
L 299.260465 -157.906682 
L 295.367442 -155.452412 
L 291.474419 -153.106755 
L 287.581395 -150.291422 
L 283.688372 -148.058314 
L 279.795349 -146.278028 
L 275.902326 -143.594941 
L 272.009302 -141.251509 
L 268.116279 -139.543391 
L 264.223256 -136.9801 
L 260.330233 -134.844058 
L 256.437209 -133.044561 
L 252.544186 -130.718495 
L 248.651163 -128.568825 
L 244.75814 -126.724618 
L 240.865116 -124.470063 
L 236.972093 -122.813017 
L 233.07907 -120.739612 
L 229.186047 -118.845807 
L 225.293023 -117.082926 
L 221.4 -115.201476 
L 217.506977 -113.431471 
L 213.613953 -111.621569 
L 209.72093 -109.962374 
L 205.827907 -108.189554 
L 201.934884 -106.49943 
L 198.04186 -104.825455 
L 194.148837 -103.216771 
L 190.255814 -101.600497 
L 186.362791 -99.981817 
L 182.469767 -98.409473 
L 178.576744 -96.842569 
L 174.683721 -95.343353 
L 170.790698 -93.88022 
L 166.897674 -92.439285 
L 163.004651 -91.039721 
L 159.111628 -89.660701 
L 155.218605 -88.313912 
L 151.325581 -86.996883 
L 147.432558 -85.708956 
L 143.539535 -84.451025 
L 139.646512 -83.213923 
L 135.753488 -81.994511 
L 131.860465 -80.791886 
L 127.967442 -79.615248 
L 124.074419 -78.463262 
L 120.181395 -77.326478 
L 116.288372 -76.205797 
L 112.395349 -75.101778 
L 108.502326 -74.011093 
L 104.609302 -72.929196 
L 100.716279 -71.856201 
L 96.823256 -70.79196 
L 92.930233 -69.734658 
L 89.037209 -68.688135 
L 85.144186 -67.650881 
L 81.251163 -66.621536 
L 77.35814 -65.598628 
L 73.465116 -64.578874 
L 69.572093 -63.557912 
L 65.67907 -62.534686 
L 61.786047 -61.508636 
L 57.893023 -60.477592 
L 54 -59.440761 
z
" id="mc710044b09" style="stroke:#ff0000;stroke-opacity:0.1;"/>
    </defs>
    <g clip-path="url(#p081b8a5aff)">
     <use style="fill:#ff0000;fill-opacity:0.1;stroke:#ff0000;stroke-opacity:0.1;" x="0" xlink:href="#mc710044b09" y="288"/>
    </g>
   </g>
   <g id="PolyCollection_3">
    <defs>
     <path d="M 54 -59.440761 
L 54 -45.883636 
L 57.893023 -46.749998 
L 61.786047 -47.713144 
L 65.67907 -48.730902 
L 69.572093 -49.780234 
L 73.465116 -50.844741 
L 77.35814 -51.713099 
L 81.251163 -52.516909 
L 85.144186 -53.284773 
L 89.037209 -54.029046 
L 92.930233 -54.751292 
L 96.823256 -55.450812 
L 100.716279 -56.121605 
L 104.609302 -56.762882 
L 108.502326 -57.37837 
L 112.395349 -57.96924 
L 116.288372 -58.535573 
L 120.181395 -59.090897 
L 124.074419 -59.637576 
L 127.967442 -60.175709 
L 131.860465 -60.708578 
L 135.753488 -61.240106 
L 139.646512 -61.763394 
L 143.539535 -62.278972 
L 147.432558 -62.784232 
L 151.325581 -63.276633 
L 155.218605 -63.75454 
L 159.111628 -64.214539 
L 163.004651 -64.66194 
L 166.897674 -65.089094 
L 170.790698 -65.51308 
L 174.683721 -65.920127 
L 178.576744 -66.332106 
L 182.469767 -66.730295 
L 186.362791 -67.136111 
L 190.255814 -67.515815 
L 194.148837 -67.908174 
L 198.04186 -68.279604 
L 201.934884 -68.639084 
L 205.827907 -68.990951 
L 209.72093 -69.327986 
L 213.613953 -69.671787 
L 217.506977 -70.009416 
L 221.4 -70.353299 
L 225.293023 -70.652843 
L 229.186047 -70.922 
L 233.07907 -71.242785 
L 236.972093 -71.527393 
L 240.865116 -71.795475 
L 244.75814 -71.994058 
L 248.651163 -72.309727 
L 252.544186 -72.611705 
L 256.437209 -72.842187 
L 260.330233 -73.108929 
L 264.223256 -73.344522 
L 268.116279 -73.625934 
L 272.009302 -73.769826 
L 275.902326 -73.987406 
L 279.795349 -74.333762 
L 283.688372 -74.429472 
L 287.581395 -74.587545 
L 291.474419 -74.816163 
L 295.367442 -75.347657 
L 299.260465 -75.494968 
L 303.153488 -75.77958 
L 307.046512 -75.969837 
L 310.939535 -76.075681 
L 314.832558 -76.222968 
L 318.725581 -76.514999 
L 322.618605 -76.506244 
L 326.511628 -76.7729 
L 330.404651 -76.836136 
L 334.297674 -77.080347 
L 338.190698 -77.100324 
L 342.083721 -77.301988 
L 345.976744 -77.363351 
L 349.869767 -77.556694 
L 353.762791 -77.425813 
L 357.655814 -77.501789 
L 361.548837 -77.630687 
L 365.44186 -77.725613 
L 369.334884 -77.687047 
L 373.227907 -77.786757 
L 377.12093 -78.047502 
L 381.013953 -77.791817 
L 384.906977 -78.246708 
L 388.8 -78.152153 
L 388.8 -144.570442 
L 388.8 -144.570442 
L 384.906977 -143.39418 
L 381.013953 -143.10536 
L 377.12093 -141.570773 
L 373.227907 -140.927147 
L 369.334884 -139.968185 
L 365.44186 -138.665878 
L 361.548837 -137.681361 
L 357.655814 -136.780899 
L 353.762791 -135.672743 
L 349.869767 -134.231817 
L 345.976744 -133.43565 
L 342.083721 -132.25486 
L 338.190698 -131.416285 
L 334.297674 -130.155064 
L 330.404651 -129.316992 
L 326.511628 -128.072738 
L 322.618605 -127.261553 
L 318.725581 -125.871614 
L 314.832558 -124.974766 
L 310.939535 -123.862483 
L 307.046512 -122.693724 
L 303.153488 -121.680361 
L 299.260465 -120.818865 
L 295.367442 -119.743425 
L 291.474419 -119.264201 
L 287.581395 -118.279674 
L 283.688372 -117.215743 
L 279.795349 -116.016436 
L 275.902326 -115.213402 
L 272.009302 -114.143355 
L 268.116279 -113.031138 
L 264.223256 -112.070778 
L 260.330233 -111.089475 
L 256.437209 -110.166131 
L 252.544186 -109.165569 
L 248.651163 -108.267371 
L 244.75814 -107.390857 
L 240.865116 -106.324899 
L 236.972093 -105.365319 
L 233.07907 -104.409515 
L 229.186047 -103.506295 
L 225.293023 -102.505704 
L 221.4 -101.553428 
L 217.506977 -100.658331 
L 213.613953 -99.754026 
L 209.72093 -98.854392 
L 205.827907 -97.92536 
L 201.934884 -97.001169 
L 198.04186 -96.066355 
L 194.148837 -95.129638 
L 190.255814 -94.209071 
L 186.362791 -93.249519 
L 182.469767 -92.326688 
L 178.576744 -91.387537 
L 174.683721 -90.467169 
L 170.790698 -89.534932 
L 166.897674 -88.624141 
L 163.004651 -87.705086 
L 159.111628 -86.8047 
L 155.218605 -85.902921 
L 151.325581 -85.000163 
L 147.432558 -84.104214 
L 143.539535 -83.215987 
L 139.646512 -82.324622 
L 135.753488 -81.428631 
L 131.860465 -80.526186 
L 127.967442 -79.625643 
L 124.074419 -78.726722 
L 120.181395 -77.829137 
L 116.288372 -76.926673 
L 112.395349 -76.019639 
L 108.502326 -75.095857 
L 104.609302 -74.152051 
L 100.716279 -73.183102 
L 96.823256 -72.193606 
L 92.930233 -71.178655 
L 89.037209 -70.150184 
L 85.144186 -69.107124 
L 81.251163 -68.046806 
L 77.35814 -66.959883 
L 73.465116 -65.824122 
L 69.572093 -64.378142 
L 65.67907 -63.019626 
L 61.786047 -61.738699 
L 57.893023 -60.537072 
L 54 -59.440761 
z
" id="m49a0846d8f" style="stroke:#008000;stroke-opacity:0.1;"/>
    </defs>
    <g clip-path="url(#p081b8a5aff)">
     <use style="fill:#008000;fill-opacity:0.1;stroke:#008000;stroke-opacity:0.1;" x="0" xlink:href="#m49a0846d8f" y="288"/>
    </g>
   </g>
   <g id="PolyCollection_4">
    <defs>
     <path d="M 54 -59.440761 
L 54 -45.883636 
L 57.893023 -46.773501 
L 61.786047 -47.705676 
L 65.67907 -48.650898 
L 69.572093 -49.599954 
L 73.465116 -50.552658 
L 77.35814 -51.510346 
L 81.251163 -52.463887 
L 85.144186 -53.421237 
L 89.037209 -54.3862 
L 92.930233 -55.358615 
L 96.823256 -56.337245 
L 100.716279 -57.321225 
L 104.609302 -58.309694 
L 108.502326 -59.30444 
L 112.395349 -60.306524 
L 116.288372 -61.314789 
L 120.181395 -62.327819 
L 124.074419 -63.349457 
L 127.967442 -64.38226 
L 131.860465 -65.427484 
L 135.753488 -66.49044 
L 139.646512 -67.56509 
L 143.539535 -68.650093 
L 147.432558 -69.741615 
L 151.325581 -70.839556 
L 155.218605 -71.936366 
L 159.111628 -73.03339 
L 163.004651 -74.107208 
L 166.897674 -75.195277 
L 170.790698 -76.265495 
L 174.683721 -77.33734 
L 178.576744 -78.444355 
L 182.469767 -79.53037 
L 186.362791 -80.634317 
L 190.255814 -81.727884 
L 194.148837 -82.783888 
L 198.04186 -83.947863 
L 201.934884 -84.978464 
L 205.827907 -86.131625 
L 209.72093 -87.234027 
L 213.613953 -88.286027 
L 217.506977 -89.409315 
L 221.4 -90.551652 
L 225.293023 -91.670346 
L 229.186047 -92.63083 
L 233.07907 -93.889816 
L 236.972093 -94.96788 
L 240.865116 -95.841551 
L 244.75814 -97.103342 
L 248.651163 -98.241875 
L 252.544186 -99.312892 
L 256.437209 -100.651644 
L 260.330233 -101.762511 
L 264.223256 -103.168333 
L 268.116279 -104.186099 
L 272.009302 -105.126106 
L 275.902326 -106.774317 
L 279.795349 -107.878146 
L 283.688372 -109.353795 
L 287.581395 -110.525577 
L 291.474419 -111.634304 
L 295.367442 -113.26822 
L 299.260465 -114.675078 
L 303.153488 -115.661878 
L 307.046512 -117.13319 
L 310.939535 -118.493655 
L 314.832558 -119.878591 
L 318.725581 -121.887685 
L 322.618605 -122.990363 
L 326.511628 -124.375261 
L 330.404651 -126.382081 
L 334.297674 -127.751115 
L 338.190698 -129.095231 
L 342.083721 -130.525695 
L 345.976744 -131.851379 
L 349.869767 -134.123709 
L 353.762791 -135.533392 
L 357.655814 -137.289445 
L 361.548837 -138.40655 
L 365.44186 -140.245479 
L 369.334884 -142.317438 
L 373.227907 -143.544392 
L 377.12093 -145.257608 
L 381.013953 -146.934817 
L 384.906977 -147.972679 
L 388.8 -149.708683 
L 388.8 -243.556364 
L 388.8 -243.556364 
L 384.906977 -240.922437 
L 381.013953 -236.872161 
L 377.12093 -233.653994 
L 373.227907 -230.88357 
L 369.334884 -227.08527 
L 365.44186 -225.128771 
L 361.548837 -222.056649 
L 357.655814 -217.92831 
L 353.762791 -215.552199 
L 349.869767 -212.124131 
L 345.976744 -210.30915 
L 342.083721 -207.243705 
L 338.190698 -204.388865 
L 334.297674 -201.265633 
L 330.404651 -198.06234 
L 326.511628 -196.047236 
L 322.618605 -193.007051 
L 318.725581 -189.614401 
L 314.832558 -187.587351 
L 310.939535 -184.902752 
L 307.046512 -182.027882 
L 303.153488 -179.311232 
L 299.260465 -176.105923 
L 295.367442 -173.937526 
L 291.474419 -171.866898 
L 287.581395 -169.048664 
L 283.688372 -166.191037 
L 279.795349 -163.959841 
L 275.902326 -161.190216 
L 272.009302 -159.302679 
L 268.116279 -156.289875 
L 264.223256 -153.406189 
L 260.330233 -151.26736 
L 256.437209 -148.689851 
L 252.544186 -146.552773 
L 248.651163 -144.039461 
L 244.75814 -141.753958 
L 240.865116 -139.493336 
L 236.972093 -136.800082 
L 233.07907 -134.472885 
L 229.186047 -132.45681 
L 225.293023 -129.999326 
L 221.4 -127.87134 
L 217.506977 -125.705539 
L 213.613953 -123.599626 
L 209.72093 -121.42247 
L 205.827907 -119.344338 
L 201.934884 -117.392632 
L 198.04186 -115.2976 
L 194.148837 -113.448115 
L 190.255814 -111.393056 
L 186.362791 -109.460761 
L 182.469767 -107.562933 
L 178.576744 -105.674369 
L 174.683721 -103.831627 
L 170.790698 -101.972146 
L 166.897674 -100.138077 
L 163.004651 -98.379077 
L 159.111628 -96.62234 
L 155.218605 -94.936096 
L 151.325581 -93.258202 
L 147.432558 -91.622013 
L 143.539535 -90.028555 
L 139.646512 -88.473174 
L 135.753488 -86.951369 
L 131.860465 -85.45308 
L 127.967442 -83.979743 
L 124.074419 -82.535308 
L 120.181395 -81.113147 
L 116.288372 -79.713317 
L 112.395349 -78.335219 
L 108.502326 -76.976362 
L 104.609302 -75.633563 
L 100.716279 -74.303622 
L 96.823256 -72.987957 
L 92.930233 -71.683358 
L 89.037209 -70.396263 
L 85.144186 -69.125741 
L 81.251163 -67.869052 
L 77.35814 -66.623029 
L 73.465116 -65.381809 
L 69.572093 -64.154731 
L 65.67907 -62.941544 
L 61.786047 -61.743293 
L 57.893023 -60.568181 
L 54 -59.440761 
z
" id="mf831a3c7f5" style="stroke:#ffa500;stroke-opacity:0.1;"/>
    </defs>
    <g clip-path="url(#p081b8a5aff)">
     <use style="fill:#ffa500;fill-opacity:0.1;stroke:#ffa500;stroke-opacity:0.1;" x="0" xlink:href="#mf831a3c7f5" y="288"/>
    </g>
   </g>
   <g id="matplotlib.axis_1">
    <g id="xtick_1">
     <g id="line2d_1">
      <defs>
       <path d="M 0 0 
L 0 3.5 
" id="m125dba278e" style="stroke:#000000;stroke-width:0.8;"/>
      </defs>
      <g>
       <use style="stroke:#000000;stroke-width:0.8;" x="77.35814" xlink:href="#m125dba278e" y="252"/>
      </g>
     </g>
     <g id="text_1">
      <!-- 2020 -->
      <g transform="translate(64.63314 266.598437)scale(0.1 -0.1)">
       <defs>
        <path d="M 19.1875 8.296875 
L 53.609375 8.296875 
L 53.609375 0 
L 7.328125 0 
L 7.328125 8.296875 
Q 12.9375 14.109375 22.625 23.890625 
Q 32.328125 33.6875 34.8125 36.53125 
Q 39.546875 41.84375 41.421875 45.53125 
Q 43.3125 49.21875 43.3125 52.78125 
Q 43.3125 58.59375 39.234375 62.25 
Q 35.15625 65.921875 28.609375 65.921875 
Q 23.96875 65.921875 18.8125 64.3125 
Q 13.671875 62.703125 7.8125 59.421875 
L 7.8125 69.390625 
Q 13.765625 71.78125 18.9375 73 
Q 24.125 74.21875 28.421875 74.21875 
Q 39.75 74.21875 46.484375 68.546875 
Q 53.21875 62.890625 53.21875 53.421875 
Q 53.21875 48.921875 51.53125 44.890625 
Q 49.859375 40.875 45.40625 35.40625 
Q 44.1875 33.984375 37.640625 27.21875 
Q 31.109375 20.453125 19.1875 8.296875 
z
" id="DejaVuSans-50"/>
        <path d="M 31.78125 66.40625 
Q 24.171875 66.40625 20.328125 58.90625 
Q 16.5 51.421875 16.5 36.375 
Q 16.5 21.390625 20.328125 13.890625 
Q 24.171875 6.390625 31.78125 6.390625 
Q 39.453125 6.390625 43.28125 13.890625 
Q 47.125 21.390625 47.125 36.375 
Q 47.125 51.421875 43.28125 58.90625 
Q 39.453125 66.40625 31.78125 66.40625 
z
M 31.78125 74.21875 
Q 44.046875 74.21875 50.515625 64.515625 
Q 56.984375 54.828125 56.984375 36.375 
Q 56.984375 17.96875 50.515625 8.265625 
Q 44.046875 -1.421875 31.78125 -1.421875 
Q 19.53125 -1.421875 13.0625 8.265625 
Q 6.59375 17.96875 6.59375 36.375 
Q 6.59375 54.828125 13.0625 64.515625 
Q 19.53125 74.21875 31.78125 74.21875 
z
" id="DejaVuSans-48"/>
       </defs>
       <use xlink:href="#DejaVuSans-50"/>
       <use x="63.623047" xlink:href="#DejaVuSans-48"/>
       <use x="127.246094" xlink:href="#DejaVuSans-50"/>
       <use x="190.869141" xlink:href="#DejaVuSans-48"/>
      </g>
     </g>
    </g>
    <g id="xtick_2">
     <g id="line2d_2">
      <g>
       <use style="stroke:#000000;stroke-width:0.8;" x="116.288372" xlink:href="#m125dba278e" y="252"/>
      </g>
     </g>
     <g id="text_2">
      <!-- 2030 -->
      <g transform="translate(103.563372 266.598437)scale(0.1 -0.1)">
       <defs>
        <path d="M 40.578125 39.3125 
Q 47.65625 37.796875 51.625 33 
Q 55.609375 28.21875 55.609375 21.1875 
Q 55.609375 10.40625 48.1875 4.484375 
Q 40.765625 -1.421875 27.09375 -1.421875 
Q 22.515625 -1.421875 17.65625 -0.515625 
Q 12.796875 0.390625 7.625 2.203125 
L 7.625 11.71875 
Q 11.71875 9.328125 16.59375 8.109375 
Q 21.484375 6.890625 26.8125 6.890625 
Q 36.078125 6.890625 40.9375 10.546875 
Q 45.796875 14.203125 45.796875 21.1875 
Q 45.796875 27.640625 41.28125 31.265625 
Q 36.765625 34.90625 28.71875 34.90625 
L 20.21875 34.90625 
L 20.21875 43.015625 
L 29.109375 43.015625 
Q 36.375 43.015625 40.234375 45.921875 
Q 44.09375 48.828125 44.09375 54.296875 
Q 44.09375 59.90625 40.109375 62.90625 
Q 36.140625 65.921875 28.71875 65.921875 
Q 24.65625 65.921875 20.015625 65.03125 
Q 15.375 64.15625 9.8125 62.3125 
L 9.8125 71.09375 
Q 15.4375 72.65625 20.34375 73.4375 
Q 25.25 74.21875 29.59375 74.21875 
Q 40.828125 74.21875 47.359375 69.109375 
Q 53.90625 64.015625 53.90625 55.328125 
Q 53.90625 49.265625 50.4375 45.09375 
Q 46.96875 40.921875 40.578125 39.3125 
z
" id="DejaVuSans-51"/>
       </defs>
       <use xlink:href="#DejaVuSans-50"/>
       <use x="63.623047" xlink:href="#DejaVuSans-48"/>
       <use x="127.246094" xlink:href="#DejaVuSans-51"/>
       <use x="190.869141" xlink:href="#DejaVuSans-48"/>
      </g>
     </g>
    </g>
    <g id="xtick_3">
     <g id="line2d_3">
      <g>
       <use style="stroke:#000000;stroke-width:0.8;" x="155.218605" xlink:href="#m125dba278e" y="252"/>
      </g>
     </g>
     <g id="text_3">
      <!-- 2040 -->
      <g transform="translate(142.493605 266.598437)scale(0.1 -0.1)">
       <defs>
        <path d="M 37.796875 64.3125 
L 12.890625 25.390625 
L 37.796875 25.390625 
z
M 35.203125 72.90625 
L 47.609375 72.90625 
L 47.609375 25.390625 
L 58.015625 25.390625 
L 58.015625 17.1875 
L 47.609375 17.1875 
L 47.609375 0 
L 37.796875 0 
L 37.796875 17.1875 
L 4.890625 17.1875 
L 4.890625 26.703125 
z
" id="DejaVuSans-52"/>
       </defs>
       <use xlink:href="#DejaVuSans-50"/>
       <use x="63.623047" xlink:href="#DejaVuSans-48"/>
       <use x="127.246094" xlink:href="#DejaVuSans-52"/>
       <use x="190.869141" xlink:href="#DejaVuSans-48"/>
      </g>
     </g>
    </g>
    <g id="xtick_4">
     <g id="line2d_4">
      <g>
       <use style="stroke:#000000;stroke-width:0.8;" x="194.148837" xlink:href="#m125dba278e" y="252"/>
      </g>
     </g>
     <g id="text_4">
      <!-- 2050 -->
      <g transform="translate(181.423837 266.598437)scale(0.1 -0.1)">
       <defs>
        <path d="M 10.796875 72.90625 
L 49.515625 72.90625 
L 49.515625 64.59375 
L 19.828125 64.59375 
L 19.828125 46.734375 
Q 21.96875 47.46875 24.109375 47.828125 
Q 26.265625 48.1875 28.421875 48.1875 
Q 40.625 48.1875 47.75 41.5 
Q 54.890625 34.8125 54.890625 23.390625 
Q 54.890625 11.625 47.5625 5.09375 
Q 40.234375 -1.421875 26.90625 -1.421875 
Q 22.3125 -1.421875 17.546875 -0.640625 
Q 12.796875 0.140625 7.71875 1.703125 
L 7.71875 11.625 
Q 12.109375 9.234375 16.796875 8.0625 
Q 21.484375 6.890625 26.703125 6.890625 
Q 35.15625 6.890625 40.078125 11.328125 
Q 45.015625 15.765625 45.015625 23.390625 
Q 45.015625 31 40.078125 35.4375 
Q 35.15625 39.890625 26.703125 39.890625 
Q 22.75 39.890625 18.8125 39.015625 
Q 14.890625 38.140625 10.796875 36.28125 
z
" id="DejaVuSans-53"/>
       </defs>
       <use xlink:href="#DejaVuSans-50"/>
       <use x="63.623047" xlink:href="#DejaVuSans-48"/>
       <use x="127.246094" xlink:href="#DejaVuSans-53"/>
       <use x="190.869141" xlink:href="#DejaVuSans-48"/>
      </g>
     </g>
    </g>
    <g id="xtick_5">
     <g id="line2d_5">
      <g>
       <use style="stroke:#000000;stroke-width:0.8;" x="233.07907" xlink:href="#m125dba278e" y="252"/>
      </g>
     </g>
     <g id="text_5">
      <!-- 2060 -->
      <g transform="translate(220.35407 266.598437)scale(0.1 -0.1)">
       <defs>
        <path d="M 33.015625 40.375 
Q 26.375 40.375 22.484375 35.828125 
Q 18.609375 31.296875 18.609375 23.390625 
Q 18.609375 15.53125 22.484375 10.953125 
Q 26.375 6.390625 33.015625 6.390625 
Q 39.65625 6.390625 43.53125 10.953125 
Q 47.40625 15.53125 47.40625 23.390625 
Q 47.40625 31.296875 43.53125 35.828125 
Q 39.65625 40.375 33.015625 40.375 
z
M 52.59375 71.296875 
L 52.59375 62.3125 
Q 48.875 64.0625 45.09375 64.984375 
Q 41.3125 65.921875 37.59375 65.921875 
Q 27.828125 65.921875 22.671875 59.328125 
Q 17.53125 52.734375 16.796875 39.40625 
Q 19.671875 43.65625 24.015625 45.921875 
Q 28.375 48.1875 33.59375 48.1875 
Q 44.578125 48.1875 50.953125 41.515625 
Q 57.328125 34.859375 57.328125 23.390625 
Q 57.328125 12.15625 50.6875 5.359375 
Q 44.046875 -1.421875 33.015625 -1.421875 
Q 20.359375 -1.421875 13.671875 8.265625 
Q 6.984375 17.96875 6.984375 36.375 
Q 6.984375 53.65625 15.1875 63.9375 
Q 23.390625 74.21875 37.203125 74.21875 
Q 40.921875 74.21875 44.703125 73.484375 
Q 48.484375 72.75 52.59375 71.296875 
z
" id="DejaVuSans-54"/>
       </defs>
       <use xlink:href="#DejaVuSans-50"/>
       <use x="63.623047" xlink:href="#DejaVuSans-48"/>
       <use x="127.246094" xlink:href="#DejaVuSans-54"/>
       <use x="190.869141" xlink:href="#DejaVuSans-48"/>
      </g>
     </g>
    </g>
    <g id="xtick_6">
     <g id="line2d_6">
      <g>
       <use style="stroke:#000000;stroke-width:0.8;" x="272.009302" xlink:href="#m125dba278e" y="252"/>
      </g>
     </g>
     <g id="text_6">
      <!-- 2070 -->
      <g transform="translate(259.284302 266.598437)scale(0.1 -0.1)">
       <defs>
        <path d="M 8.203125 72.90625 
L 55.078125 72.90625 
L 55.078125 68.703125 
L 28.609375 0 
L 18.3125 0 
L 43.21875 64.59375 
L 8.203125 64.59375 
z
" id="DejaVuSans-55"/>
       </defs>
       <use xlink:href="#DejaVuSans-50"/>
       <use x="63.623047" xlink:href="#DejaVuSans-48"/>
       <use x="127.246094" xlink:href="#DejaVuSans-55"/>
       <use x="190.869141" xlink:href="#DejaVuSans-48"/>
      </g>
     </g>
    </g>
    <g id="xtick_7">
     <g id="line2d_7">
      <g>
       <use style="stroke:#000000;stroke-width:0.8;" x="310.939535" xlink:href="#m125dba278e" y="252"/>
      </g>
     </g>
     <g id="text_7">
      <!-- 2080 -->
      <g transform="translate(298.214535 266.598437)scale(0.1 -0.1)">
       <defs>
        <path d="M 31.78125 34.625 
Q 24.75 34.625 20.71875 30.859375 
Q 16.703125 27.09375 16.703125 20.515625 
Q 16.703125 13.921875 20.71875 10.15625 
Q 24.75 6.390625 31.78125 6.390625 
Q 38.8125 6.390625 42.859375 10.171875 
Q 46.921875 13.96875 46.921875 20.515625 
Q 46.921875 27.09375 42.890625 30.859375 
Q 38.875 34.625 31.78125 34.625 
z
M 21.921875 38.8125 
Q 15.578125 40.375 12.03125 44.71875 
Q 8.5 49.078125 8.5 55.328125 
Q 8.5 64.0625 14.71875 69.140625 
Q 20.953125 74.21875 31.78125 74.21875 
Q 42.671875 74.21875 48.875 69.140625 
Q 55.078125 64.0625 55.078125 55.328125 
Q 55.078125 49.078125 51.53125 44.71875 
Q 48 40.375 41.703125 38.8125 
Q 48.828125 37.15625 52.796875 32.3125 
Q 56.78125 27.484375 56.78125 20.515625 
Q 56.78125 9.90625 50.3125 4.234375 
Q 43.84375 -1.421875 31.78125 -1.421875 
Q 19.734375 -1.421875 13.25 4.234375 
Q 6.78125 9.90625 6.78125 20.515625 
Q 6.78125 27.484375 10.78125 32.3125 
Q 14.796875 37.15625 21.921875 38.8125 
z
M 18.3125 54.390625 
Q 18.3125 48.734375 21.84375 45.5625 
Q 25.390625 42.390625 31.78125 42.390625 
Q 38.140625 42.390625 41.71875 45.5625 
Q 45.3125 48.734375 45.3125 54.390625 
Q 45.3125 60.0625 41.71875 63.234375 
Q 38.140625 66.40625 31.78125 66.40625 
Q 25.390625 66.40625 21.84375 63.234375 
Q 18.3125 60.0625 18.3125 54.390625 
z
" id="DejaVuSans-56"/>
       </defs>
       <use xlink:href="#DejaVuSans-50"/>
       <use x="63.623047" xlink:href="#DejaVuSans-48"/>
       <use x="127.246094" xlink:href="#DejaVuSans-56"/>
       <use x="190.869141" xlink:href="#DejaVuSans-48"/>
      </g>
     </g>
    </g>
    <g id="xtick_8">
     <g id="line2d_8">
      <g>
       <use style="stroke:#000000;stroke-width:0.8;" x="349.869767" xlink:href="#m125dba278e" y="252"/>
      </g>
     </g>
     <g id="text_8">
      <!-- 2090 -->
      <g transform="translate(337.144767 266.598437)scale(0.1 -0.1)">
       <defs>
        <path d="M 10.984375 1.515625 
L 10.984375 10.5 
Q 14.703125 8.734375 18.5 7.8125 
Q 22.3125 6.890625 25.984375 6.890625 
Q 35.75 6.890625 40.890625 13.453125 
Q 46.046875 20.015625 46.78125 33.40625 
Q 43.953125 29.203125 39.59375 26.953125 
Q 35.25 24.703125 29.984375 24.703125 
Q 19.046875 24.703125 12.671875 31.3125 
Q 6.296875 37.9375 6.296875 49.421875 
Q 6.296875 60.640625 12.9375 67.421875 
Q 19.578125 74.21875 30.609375 74.21875 
Q 43.265625 74.21875 49.921875 64.515625 
Q 56.59375 54.828125 56.59375 36.375 
Q 56.59375 19.140625 48.40625 8.859375 
Q 40.234375 -1.421875 26.421875 -1.421875 
Q 22.703125 -1.421875 18.890625 -0.6875 
Q 15.09375 0.046875 10.984375 1.515625 
z
M 30.609375 32.421875 
Q 37.25 32.421875 41.125 36.953125 
Q 45.015625 41.5 45.015625 49.421875 
Q 45.015625 57.28125 41.125 61.84375 
Q 37.25 66.40625 30.609375 66.40625 
Q 23.96875 66.40625 20.09375 61.84375 
Q 16.21875 57.28125 16.21875 49.421875 
Q 16.21875 41.5 20.09375 36.953125 
Q 23.96875 32.421875 30.609375 32.421875 
z
" id="DejaVuSans-57"/>
       </defs>
       <use xlink:href="#DejaVuSans-50"/>
       <use x="63.623047" xlink:href="#DejaVuSans-48"/>
       <use x="127.246094" xlink:href="#DejaVuSans-57"/>
       <use x="190.869141" xlink:href="#DejaVuSans-48"/>
      </g>
     </g>
    </g>
    <g id="xtick_9">
     <g id="line2d_9">
      <g>
       <use style="stroke:#000000;stroke-width:0.8;" x="388.8" xlink:href="#m125dba278e" y="252"/>
      </g>
     </g>
     <g id="text_9">
      <!-- 2100 -->
      <g transform="translate(376.075 266.598437)scale(0.1 -0.1)">
       <defs>
        <path d="M 12.40625 8.296875 
L 28.515625 8.296875 
L 28.515625 63.921875 
L 10.984375 60.40625 
L 10.984375 69.390625 
L 28.421875 72.90625 
L 38.28125 72.90625 
L 38.28125 8.296875 
L 54.390625 8.296875 
L 54.390625 0 
L 12.40625 0 
z
" id="DejaVuSans-49"/>
       </defs>
       <use xlink:href="#DejaVuSans-50"/>
       <use x="63.623047" xlink:href="#DejaVuSans-49"/>
       <use x="127.246094" xlink:href="#DejaVuSans-48"/>
       <use x="190.869141" xlink:href="#DejaVuSans-48"/>
      </g>
     </g>
    </g>
    <g id="text_10">
     <!-- year -->
     <g transform="translate(210.244531 280.276563)scale(0.1 -0.1)">
      <defs>
       <path d="M 32.171875 -5.078125 
Q 28.375 -14.84375 24.75 -17.8125 
Q 21.140625 -20.796875 15.09375 -20.796875 
L 7.90625 -20.796875 
L 7.90625 -13.28125 
L 13.1875 -13.28125 
Q 16.890625 -13.28125 18.9375 -11.515625 
Q 21 -9.765625 23.484375 -3.21875 
L 25.09375 0.875 
L 2.984375 54.6875 
L 12.5 54.6875 
L 29.59375 11.921875 
L 46.6875 54.6875 
L 56.203125 54.6875 
z
" id="DejaVuSans-121"/>
       <path d="M 56.203125 29.59375 
L 56.203125 25.203125 
L 14.890625 25.203125 
Q 15.484375 15.921875 20.484375 11.0625 
Q 25.484375 6.203125 34.421875 6.203125 
Q 39.59375 6.203125 44.453125 7.46875 
Q 49.3125 8.734375 54.109375 11.28125 
L 54.109375 2.78125 
Q 49.265625 0.734375 44.1875 -0.34375 
Q 39.109375 -1.421875 33.890625 -1.421875 
Q 20.796875 -1.421875 13.15625 6.1875 
Q 5.515625 13.8125 5.515625 26.8125 
Q 5.515625 40.234375 12.765625 48.109375 
Q 20.015625 56 32.328125 56 
Q 43.359375 56 49.78125 48.890625 
Q 56.203125 41.796875 56.203125 29.59375 
z
M 47.21875 32.234375 
Q 47.125 39.59375 43.09375 43.984375 
Q 39.0625 48.390625 32.421875 48.390625 
Q 24.90625 48.390625 20.390625 44.140625 
Q 15.875 39.890625 15.1875 32.171875 
z
" id="DejaVuSans-101"/>
       <path d="M 34.28125 27.484375 
Q 23.390625 27.484375 19.1875 25 
Q 14.984375 22.515625 14.984375 16.5 
Q 14.984375 11.71875 18.140625 8.90625 
Q 21.296875 6.109375 26.703125 6.109375 
Q 34.1875 6.109375 38.703125 11.40625 
Q 43.21875 16.703125 43.21875 25.484375 
L 43.21875 27.484375 
z
M 52.203125 31.203125 
L 52.203125 0 
L 43.21875 0 
L 43.21875 8.296875 
Q 40.140625 3.328125 35.546875 0.953125 
Q 30.953125 -1.421875 24.3125 -1.421875 
Q 15.921875 -1.421875 10.953125 3.296875 
Q 6 8.015625 6 15.921875 
Q 6 25.140625 12.171875 29.828125 
Q 18.359375 34.515625 30.609375 34.515625 
L 43.21875 34.515625 
L 43.21875 35.40625 
Q 43.21875 41.609375 39.140625 45 
Q 35.0625 48.390625 27.6875 48.390625 
Q 23 48.390625 18.546875 47.265625 
Q 14.109375 46.140625 10.015625 43.890625 
L 10.015625 52.203125 
Q 14.9375 54.109375 19.578125 55.046875 
Q 24.21875 56 28.609375 56 
Q 40.484375 56 46.34375 49.84375 
Q 52.203125 43.703125 52.203125 31.203125 
z
" id="DejaVuSans-97"/>
       <path d="M 41.109375 46.296875 
Q 39.59375 47.171875 37.8125 47.578125 
Q 36.03125 48 33.890625 48 
Q 26.265625 48 22.1875 43.046875 
Q 18.109375 38.09375 18.109375 28.8125 
L 18.109375 0 
L 9.078125 0 
L 9.078125 54.6875 
L 18.109375 54.6875 
L 18.109375 46.1875 
Q 20.953125 51.171875 25.484375 53.578125 
Q 30.03125 56 36.53125 56 
Q 37.453125 56 38.578125 55.875 
Q 39.703125 55.765625 41.0625 55.515625 
z
" id="DejaVuSans-114"/>
      </defs>
      <use xlink:href="#DejaVuSans-121"/>
      <use x="59.179688" xlink:href="#DejaVuSans-101"/>
      <use x="120.703125" xlink:href="#DejaVuSans-97"/>
      <use x="181.982422" xlink:href="#DejaVuSans-114"/>
     </g>
    </g>
   </g>
   <g id="matplotlib.axis_2">
    <g id="ytick_1">
     <g id="line2d_10">
      <defs>
       <path d="M 0 0 
L -3.5 0 
" id="m3e6b224f2f" style="stroke:#000000;stroke-width:0.8;"/>
      </defs>
      <g>
       <use style="stroke:#000000;stroke-width:0.8;" x="54" xlink:href="#m3e6b224f2f" y="247.220808"/>
      </g>
     </g>
     <g id="text_11">
      <!-- 100 -->
      <g transform="translate(27.9125 251.020027)scale(0.1 -0.1)">
       <use xlink:href="#DejaVuSans-49"/>
       <use x="63.623047" xlink:href="#DejaVuSans-48"/>
       <use x="127.246094" xlink:href="#DejaVuSans-48"/>
      </g>
     </g>
    </g>
    <g id="ytick_2">
     <g id="line2d_11">
      <g>
       <use style="stroke:#000000;stroke-width:0.8;" x="54" xlink:href="#m3e6b224f2f" y="216.056206"/>
      </g>
     </g>
     <g id="text_12">
      <!-- 200 -->
      <g transform="translate(27.9125 219.855425)scale(0.1 -0.1)">
       <use xlink:href="#DejaVuSans-50"/>
       <use x="63.623047" xlink:href="#DejaVuSans-48"/>
       <use x="127.246094" xlink:href="#DejaVuSans-48"/>
      </g>
     </g>
    </g>
    <g id="ytick_3">
     <g id="line2d_12">
      <g>
       <use style="stroke:#000000;stroke-width:0.8;" x="54" xlink:href="#m3e6b224f2f" y="184.891604"/>
      </g>
     </g>
     <g id="text_13">
      <!-- 300 -->
      <g transform="translate(27.9125 188.690822)scale(0.1 -0.1)">
       <use xlink:href="#DejaVuSans-51"/>
       <use x="63.623047" xlink:href="#DejaVuSans-48"/>
       <use x="127.246094" xlink:href="#DejaVuSans-48"/>
      </g>
     </g>
    </g>
    <g id="ytick_4">
     <g id="line2d_13">
      <g>
       <use style="stroke:#000000;stroke-width:0.8;" x="54" xlink:href="#m3e6b224f2f" y="153.727001"/>
      </g>
     </g>
     <g id="text_14">
      <!-- 400 -->
      <g transform="translate(27.9125 157.52622)scale(0.1 -0.1)">
       <use xlink:href="#DejaVuSans-52"/>
       <use x="63.623047" xlink:href="#DejaVuSans-48"/>
       <use x="127.246094" xlink:href="#DejaVuSans-48"/>
      </g>
     </g>
    </g>
    <g id="ytick_5">
     <g id="line2d_14">
      <g>
       <use style="stroke:#000000;stroke-width:0.8;" x="54" xlink:href="#m3e6b224f2f" y="122.562399"/>
      </g>
     </g>
     <g id="text_15">
      <!-- 500 -->
      <g transform="translate(27.9125 126.361618)scale(0.1 -0.1)">
       <use xlink:href="#DejaVuSans-53"/>
       <use x="63.623047" xlink:href="#DejaVuSans-48"/>
       <use x="127.246094" xlink:href="#DejaVuSans-48"/>
      </g>
     </g>
    </g>
    <g id="ytick_6">
     <g id="line2d_15">
      <g>
       <use style="stroke:#000000;stroke-width:0.8;" x="54" xlink:href="#m3e6b224f2f" y="91.397797"/>
      </g>
     </g>
     <g id="text_16">
      <!-- 600 -->
      <g transform="translate(27.9125 95.197015)scale(0.1 -0.1)">
       <use xlink:href="#DejaVuSans-54"/>
       <use x="63.623047" xlink:href="#DejaVuSans-48"/>
       <use x="127.246094" xlink:href="#DejaVuSans-48"/>
      </g>
     </g>
    </g>
    <g id="ytick_7">
     <g id="line2d_16">
      <g>
       <use style="stroke:#000000;stroke-width:0.8;" x="54" xlink:href="#m3e6b224f2f" y="60.233194"/>
      </g>
     </g>
     <g id="text_17">
      <!-- 700 -->
      <g transform="translate(27.9125 64.032413)scale(0.1 -0.1)">
       <use xlink:href="#DejaVuSans-55"/>
       <use x="63.623047" xlink:href="#DejaVuSans-48"/>
       <use x="127.246094" xlink:href="#DejaVuSans-48"/>
      </g>
     </g>
    </g>
    <g id="text_18">
     <!-- D_CO2/ppm -->
     <g transform="translate(21.554687 173.141719)rotate(-90)scale(0.1 -0.1)">
      <defs>
       <path d="M 19.671875 64.796875 
L 19.671875 8.109375 
L 31.59375 8.109375 
Q 46.6875 8.109375 53.6875 14.9375 
Q 60.6875 21.78125 60.6875 36.53125 
Q 60.6875 51.171875 53.6875 57.984375 
Q 46.6875 64.796875 31.59375 64.796875 
z
M 9.8125 72.90625 
L 30.078125 72.90625 
Q 51.265625 72.90625 61.171875 64.09375 
Q 71.09375 55.28125 71.09375 36.53125 
Q 71.09375 17.671875 61.125 8.828125 
Q 51.171875 0 30.078125 0 
L 9.8125 0 
z
" id="DejaVuSans-68"/>
       <path d="M 50.984375 -16.609375 
L 50.984375 -23.578125 
L -0.984375 -23.578125 
L -0.984375 -16.609375 
z
" id="DejaVuSans-95"/>
       <path d="M 64.40625 67.28125 
L 64.40625 56.890625 
Q 59.421875 61.53125 53.78125 63.8125 
Q 48.140625 66.109375 41.796875 66.109375 
Q 29.296875 66.109375 22.65625 58.46875 
Q 16.015625 50.828125 16.015625 36.375 
Q 16.015625 21.96875 22.65625 14.328125 
Q 29.296875 6.6875 41.796875 6.6875 
Q 48.140625 6.6875 53.78125 8.984375 
Q 59.421875 11.28125 64.40625 15.921875 
L 64.40625 5.609375 
Q 59.234375 2.09375 53.4375 0.328125 
Q 47.65625 -1.421875 41.21875 -1.421875 
Q 24.65625 -1.421875 15.125 8.703125 
Q 5.609375 18.84375 5.609375 36.375 
Q 5.609375 53.953125 15.125 64.078125 
Q 24.65625 74.21875 41.21875 74.21875 
Q 47.75 74.21875 53.53125 72.484375 
Q 59.328125 70.75 64.40625 67.28125 
z
" id="DejaVuSans-67"/>
       <path d="M 39.40625 66.21875 
Q 28.65625 66.21875 22.328125 58.203125 
Q 16.015625 50.203125 16.015625 36.375 
Q 16.015625 22.609375 22.328125 14.59375 
Q 28.65625 6.59375 39.40625 6.59375 
Q 50.140625 6.59375 56.421875 14.59375 
Q 62.703125 22.609375 62.703125 36.375 
Q 62.703125 50.203125 56.421875 58.203125 
Q 50.140625 66.21875 39.40625 66.21875 
z
M 39.40625 74.21875 
Q 54.734375 74.21875 63.90625 63.9375 
Q 73.09375 53.65625 73.09375 36.375 
Q 73.09375 19.140625 63.90625 8.859375 
Q 54.734375 -1.421875 39.40625 -1.421875 
Q 24.03125 -1.421875 14.8125 8.828125 
Q 5.609375 19.09375 5.609375 36.375 
Q 5.609375 53.65625 14.8125 63.9375 
Q 24.03125 74.21875 39.40625 74.21875 
z
" id="DejaVuSans-79"/>
       <path d="M 25.390625 72.90625 
L 33.6875 72.90625 
L 8.296875 -9.28125 
L 0 -9.28125 
z
" id="DejaVuSans-47"/>
       <path d="M 18.109375 8.203125 
L 18.109375 -20.796875 
L 9.078125 -20.796875 
L 9.078125 54.6875 
L 18.109375 54.6875 
L 18.109375 46.390625 
Q 20.953125 51.265625 25.265625 53.625 
Q 29.59375 56 35.59375 56 
Q 45.5625 56 51.78125 48.09375 
Q 58.015625 40.1875 58.015625 27.296875 
Q 58.015625 14.40625 51.78125 6.484375 
Q 45.5625 -1.421875 35.59375 -1.421875 
Q 29.59375 -1.421875 25.265625 0.953125 
Q 20.953125 3.328125 18.109375 8.203125 
z
M 48.6875 27.296875 
Q 48.6875 37.203125 44.609375 42.84375 
Q 40.53125 48.484375 33.40625 48.484375 
Q 26.265625 48.484375 22.1875 42.84375 
Q 18.109375 37.203125 18.109375 27.296875 
Q 18.109375 17.390625 22.1875 11.75 
Q 26.265625 6.109375 33.40625 6.109375 
Q 40.53125 6.109375 44.609375 11.75 
Q 48.6875 17.390625 48.6875 27.296875 
z
" id="DejaVuSans-112"/>
       <path d="M 52 44.1875 
Q 55.375 50.25 60.0625 53.125 
Q 64.75 56 71.09375 56 
Q 79.640625 56 84.28125 50.015625 
Q 88.921875 44.046875 88.921875 33.015625 
L 88.921875 0 
L 79.890625 0 
L 79.890625 32.71875 
Q 79.890625 40.578125 77.09375 44.375 
Q 74.3125 48.1875 68.609375 48.1875 
Q 61.625 48.1875 57.5625 43.546875 
Q 53.515625 38.921875 53.515625 30.90625 
L 53.515625 0 
L 44.484375 0 
L 44.484375 32.71875 
Q 44.484375 40.625 41.703125 44.40625 
Q 38.921875 48.1875 33.109375 48.1875 
Q 26.21875 48.1875 22.15625 43.53125 
Q 18.109375 38.875 18.109375 30.90625 
L 18.109375 0 
L 9.078125 0 
L 9.078125 54.6875 
L 18.109375 54.6875 
L 18.109375 46.1875 
Q 21.1875 51.21875 25.484375 53.609375 
Q 29.78125 56 35.6875 56 
Q 41.65625 56 45.828125 52.96875 
Q 50 49.953125 52 44.1875 
z
" id="DejaVuSans-109"/>
      </defs>
      <use xlink:href="#DejaVuSans-68"/>
      <use x="77.001953" xlink:href="#DejaVuSans-95"/>
      <use x="127.001953" xlink:href="#DejaVuSans-67"/>
      <use x="196.826172" xlink:href="#DejaVuSans-79"/>
      <use x="275.537109" xlink:href="#DejaVuSans-50"/>
      <use x="339.160156" xlink:href="#DejaVuSans-47"/>
      <use x="372.851562" xlink:href="#DejaVuSans-112"/>
      <use x="436.328125" xlink:href="#DejaVuSans-112"/>
      <use x="499.804688" xlink:href="#DejaVuSans-109"/>
     </g>
    </g>
   </g>
   <g id="line2d_17">
    <path clip-path="url(#p081b8a5aff)" d="M 54 235.337801 
L 57.893023 234.451249 
L 61.786047 233.529126 
L 65.67907 232.596732 
L 69.572093 231.662436 
L 73.465116 230.727812 
L 77.35814 229.793502 
L 81.251163 228.864783 
L 85.144186 227.942899 
L 89.037209 227.026792 
L 92.930233 226.116391 
L 96.823256 225.212344 
L 100.716279 224.318402 
L 104.609302 223.433766 
L 108.502326 222.55728 
L 112.395349 221.688156 
L 116.288372 220.826279 
L 120.181395 219.95968 
L 124.074419 219.083342 
L 127.967442 218.195534 
L 131.860465 217.293893 
L 135.753488 216.377068 
L 139.646512 215.471708 
L 143.539535 214.566467 
L 147.432558 213.658986 
L 151.325581 212.745005 
L 155.218605 211.823163 
L 159.111628 210.895867 
L 163.004651 209.964852 
L 166.897674 209.025891 
L 170.790698 208.08148 
L 174.683721 207.126051 
L 178.576744 206.159391 
L 182.469767 205.178673 
L 186.362791 204.187726 
L 190.255814 203.186375 
L 194.148837 202.17374 
L 198.04186 201.155845 
L 201.934884 200.127678 
L 205.827907 199.101133 
L 209.72093 198.064878 
L 213.613953 197.022497 
L 217.506977 195.949616 
L 221.4 194.859607 
L 225.293023 193.755074 
L 229.186047 192.627954 
L 233.07907 191.487528 
L 236.972093 190.318484 
L 240.865116 189.184155 
L 244.75814 188.008635 
L 248.651163 186.83941 
L 252.544186 185.637603 
L 256.437209 184.44308 
L 260.330233 183.230078 
L 264.223256 181.962837 
L 268.116279 180.690783 
L 272.009302 179.410721 
L 275.902326 178.080491 
L 279.795349 176.787647 
L 283.688372 175.419193 
L 287.581395 174.002158 
L 291.474419 172.657015 
L 295.367442 171.214406 
L 299.260465 169.953851 
L 303.153488 168.525356 
L 307.046512 167.064363 
L 310.939535 165.616695 
L 314.832558 164.135634 
L 318.725581 162.67952 
L 322.618605 161.243407 
L 326.511628 159.613438 
L 330.404651 158.183184 
L 334.297674 156.76205 
L 338.190698 155.025019 
L 342.083721 153.651924 
L 345.976744 151.925364 
L 349.869767 150.152355 
L 353.762791 148.756158 
L 357.655814 147.192583 
L 361.548837 145.433848 
L 365.44186 143.672622 
L 369.334884 141.942639 
L 373.227907 140.132918 
L 377.12093 138.53558 
L 381.013953 136.927438 
L 384.906977 134.925239 
L 388.8 133.350537 
" style="fill:none;stroke:#0000ff;stroke-linecap:square;stroke-width:1.5;"/>
   </g>
   <g id="line2d_18">
    <path clip-path="url(#p081b8a5aff)" d="M 54 235.337801 
L 57.893023 234.419374 
L 61.786047 233.508973 
L 65.67907 232.607237 
L 69.572093 231.712248 
L 73.465116 230.823057 
L 77.35814 229.938192 
L 81.251163 229.052719 
L 85.144186 228.162824 
L 89.037209 227.266775 
L 92.930233 226.364078 
L 96.823256 225.45499 
L 100.716279 224.541869 
L 104.609302 223.623784 
L 108.502326 222.700416 
L 112.395349 221.770414 
L 116.288372 220.832299 
L 120.181395 219.884893 
L 124.074419 218.926206 
L 127.967442 217.955052 
L 131.860465 216.966973 
L 135.753488 215.959939 
L 139.646512 214.93988 
L 143.539535 213.906293 
L 147.432558 212.859666 
L 151.325581 211.796529 
L 155.218605 210.718721 
L 159.111628 209.625216 
L 163.004651 208.515277 
L 166.897674 207.390391 
L 170.790698 206.244292 
L 174.683721 205.080646 
L 178.576744 203.893818 
L 182.469767 202.676541 
L 186.362791 201.444893 
L 190.255814 200.190567 
L 194.148837 198.926146 
L 198.04186 197.658344 
L 201.934884 196.368058 
L 205.827907 195.064619 
L 209.72093 193.739049 
L 213.613953 192.421325 
L 217.506977 191.069781 
L 221.4 189.706909 
L 225.293023 188.315972 
L 229.186047 186.923675 
L 233.07907 185.505319 
L 236.972093 184.033322 
L 240.865116 182.63566 
L 244.75814 181.100941 
L 248.651163 179.644304 
L 252.544186 178.100092 
L 256.437209 176.524163 
L 260.330233 175.00759 
L 264.223256 173.412325 
L 268.116279 171.735915 
L 272.009302 170.205199 
L 275.902326 168.506772 
L 279.795349 166.758395 
L 283.688372 165.157671 
L 287.581395 163.432567 
L 291.474419 161.576947 
L 295.367442 159.814304 
L 299.260465 158.034722 
L 303.153488 156.133375 
L 307.046512 154.337188 
L 310.939535 152.671249 
L 314.832558 150.941256 
L 318.725581 149.15574 
L 322.618605 147.190547 
L 326.511628 145.260916 
L 330.404651 143.221768 
L 334.297674 141.460276 
L 338.190698 139.390124 
L 342.083721 137.356141 
L 345.976744 135.494178 
L 349.869767 133.376653 
L 353.762791 131.411337 
L 357.655814 129.693442 
L 361.548837 127.629063 
L 365.44186 125.483082 
L 369.334884 123.343597 
L 373.227907 121.222962 
L 377.12093 119.068488 
L 381.013953 116.947654 
L 384.906977 114.625925 
L 388.8 112.428825 
" style="fill:none;stroke:#ff0000;stroke-linecap:square;stroke-width:1.5;"/>
   </g>
   <g id="line2d_19">
    <path clip-path="url(#p081b8a5aff)" d="M 54 235.337801 
L 57.893023 234.356465 
L 61.786047 233.274078 
L 65.67907 232.124736 
L 69.572093 230.920812 
L 73.465116 229.665569 
L 77.35814 228.663509 
L 81.251163 227.718142 
L 85.144186 226.804052 
L 89.037209 225.910385 
L 92.930233 225.035027 
L 96.823256 224.177791 
L 100.716279 223.347646 
L 104.609302 222.542534 
L 108.502326 221.762886 
L 112.395349 221.00556 
L 116.288372 220.268877 
L 120.181395 219.539983 
L 124.074419 218.817851 
L 127.967442 218.099324 
L 131.860465 217.382618 
L 135.753488 216.665632 
L 139.646512 215.955992 
L 143.539535 215.25252 
L 147.432558 214.555777 
L 151.325581 213.861602 
L 155.218605 213.171269 
L 159.111628 212.49038 
L 163.004651 211.816487 
L 166.897674 211.143383 
L 170.790698 210.475994 
L 174.683721 209.806352 
L 178.576744 209.140176 
L 182.469767 208.471509 
L 186.362791 207.807183 
L 190.255814 207.137559 
L 194.148837 206.481094 
L 198.04186 205.827021 
L 201.934884 205.179871 
L 205.827907 204.541847 
L 209.72093 203.908811 
L 213.613953 203.287093 
L 217.506977 202.666127 
L 221.4 202.046639 
L 225.293023 201.420727 
L 229.186047 200.785855 
L 233.07907 200.173848 
L 236.972093 199.553642 
L 240.865116 198.939813 
L 244.75814 198.307543 
L 248.651163 197.711451 
L 252.544186 197.111365 
L 256.437209 196.495843 
L 260.330233 195.900798 
L 264.223256 195.292352 
L 268.116279 194.671466 
L 272.009302 194.04341 
L 275.902326 193.399593 
L 279.795349 192.824901 
L 283.688372 192.177395 
L 287.581395 191.56639 
L 291.474419 190.959818 
L 295.367442 190.454459 
L 299.260465 189.843083 
L 303.153488 189.270027 
L 307.046512 188.668219 
L 310.939535 188.030918 
L 314.832558 187.40113 
L 318.725581 186.806694 
L 322.618605 186.116104 
L 326.511628 185.577181 
L 330.404651 184.923436 
L 334.297674 184.382297 
L 338.190698 183.741696 
L 342.083721 183.221576 
L 345.976744 182.600499 
L 349.869767 182.105744 
L 353.762791 181.450725 
L 357.655814 180.858656 
L 361.548837 180.343976 
L 365.44186 179.804254 
L 369.334884 179.172384 
L 373.227907 178.643048 
L 377.12093 178.190862 
L 381.013953 177.551412 
L 384.906977 177.179553 
L 388.8 176.6387 
" style="fill:none;stroke:#008000;stroke-linecap:square;stroke-width:1.5;"/>
   </g>
   <g id="line2d_20">
    <path clip-path="url(#p081b8a5aff)" d="M 54 235.337801 
L 57.893023 234.32916 
L 61.786047 233.275514 
L 65.67907 232.203779 
L 69.572093 231.122657 
L 73.465116 230.032767 
L 77.35814 228.933313 
L 81.251163 227.833531 
L 85.144186 226.726511 
L 89.037209 225.608768 
L 92.930233 224.479013 
L 96.823256 223.337399 
L 100.716279 222.187576 
L 104.609302 221.028372 
L 108.502326 219.859599 
L 112.395349 218.679128 
L 116.288372 217.485947 
L 120.181395 216.279517 
L 124.074419 215.057618 
L 127.967442 213.818999 
L 131.860465 212.559718 
L 135.753488 211.279095 
L 139.646512 209.980868 
L 143.539535 208.660676 
L 147.432558 207.318186 
L 151.325581 205.951121 
L 155.218605 204.563769 
L 159.111628 203.172133 
L 163.004651 201.756858 
L 166.897674 200.333323 
L 170.790698 198.88118 
L 174.683721 197.415517 
L 178.576744 195.940638 
L 182.469767 194.453348 
L 186.362791 192.952458 
L 190.255814 191.439527 
L 194.148837 189.883998 
L 198.04186 188.377269 
L 201.934884 186.814454 
L 205.827907 185.262016 
L 209.72093 183.671754 
L 213.613953 182.057173 
L 217.506977 180.442573 
L 221.4 178.788504 
L 225.293023 177.165164 
L 229.186047 175.45618 
L 233.07907 173.81865 
L 236.972093 172.116019 
L 240.865116 170.332557 
L 244.75814 168.57135 
L 248.651163 166.859332 
L 252.544186 165.067168 
L 256.437209 163.329252 
L 260.330233 161.485064 
L 264.223256 159.712739 
L 268.116279 157.762013 
L 272.009302 155.785607 
L 275.902326 154.017733 
L 279.795349 152.081007 
L 283.688372 150.227584 
L 287.581395 148.212879 
L 291.474419 146.249399 
L 295.367442 144.397127 
L 299.260465 142.609499 
L 303.153488 140.51344 
L 307.046512 138.419464 
L 310.939535 136.301796 
L 314.832558 134.267034 
L 318.725581 132.248962 
L 322.618605 130.001293 
L 326.511628 127.788756 
L 330.404651 125.777789 
L 334.297674 123.491631 
L 338.190698 121.257952 
L 342.083721 119.1153 
L 345.976744 116.91973 
L 349.869767 114.876075 
L 353.762791 112.457204 
L 357.655814 110.391123 
L 361.548837 107.7684 
L 365.44186 105.312875 
L 369.334884 103.298646 
L 373.227907 100.786019 
L 377.12093 98.544199 
L 381.013953 96.096511 
L 384.906977 93.552442 
L 388.8 91.367477 
" style="fill:none;stroke:#ffa500;stroke-linecap:square;stroke-width:1.5;"/>
   </g>
   <g id="patch_3">
    <path d="M 54 252 
L 54 34.56 
" style="fill:none;stroke:#000000;stroke-linecap:square;stroke-linejoin:miter;stroke-width:0.8;"/>
   </g>
   <g id="patch_4">
    <path d="M 388.8 252 
L 388.8 34.56 
" style="fill:none;stroke:#000000;stroke-linecap:square;stroke-linejoin:miter;stroke-width:0.8;"/>
   </g>
   <g id="patch_5">
    <path d="M 54 252 
L 388.8 252 
" style="fill:none;stroke:#000000;stroke-linecap:square;stroke-linejoin:miter;stroke-width:0.8;"/>
   </g>
   <g id="patch_6">
    <path d="M 54 34.56 
L 388.8 34.56 
" style="fill:none;stroke:#000000;stroke-linecap:square;stroke-linejoin:miter;stroke-width:0.8;"/>
   </g>
   <g id="legend_1">
    <g id="patch_7">
     <path d="M 61 102.106875 
L 165.542188 102.106875 
Q 167.542188 102.106875 167.542188 100.106875 
L 167.542188 41.56 
Q 167.542188 39.56 165.542188 39.56 
L 61 39.56 
Q 59 39.56 59 41.56 
L 59 100.106875 
Q 59 102.106875 61 102.106875 
z
" style="fill:#ffffff;opacity:0.8;stroke:#cccccc;stroke-linejoin:miter;"/>
    </g>
    <g id="line2d_21">
     <path d="M 63 47.658437 
L 83 47.658437 
" style="fill:none;stroke:#0000ff;stroke-linecap:square;stroke-width:1.5;"/>
    </g>
    <g id="line2d_22"/>
    <g id="text_19">
     <!-- CD-LINKS NDC -->
     <g transform="translate(91 51.158437)scale(0.1 -0.1)">
      <defs>
       <path d="M 4.890625 31.390625 
L 31.203125 31.390625 
L 31.203125 23.390625 
L 4.890625 23.390625 
z
" id="DejaVuSans-45"/>
       <path d="M 9.8125 72.90625 
L 19.671875 72.90625 
L 19.671875 8.296875 
L 55.171875 8.296875 
L 55.171875 0 
L 9.8125 0 
z
" id="DejaVuSans-76"/>
       <path d="M 9.8125 72.90625 
L 19.671875 72.90625 
L 19.671875 0 
L 9.8125 0 
z
" id="DejaVuSans-73"/>
       <path d="M 9.8125 72.90625 
L 23.09375 72.90625 
L 55.421875 11.921875 
L 55.421875 72.90625 
L 64.984375 72.90625 
L 64.984375 0 
L 51.703125 0 
L 19.390625 60.984375 
L 19.390625 0 
L 9.8125 0 
z
" id="DejaVuSans-78"/>
       <path d="M 9.8125 72.90625 
L 19.671875 72.90625 
L 19.671875 42.09375 
L 52.390625 72.90625 
L 65.09375 72.90625 
L 28.90625 38.921875 
L 67.671875 0 
L 54.6875 0 
L 19.671875 35.109375 
L 19.671875 0 
L 9.8125 0 
z
" id="DejaVuSans-75"/>
       <path d="M 53.515625 70.515625 
L 53.515625 60.890625 
Q 47.90625 63.578125 42.921875 64.890625 
Q 37.9375 66.21875 33.296875 66.21875 
Q 25.25 66.21875 20.875 63.09375 
Q 16.5 59.96875 16.5 54.203125 
Q 16.5 49.359375 19.40625 46.890625 
Q 22.3125 44.4375 30.421875 42.921875 
L 36.375 41.703125 
Q 47.40625 39.59375 52.65625 34.296875 
Q 57.90625 29 57.90625 20.125 
Q 57.90625 9.515625 50.796875 4.046875 
Q 43.703125 -1.421875 29.984375 -1.421875 
Q 24.8125 -1.421875 18.96875 -0.25 
Q 13.140625 0.921875 6.890625 3.21875 
L 6.890625 13.375 
Q 12.890625 10.015625 18.65625 8.296875 
Q 24.421875 6.59375 29.984375 6.59375 
Q 38.421875 6.59375 43.015625 9.90625 
Q 47.609375 13.234375 47.609375 19.390625 
Q 47.609375 24.75 44.3125 27.78125 
Q 41.015625 30.8125 33.5 32.328125 
L 27.484375 33.5 
Q 16.453125 35.6875 11.515625 40.375 
Q 6.59375 45.0625 6.59375 53.421875 
Q 6.59375 63.09375 13.40625 68.65625 
Q 20.21875 74.21875 32.171875 74.21875 
Q 37.3125 74.21875 42.625 73.28125 
Q 47.953125 72.359375 53.515625 70.515625 
z
" id="DejaVuSans-83"/>
       <path id="DejaVuSans-32"/>
      </defs>
      <use xlink:href="#DejaVuSans-67"/>
      <use x="69.824219" xlink:href="#DejaVuSans-68"/>
      <use x="146.826172" xlink:href="#DejaVuSans-45"/>
      <use x="182.910156" xlink:href="#DejaVuSans-76"/>
      <use x="238.623047" xlink:href="#DejaVuSans-73"/>
      <use x="268.115234" xlink:href="#DejaVuSans-78"/>
      <use x="342.919922" xlink:href="#DejaVuSans-75"/>
      <use x="408.496094" xlink:href="#DejaVuSans-83"/>
      <use x="471.972656" xlink:href="#DejaVuSans-32"/>
      <use x="503.759766" xlink:href="#DejaVuSans-78"/>
      <use x="578.564453" xlink:href="#DejaVuSans-68"/>
      <use x="655.566406" xlink:href="#DejaVuSans-67"/>
     </g>
    </g>
    <g id="line2d_23">
     <path d="M 63 62.336562 
L 83 62.336562 
" style="fill:none;stroke:#ff0000;stroke-linecap:square;stroke-width:1.5;"/>
    </g>
    <g id="line2d_24"/>
    <g id="text_20">
     <!-- CD_NP -->
     <g transform="translate(91 65.836562)scale(0.1 -0.1)">
      <defs>
       <path d="M 19.671875 64.796875 
L 19.671875 37.40625 
L 32.078125 37.40625 
Q 38.96875 37.40625 42.71875 40.96875 
Q 46.484375 44.53125 46.484375 51.125 
Q 46.484375 57.671875 42.71875 61.234375 
Q 38.96875 64.796875 32.078125 64.796875 
z
M 9.8125 72.90625 
L 32.078125 72.90625 
Q 44.34375 72.90625 50.609375 67.359375 
Q 56.890625 61.8125 56.890625 51.125 
Q 56.890625 40.328125 50.609375 34.8125 
Q 44.34375 29.296875 32.078125 29.296875 
L 19.671875 29.296875 
L 19.671875 0 
L 9.8125 0 
z
" id="DejaVuSans-80"/>
      </defs>
      <use xlink:href="#DejaVuSans-67"/>
      <use x="69.824219" xlink:href="#DejaVuSans-68"/>
      <use x="146.826172" xlink:href="#DejaVuSans-95"/>
      <use x="196.826172" xlink:href="#DejaVuSans-78"/>
      <use x="271.630859" xlink:href="#DejaVuSans-80"/>
     </g>
    </g>
    <g id="line2d_25">
     <path d="M 63 77.292812 
L 83 77.292812 
" style="fill:none;stroke:#008000;stroke-linecap:square;stroke-width:1.5;"/>
    </g>
    <g id="line2d_26"/>
    <g id="text_21">
     <!-- AD_NDC -->
     <g transform="translate(91 80.792812)scale(0.1 -0.1)">
      <defs>
       <path d="M 34.1875 63.1875 
L 20.796875 26.90625 
L 47.609375 26.90625 
z
M 28.609375 72.90625 
L 39.796875 72.90625 
L 67.578125 0 
L 57.328125 0 
L 50.6875 18.703125 
L 17.828125 18.703125 
L 11.1875 0 
L 0.78125 0 
z
" id="DejaVuSans-65"/>
      </defs>
      <use xlink:href="#DejaVuSans-65"/>
      <use x="68.408203" xlink:href="#DejaVuSans-68"/>
      <use x="145.410156" xlink:href="#DejaVuSans-95"/>
      <use x="195.410156" xlink:href="#DejaVuSans-78"/>
      <use x="270.214844" xlink:href="#DejaVuSans-68"/>
      <use x="347.216797" xlink:href="#DejaVuSans-67"/>
     </g>
    </g>
    <g id="line2d_27">
     <path d="M 63 92.249062 
L 83 92.249062 
" style="fill:none;stroke:#ffa500;stroke-linecap:square;stroke-width:1.5;"/>
    </g>
    <g id="line2d_28"/>
    <g id="text_22">
     <!-- AD_NP -->
     <g transform="translate(91 95.749062)scale(0.1 -0.1)">
      <use xlink:href="#DejaVuSans-65"/>
      <use x="68.408203" xlink:href="#DejaVuSans-68"/>
      <use x="145.410156" xlink:href="#DejaVuSans-95"/>
      <use x="195.410156" xlink:href="#DejaVuSans-78"/>
      <use x="270.214844" xlink:href="#DejaVuSans-80"/>
     </g>
    </g>
   </g>
  </g>
 </g>
 <defs>
  <clipPath id="p081b8a5aff">
   <rect height="217.44" width="334.8" x="54" y="34.56"/>
  </clipPath>
 </defs>
</svg>
