<?xml version="1.0" encoding="utf-8" standalone="no"?>
<!DOCTYPE svg PUBLIC "-//W3C//DTD SVG 1.1//EN"
  "http://www.w3.org/Graphics/SVG/1.1/DTD/svg11.dtd">
<!-- Created with matplotlib (https://matplotlib.org/) -->
<svg height="288pt" version="1.1" viewBox="0 0 432 288" width="432pt" xmlns="http://www.w3.org/2000/svg" xmlns:xlink="http://www.w3.org/1999/xlink">
 <metadata>
  <rdf:RDF xmlns:cc="http://creativecommons.org/ns#" xmlns:dc="http://purl.org/dc/elements/1.1/" xmlns:rdf="http://www.w3.org/1999/02/22-rdf-syntax-ns#">
   <cc:Work>
    <dc:type rdf:resource="http://purl.org/dc/dcmitype/StillImage"/>
    <dc:date>2021-05-18T11:01:23.466067</dc:date>
    <dc:format>image/svg+xml</dc:format>
    <dc:creator>
     <cc:Agent>
      <dc:title>Matplotlib v3.3.2, https://matplotlib.org/</dc:title>
     </cc:Agent>
    </dc:creator>
   </cc:Work>
  </rdf:RDF>
 </metadata>
 <defs>
  <style type="text/css">*{stroke-linecap:butt;stroke-linejoin:round;}</style>
 </defs>
 <g id="figure_1">
  <g id="patch_1">
   <path d="M 0 288 
L 432 288 
L 432 0 
L 0 0 
z
" style="fill:#ffffff;"/>
  </g>
  <g id="axes_1">
   <g id="patch_2">
    <path d="M 54 252 
L 388.8 252 
L 388.8 34.56 
L 54 34.56 
z
" style="fill:#ffffff;"/>
   </g>
   <g id="PolyCollection_1">
    <defs>
     <path d="M 54 -62.216822 
L 54 -45.883636 
L 57.893023 -46.799329 
L 61.786047 -47.777548 
L 65.67907 -48.775046 
L 69.572093 -49.777095 
L 73.465116 -50.778896 
L 77.35814 -51.778839 
L 81.251163 -52.756218 
L 85.144186 -53.71202 
L 89.037209 -54.648261 
L 92.930233 -55.565578 
L 96.823256 -56.463753 
L 100.716279 -57.330096 
L 104.609302 -58.167318 
L 108.502326 -58.977437 
L 112.395349 -59.76329 
L 116.288372 -60.526302 
L 120.181395 -61.293236 
L 124.074419 -62.068503 
L 127.967442 -62.854724 
L 131.860465 -63.654434 
L 135.753488 -64.469371 
L 139.646512 -65.270589 
L 143.539535 -66.071029 
L 147.432558 -66.871062 
L 151.325581 -67.669371 
L 155.218605 -68.457944 
L 159.111628 -69.215572 
L 163.004651 -69.923149 
L 166.897674 -70.606105 
L 170.790698 -71.300114 
L 174.683721 -71.988205 
L 178.576744 -72.694308 
L 182.469767 -73.383672 
L 186.362791 -74.059073 
L 190.255814 -74.758657 
L 194.148837 -75.465784 
L 198.04186 -76.185995 
L 201.934884 -76.926955 
L 205.827907 -77.698445 
L 209.72093 -78.481934 
L 213.613953 -79.229715 
L 217.506977 -79.999547 
L 221.4 -80.787698 
L 225.293023 -81.585779 
L 229.186047 -82.391158 
L 233.07907 -83.200443 
L 236.972093 -83.992565 
L 240.865116 -84.770264 
L 244.75814 -85.531968 
L 248.651163 -86.292521 
L 252.544186 -87.102796 
L 256.437209 -88.012002 
L 260.330233 -88.980375 
L 264.223256 -89.956503 
L 268.116279 -90.910841 
L 272.009302 -91.877474 
L 275.902326 -92.798083 
L 279.795349 -93.830036 
L 283.688372 -94.630403 
L 287.581395 -95.909944 
L 291.474419 -96.23186 
L 295.367442 -98.042695 
L 299.260465 -99.084889 
L 303.153488 -99.752118 
L 307.046512 -100.629671 
L 310.939535 -100.670303 
L 314.832558 -102.876039 
L 318.725581 -103.612638 
L 322.618605 -104.400773 
L 326.511628 -105.529781 
L 330.404651 -106.514932 
L 334.297674 -107.764501 
L 338.190698 -107.824803 
L 342.083721 -110.490917 
L 345.976744 -111.230798 
L 349.869767 -110.453111 
L 353.762791 -113.601009 
L 357.655814 -113.767863 
L 361.548837 -113.406974 
L 365.44186 -116.949895 
L 369.334884 -116.63026 
L 373.227907 -117.742023 
L 377.12093 -118.915302 
L 381.013953 -120.695574 
L 384.906977 -121.691862 
L 388.8 -123.869795 
L 388.8 -210.568299 
L 388.8 -210.568299 
L 384.906977 -210.863602 
L 381.013953 -206.075829 
L 377.12093 -202.118224 
L 373.227907 -200.609624 
L 369.334884 -201.080804 
L 365.44186 -192.320229 
L 361.548837 -195.68438 
L 357.655814 -190.829229 
L 353.762791 -184.414999 
L 349.869767 -186.51039 
L 345.976744 -180.619254 
L 342.083721 -176.506899 
L 338.190698 -179.750379 
L 334.297674 -173.993544 
L 330.404651 -172.321459 
L 326.511628 -169.153902 
L 322.618605 -167.418845 
L 318.725581 -164.127925 
L 314.832558 -160.913328 
L 310.939535 -161.979709 
L 307.046512 -157.7424 
L 303.153488 -155.581078 
L 299.260465 -152.650179 
L 295.367442 -151.050469 
L 291.474419 -151.531006 
L 287.581395 -147.904552 
L 283.688372 -146.8601 
L 279.795349 -144.485873 
L 275.902326 -142.75708 
L 272.009302 -140.829846 
L 268.116279 -139.125363 
L 264.223256 -137.373283 
L 260.330233 -135.652056 
L 256.437209 -133.91671 
L 252.544186 -132.210669 
L 248.651163 -130.520227 
L 244.75814 -128.853962 
L 240.865116 -127.197331 
L 236.972093 -125.549724 
L 233.07907 -123.90532 
L 229.186047 -122.261017 
L 225.293023 -120.632769 
L 221.4 -119.024524 
L 217.506977 -117.432235 
L 213.613953 -115.870052 
L 209.72093 -114.321876 
L 205.827907 -112.757679 
L 201.934884 -111.265544 
L 198.04186 -109.817646 
L 194.148837 -108.373776 
L 190.255814 -106.912371 
L 186.362791 -105.412537 
L 182.469767 -103.784133 
L 178.576744 -102.160902 
L 174.683721 -100.627546 
L 170.790698 -99.055694 
L 166.897674 -97.524897 
L 163.004651 -95.980605 
L 159.111628 -94.491018 
L 155.218605 -93.144621 
L 151.325581 -91.896337 
L 147.432558 -90.700168 
L 143.539535 -89.530867 
L 139.646512 -88.374744 
L 135.753488 -87.223829 
L 131.860465 -86.064491 
L 127.967442 -84.921726 
L 124.074419 -83.793162 
L 120.181395 -82.676119 
L 116.288372 -81.567922 
L 112.395349 -80.465137 
L 108.502326 -79.340656 
L 104.609302 -78.193858 
L 100.716279 -77.022982 
L 96.823256 -75.826968 
L 92.930233 -74.604274 
L 89.037209 -73.369514 
L 85.144186 -72.123384 
L 81.251163 -70.866172 
L 77.35814 -69.597406 
L 73.465116 -68.31708 
L 69.572093 -67.047735 
L 65.67907 -65.791263 
L 61.786047 -64.552342 
L 57.893023 -63.345897 
L 54 -62.216822 
z
" id="m20d828276b" style="stroke:#ff0000;stroke-opacity:0.1;"/>
    </defs>
    <g clip-path="url(#p2fd45a324c)">
     <use style="fill:#ff0000;fill-opacity:0.1;stroke:#ff0000;stroke-opacity:0.1;" x="0" xlink:href="#m20d828276b" y="288"/>
    </g>
   </g>
   <g id="PolyCollection_2">
    <defs>
     <path d="M 54 -62.216822 
L 54 -45.883636 
L 57.893023 -46.878025 
L 61.786047 -47.87285 
L 65.67907 -48.855829 
L 69.572093 -49.825059 
L 73.465116 -50.779886 
L 77.35814 -51.720734 
L 81.251163 -52.653365 
L 85.144186 -53.58153 
L 89.037209 -54.507497 
L 92.930233 -55.431561 
L 96.823256 -56.353384 
L 100.716279 -57.271329 
L 104.609302 -58.186994 
L 108.502326 -59.101585 
L 112.395349 -60.017566 
L 116.288372 -60.936023 
L 120.181395 -61.859743 
L 124.074419 -62.792719 
L 127.967442 -63.737661 
L 131.860465 -64.69769 
L 135.753488 -65.675966 
L 139.646512 -66.665573 
L 143.539535 -67.667268 
L 147.432558 -68.678242 
L 151.325581 -69.698879 
L 155.218605 -70.727438 
L 159.111628 -71.758572 
L 163.004651 -72.794229 
L 166.897674 -73.831249 
L 170.790698 -74.852609 
L 174.683721 -75.826596 
L 178.576744 -76.786569 
L 182.469767 -77.791368 
L 186.362791 -78.781715 
L 190.255814 -79.782409 
L 194.148837 -80.769852 
L 198.04186 -81.763381 
L 201.934884 -82.76383 
L 205.827907 -83.820999 
L 209.72093 -84.881978 
L 213.613953 -85.930998 
L 217.506977 -86.971728 
L 221.4 -88.017198 
L 225.293023 -89.035193 
L 229.186047 -90.065025 
L 233.07907 -91.073474 
L 236.972093 -92.222709 
L 240.865116 -93.342684 
L 244.75814 -94.709213 
L 248.651163 -95.654188 
L 252.544186 -97.369291 
L 256.437209 -98.27813 
L 260.330233 -99.816592 
L 264.223256 -100.423075 
L 268.116279 -102.591328 
L 272.009302 -104.039716 
L 275.902326 -105.021451 
L 279.795349 -105.976741 
L 283.688372 -107.603654 
L 287.581395 -108.061328 
L 291.474419 -110.588502 
L 295.367442 -111.615175 
L 299.260465 -113.216855 
L 303.153488 -114.798252 
L 307.046512 -115.218743 
L 310.939535 -116.014688 
L 314.832558 -118.647135 
L 318.725581 -120.283038 
L 322.618605 -120.108173 
L 326.511628 -124.140877 
L 330.404651 -123.985538 
L 334.297674 -125.871228 
L 338.190698 -127.989816 
L 342.083721 -126.599149 
L 345.976744 -131.576662 
L 349.869767 -132.311881 
L 353.762791 -131.963441 
L 357.655814 -136.482046 
L 361.548837 -137.330382 
L 365.44186 -137.841126 
L 369.334884 -132.858206 
L 373.227907 -140.689971 
L 377.12093 -142.709038 
L 381.013953 -142.253111 
L 384.906977 -146.029709 
L 388.8 -149.430698 
L 388.8 -239.833448 
L 388.8 -239.833448 
L 384.906977 -239.367207 
L 381.013953 -240.073611 
L 377.12093 -232.333634 
L 373.227907 -230.345486 
L 369.334884 -243.556364 
L 365.44186 -231.785551 
L 361.548837 -223.948802 
L 357.655814 -217.993614 
L 353.762791 -222.7831 
L 349.869767 -214.479998 
L 345.976744 -208.308947 
L 342.083721 -214.077153 
L 338.190698 -202.704758 
L 334.297674 -201.21832 
L 330.404651 -198.114714 
L 326.511628 -190.743471 
L 322.618605 -192.226972 
L 318.725581 -186.340208 
L 314.832558 -183.737267 
L 310.939535 -183.497549 
L 307.046512 -179.138278 
L 303.153488 -173.327594 
L 299.260465 -171.248581 
L 295.367442 -169.097594 
L 291.474419 -165.116469 
L 287.581395 -165.768579 
L 283.688372 -160.585527 
L 279.795349 -159.076347 
L 275.902326 -155.346489 
L 272.009302 -151.631194 
L 268.116279 -149.510003 
L 264.223256 -149.593536 
L 260.330233 -145.695444 
L 256.437209 -144.234417 
L 252.544186 -141.065625 
L 248.651163 -140.27689 
L 244.75814 -137.539871 
L 240.865116 -135.910121 
L 236.972093 -133.688841 
L 233.07907 -131.799357 
L 229.186047 -129.741272 
L 225.293023 -127.811156 
L 221.4 -125.824165 
L 217.506977 -123.901148 
L 213.613953 -121.959228 
L 209.72093 -120.06239 
L 205.827907 -118.145392 
L 201.934884 -116.262906 
L 198.04186 -114.363687 
L 194.148837 -112.502363 
L 190.255814 -110.700651 
L 186.362791 -108.94036 
L 182.469767 -107.114528 
L 178.576744 -105.315163 
L 174.683721 -103.28684 
L 170.790698 -101.293207 
L 166.897674 -99.700761 
L 163.004651 -98.290758 
L 159.111628 -96.90018 
L 155.218605 -95.498994 
L 151.325581 -94.090475 
L 147.432558 -92.686396 
L 143.539535 -91.292359 
L 139.646512 -89.90988 
L 135.753488 -88.542172 
L 131.860465 -87.188699 
L 127.967442 -85.856265 
L 124.074419 -84.542422 
L 120.181395 -83.244685 
L 116.288372 -81.960876 
L 112.395349 -80.688316 
L 108.502326 -79.424062 
L 104.609302 -78.167361 
L 100.716279 -76.916285 
L 96.823256 -75.670038 
L 92.930233 -74.42779 
L 89.037209 -73.192368 
L 85.144186 -71.963956 
L 81.251163 -70.742447 
L 77.35814 -69.526395 
L 73.465116 -68.312552 
L 69.572093 -67.095154 
L 65.67907 -65.874112 
L 61.786047 -64.650272 
L 57.893023 -63.425303 
L 54 -62.216822 
z
" id="me535d437db" style="stroke:#0000ff;stroke-opacity:0.1;"/>
    </defs>
    <g clip-path="url(#p2fd45a324c)">
     <use style="fill:#0000ff;fill-opacity:0.1;stroke:#0000ff;stroke-opacity:0.1;" x="0" xlink:href="#me535d437db" y="288"/>
    </g>
   </g>
   <g id="matplotlib.axis_1">
    <g id="xtick_1">
     <g id="line2d_1">
      <defs>
       <path d="M 0 0 
L 0 3.5 
" id="mda20ade1c7" style="stroke:#000000;stroke-width:0.8;"/>
      </defs>
      <g>
       <use style="stroke:#000000;stroke-width:0.8;" x="77.35814" xlink:href="#mda20ade1c7" y="252"/>
      </g>
     </g>
     <g id="text_1">
      <!-- 2020 -->
      <g transform="translate(64.63314 266.598437)scale(0.1 -0.1)">
       <defs>
        <path d="M 19.1875 8.296875 
L 53.609375 8.296875 
L 53.609375 0 
L 7.328125 0 
L 7.328125 8.296875 
Q 12.9375 14.109375 22.625 23.890625 
Q 32.328125 33.6875 34.8125 36.53125 
Q 39.546875 41.84375 41.421875 45.53125 
Q 43.3125 49.21875 43.3125 52.78125 
Q 43.3125 58.59375 39.234375 62.25 
Q 35.15625 65.921875 28.609375 65.921875 
Q 23.96875 65.921875 18.8125 64.3125 
Q 13.671875 62.703125 7.8125 59.421875 
L 7.8125 69.390625 
Q 13.765625 71.78125 18.9375 73 
Q 24.125 74.21875 28.421875 74.21875 
Q 39.75 74.21875 46.484375 68.546875 
Q 53.21875 62.890625 53.21875 53.421875 
Q 53.21875 48.921875 51.53125 44.890625 
Q 49.859375 40.875 45.40625 35.40625 
Q 44.1875 33.984375 37.640625 27.21875 
Q 31.109375 20.453125 19.1875 8.296875 
z
" id="DejaVuSans-50"/>
        <path d="M 31.78125 66.40625 
Q 24.171875 66.40625 20.328125 58.90625 
Q 16.5 51.421875 16.5 36.375 
Q 16.5 21.390625 20.328125 13.890625 
Q 24.171875 6.390625 31.78125 6.390625 
Q 39.453125 6.390625 43.28125 13.890625 
Q 47.125 21.390625 47.125 36.375 
Q 47.125 51.421875 43.28125 58.90625 
Q 39.453125 66.40625 31.78125 66.40625 
z
M 31.78125 74.21875 
Q 44.046875 74.21875 50.515625 64.515625 
Q 56.984375 54.828125 56.984375 36.375 
Q 56.984375 17.96875 50.515625 8.265625 
Q 44.046875 -1.421875 31.78125 -1.421875 
Q 19.53125 -1.421875 13.0625 8.265625 
Q 6.59375 17.96875 6.59375 36.375 
Q 6.59375 54.828125 13.0625 64.515625 
Q 19.53125 74.21875 31.78125 74.21875 
z
" id="DejaVuSans-48"/>
       </defs>
       <use xlink:href="#DejaVuSans-50"/>
       <use x="63.623047" xlink:href="#DejaVuSans-48"/>
       <use x="127.246094" xlink:href="#DejaVuSans-50"/>
       <use x="190.869141" xlink:href="#DejaVuSans-48"/>
      </g>
     </g>
    </g>
    <g id="xtick_2">
     <g id="line2d_2">
      <g>
       <use style="stroke:#000000;stroke-width:0.8;" x="116.288372" xlink:href="#mda20ade1c7" y="252"/>
      </g>
     </g>
     <g id="text_2">
      <!-- 2030 -->
      <g transform="translate(103.563372 266.598437)scale(0.1 -0.1)">
       <defs>
        <path d="M 40.578125 39.3125 
Q 47.65625 37.796875 51.625 33 
Q 55.609375 28.21875 55.609375 21.1875 
Q 55.609375 10.40625 48.1875 4.484375 
Q 40.765625 -1.421875 27.09375 -1.421875 
Q 22.515625 -1.421875 17.65625 -0.515625 
Q 12.796875 0.390625 7.625 2.203125 
L 7.625 11.71875 
Q 11.71875 9.328125 16.59375 8.109375 
Q 21.484375 6.890625 26.8125 6.890625 
Q 36.078125 6.890625 40.9375 10.546875 
Q 45.796875 14.203125 45.796875 21.1875 
Q 45.796875 27.640625 41.28125 31.265625 
Q 36.765625 34.90625 28.71875 34.90625 
L 20.21875 34.90625 
L 20.21875 43.015625 
L 29.109375 43.015625 
Q 36.375 43.015625 40.234375 45.921875 
Q 44.09375 48.828125 44.09375 54.296875 
Q 44.09375 59.90625 40.109375 62.90625 
Q 36.140625 65.921875 28.71875 65.921875 
Q 24.65625 65.921875 20.015625 65.03125 
Q 15.375 64.15625 9.8125 62.3125 
L 9.8125 71.09375 
Q 15.4375 72.65625 20.34375 73.4375 
Q 25.25 74.21875 29.59375 74.21875 
Q 40.828125 74.21875 47.359375 69.109375 
Q 53.90625 64.015625 53.90625 55.328125 
Q 53.90625 49.265625 50.4375 45.09375 
Q 46.96875 40.921875 40.578125 39.3125 
z
" id="DejaVuSans-51"/>
       </defs>
       <use xlink:href="#DejaVuSans-50"/>
       <use x="63.623047" xlink:href="#DejaVuSans-48"/>
       <use x="127.246094" xlink:href="#DejaVuSans-51"/>
       <use x="190.869141" xlink:href="#DejaVuSans-48"/>
      </g>
     </g>
    </g>
    <g id="xtick_3">
     <g id="line2d_3">
      <g>
       <use style="stroke:#000000;stroke-width:0.8;" x="155.218605" xlink:href="#mda20ade1c7" y="252"/>
      </g>
     </g>
     <g id="text_3">
      <!-- 2040 -->
      <g transform="translate(142.493605 266.598437)scale(0.1 -0.1)">
       <defs>
        <path d="M 37.796875 64.3125 
L 12.890625 25.390625 
L 37.796875 25.390625 
z
M 35.203125 72.90625 
L 47.609375 72.90625 
L 47.609375 25.390625 
L 58.015625 25.390625 
L 58.015625 17.1875 
L 47.609375 17.1875 
L 47.609375 0 
L 37.796875 0 
L 37.796875 17.1875 
L 4.890625 17.1875 
L 4.890625 26.703125 
z
" id="DejaVuSans-52"/>
       </defs>
       <use xlink:href="#DejaVuSans-50"/>
       <use x="63.623047" xlink:href="#DejaVuSans-48"/>
       <use x="127.246094" xlink:href="#DejaVuSans-52"/>
       <use x="190.869141" xlink:href="#DejaVuSans-48"/>
      </g>
     </g>
    </g>
    <g id="xtick_4">
     <g id="line2d_4">
      <g>
       <use style="stroke:#000000;stroke-width:0.8;" x="194.148837" xlink:href="#mda20ade1c7" y="252"/>
      </g>
     </g>
     <g id="text_4">
      <!-- 2050 -->
      <g transform="translate(181.423837 266.598437)scale(0.1 -0.1)">
       <defs>
        <path d="M 10.796875 72.90625 
L 49.515625 72.90625 
L 49.515625 64.59375 
L 19.828125 64.59375 
L 19.828125 46.734375 
Q 21.96875 47.46875 24.109375 47.828125 
Q 26.265625 48.1875 28.421875 48.1875 
Q 40.625 48.1875 47.75 41.5 
Q 54.890625 34.8125 54.890625 23.390625 
Q 54.890625 11.625 47.5625 5.09375 
Q 40.234375 -1.421875 26.90625 -1.421875 
Q 22.3125 -1.421875 17.546875 -0.640625 
Q 12.796875 0.140625 7.71875 1.703125 
L 7.71875 11.625 
Q 12.109375 9.234375 16.796875 8.0625 
Q 21.484375 6.890625 26.703125 6.890625 
Q 35.15625 6.890625 40.078125 11.328125 
Q 45.015625 15.765625 45.015625 23.390625 
Q 45.015625 31 40.078125 35.4375 
Q 35.15625 39.890625 26.703125 39.890625 
Q 22.75 39.890625 18.8125 39.015625 
Q 14.890625 38.140625 10.796875 36.28125 
z
" id="DejaVuSans-53"/>
       </defs>
       <use xlink:href="#DejaVuSans-50"/>
       <use x="63.623047" xlink:href="#DejaVuSans-48"/>
       <use x="127.246094" xlink:href="#DejaVuSans-53"/>
       <use x="190.869141" xlink:href="#DejaVuSans-48"/>
      </g>
     </g>
    </g>
    <g id="xtick_5">
     <g id="line2d_5">
      <g>
       <use style="stroke:#000000;stroke-width:0.8;" x="233.07907" xlink:href="#mda20ade1c7" y="252"/>
      </g>
     </g>
     <g id="text_5">
      <!-- 2060 -->
      <g transform="translate(220.35407 266.598437)scale(0.1 -0.1)">
       <defs>
        <path d="M 33.015625 40.375 
Q 26.375 40.375 22.484375 35.828125 
Q 18.609375 31.296875 18.609375 23.390625 
Q 18.609375 15.53125 22.484375 10.953125 
Q 26.375 6.390625 33.015625 6.390625 
Q 39.65625 6.390625 43.53125 10.953125 
Q 47.40625 15.53125 47.40625 23.390625 
Q 47.40625 31.296875 43.53125 35.828125 
Q 39.65625 40.375 33.015625 40.375 
z
M 52.59375 71.296875 
L 52.59375 62.3125 
Q 48.875 64.0625 45.09375 64.984375 
Q 41.3125 65.921875 37.59375 65.921875 
Q 27.828125 65.921875 22.671875 59.328125 
Q 17.53125 52.734375 16.796875 39.40625 
Q 19.671875 43.65625 24.015625 45.921875 
Q 28.375 48.1875 33.59375 48.1875 
Q 44.578125 48.1875 50.953125 41.515625 
Q 57.328125 34.859375 57.328125 23.390625 
Q 57.328125 12.15625 50.6875 5.359375 
Q 44.046875 -1.421875 33.015625 -1.421875 
Q 20.359375 -1.421875 13.671875 8.265625 
Q 6.984375 17.96875 6.984375 36.375 
Q 6.984375 53.65625 15.1875 63.9375 
Q 23.390625 74.21875 37.203125 74.21875 
Q 40.921875 74.21875 44.703125 73.484375 
Q 48.484375 72.75 52.59375 71.296875 
z
" id="DejaVuSans-54"/>
       </defs>
       <use xlink:href="#DejaVuSans-50"/>
       <use x="63.623047" xlink:href="#DejaVuSans-48"/>
       <use x="127.246094" xlink:href="#DejaVuSans-54"/>
       <use x="190.869141" xlink:href="#DejaVuSans-48"/>
      </g>
     </g>
    </g>
    <g id="xtick_6">
     <g id="line2d_6">
      <g>
       <use style="stroke:#000000;stroke-width:0.8;" x="272.009302" xlink:href="#mda20ade1c7" y="252"/>
      </g>
     </g>
     <g id="text_6">
      <!-- 2070 -->
      <g transform="translate(259.284302 266.598437)scale(0.1 -0.1)">
       <defs>
        <path d="M 8.203125 72.90625 
L 55.078125 72.90625 
L 55.078125 68.703125 
L 28.609375 0 
L 18.3125 0 
L 43.21875 64.59375 
L 8.203125 64.59375 
z
" id="DejaVuSans-55"/>
       </defs>
       <use xlink:href="#DejaVuSans-50"/>
       <use x="63.623047" xlink:href="#DejaVuSans-48"/>
       <use x="127.246094" xlink:href="#DejaVuSans-55"/>
       <use x="190.869141" xlink:href="#DejaVuSans-48"/>
      </g>
     </g>
    </g>
    <g id="xtick_7">
     <g id="line2d_7">
      <g>
       <use style="stroke:#000000;stroke-width:0.8;" x="310.939535" xlink:href="#mda20ade1c7" y="252"/>
      </g>
     </g>
     <g id="text_7">
      <!-- 2080 -->
      <g transform="translate(298.214535 266.598437)scale(0.1 -0.1)">
       <defs>
        <path d="M 31.78125 34.625 
Q 24.75 34.625 20.71875 30.859375 
Q 16.703125 27.09375 16.703125 20.515625 
Q 16.703125 13.921875 20.71875 10.15625 
Q 24.75 6.390625 31.78125 6.390625 
Q 38.8125 6.390625 42.859375 10.171875 
Q 46.921875 13.96875 46.921875 20.515625 
Q 46.921875 27.09375 42.890625 30.859375 
Q 38.875 34.625 31.78125 34.625 
z
M 21.921875 38.8125 
Q 15.578125 40.375 12.03125 44.71875 
Q 8.5 49.078125 8.5 55.328125 
Q 8.5 64.0625 14.71875 69.140625 
Q 20.953125 74.21875 31.78125 74.21875 
Q 42.671875 74.21875 48.875 69.140625 
Q 55.078125 64.0625 55.078125 55.328125 
Q 55.078125 49.078125 51.53125 44.71875 
Q 48 40.375 41.703125 38.8125 
Q 48.828125 37.15625 52.796875 32.3125 
Q 56.78125 27.484375 56.78125 20.515625 
Q 56.78125 9.90625 50.3125 4.234375 
Q 43.84375 -1.421875 31.78125 -1.421875 
Q 19.734375 -1.421875 13.25 4.234375 
Q 6.78125 9.90625 6.78125 20.515625 
Q 6.78125 27.484375 10.78125 32.3125 
Q 14.796875 37.15625 21.921875 38.8125 
z
M 18.3125 54.390625 
Q 18.3125 48.734375 21.84375 45.5625 
Q 25.390625 42.390625 31.78125 42.390625 
Q 38.140625 42.390625 41.71875 45.5625 
Q 45.3125 48.734375 45.3125 54.390625 
Q 45.3125 60.0625 41.71875 63.234375 
Q 38.140625 66.40625 31.78125 66.40625 
Q 25.390625 66.40625 21.84375 63.234375 
Q 18.3125 60.0625 18.3125 54.390625 
z
" id="DejaVuSans-56"/>
       </defs>
       <use xlink:href="#DejaVuSans-50"/>
       <use x="63.623047" xlink:href="#DejaVuSans-48"/>
       <use x="127.246094" xlink:href="#DejaVuSans-56"/>
       <use x="190.869141" xlink:href="#DejaVuSans-48"/>
      </g>
     </g>
    </g>
    <g id="xtick_8">
     <g id="line2d_8">
      <g>
       <use style="stroke:#000000;stroke-width:0.8;" x="349.869767" xlink:href="#mda20ade1c7" y="252"/>
      </g>
     </g>
     <g id="text_8">
      <!-- 2090 -->
      <g transform="translate(337.144767 266.598437)scale(0.1 -0.1)">
       <defs>
        <path d="M 10.984375 1.515625 
L 10.984375 10.5 
Q 14.703125 8.734375 18.5 7.8125 
Q 22.3125 6.890625 25.984375 6.890625 
Q 35.75 6.890625 40.890625 13.453125 
Q 46.046875 20.015625 46.78125 33.40625 
Q 43.953125 29.203125 39.59375 26.953125 
Q 35.25 24.703125 29.984375 24.703125 
Q 19.046875 24.703125 12.671875 31.3125 
Q 6.296875 37.9375 6.296875 49.421875 
Q 6.296875 60.640625 12.9375 67.421875 
Q 19.578125 74.21875 30.609375 74.21875 
Q 43.265625 74.21875 49.921875 64.515625 
Q 56.59375 54.828125 56.59375 36.375 
Q 56.59375 19.140625 48.40625 8.859375 
Q 40.234375 -1.421875 26.421875 -1.421875 
Q 22.703125 -1.421875 18.890625 -0.6875 
Q 15.09375 0.046875 10.984375 1.515625 
z
M 30.609375 32.421875 
Q 37.25 32.421875 41.125 36.953125 
Q 45.015625 41.5 45.015625 49.421875 
Q 45.015625 57.28125 41.125 61.84375 
Q 37.25 66.40625 30.609375 66.40625 
Q 23.96875 66.40625 20.09375 61.84375 
Q 16.21875 57.28125 16.21875 49.421875 
Q 16.21875 41.5 20.09375 36.953125 
Q 23.96875 32.421875 30.609375 32.421875 
z
" id="DejaVuSans-57"/>
       </defs>
       <use xlink:href="#DejaVuSans-50"/>
       <use x="63.623047" xlink:href="#DejaVuSans-48"/>
       <use x="127.246094" xlink:href="#DejaVuSans-57"/>
       <use x="190.869141" xlink:href="#DejaVuSans-48"/>
      </g>
     </g>
    </g>
    <g id="xtick_9">
     <g id="line2d_9">
      <g>
       <use style="stroke:#000000;stroke-width:0.8;" x="388.8" xlink:href="#mda20ade1c7" y="252"/>
      </g>
     </g>
     <g id="text_9">
      <!-- 2100 -->
      <g transform="translate(376.075 266.598437)scale(0.1 -0.1)">
       <defs>
        <path d="M 12.40625 8.296875 
L 28.515625 8.296875 
L 28.515625 63.921875 
L 10.984375 60.40625 
L 10.984375 69.390625 
L 28.421875 72.90625 
L 38.28125 72.90625 
L 38.28125 8.296875 
L 54.390625 8.296875 
L 54.390625 0 
L 12.40625 0 
z
" id="DejaVuSans-49"/>
       </defs>
       <use xlink:href="#DejaVuSans-50"/>
       <use x="63.623047" xlink:href="#DejaVuSans-49"/>
       <use x="127.246094" xlink:href="#DejaVuSans-48"/>
       <use x="190.869141" xlink:href="#DejaVuSans-48"/>
      </g>
     </g>
    </g>
    <g id="text_10">
     <!-- year -->
     <g transform="translate(210.244531 280.276563)scale(0.1 -0.1)">
      <defs>
       <path d="M 32.171875 -5.078125 
Q 28.375 -14.84375 24.75 -17.8125 
Q 21.140625 -20.796875 15.09375 -20.796875 
L 7.90625 -20.796875 
L 7.90625 -13.28125 
L 13.1875 -13.28125 
Q 16.890625 -13.28125 18.9375 -11.515625 
Q 21 -9.765625 23.484375 -3.21875 
L 25.09375 0.875 
L 2.984375 54.6875 
L 12.5 54.6875 
L 29.59375 11.921875 
L 46.6875 54.6875 
L 56.203125 54.6875 
z
" id="DejaVuSans-121"/>
       <path d="M 56.203125 29.59375 
L 56.203125 25.203125 
L 14.890625 25.203125 
Q 15.484375 15.921875 20.484375 11.0625 
Q 25.484375 6.203125 34.421875 6.203125 
Q 39.59375 6.203125 44.453125 7.46875 
Q 49.3125 8.734375 54.109375 11.28125 
L 54.109375 2.78125 
Q 49.265625 0.734375 44.1875 -0.34375 
Q 39.109375 -1.421875 33.890625 -1.421875 
Q 20.796875 -1.421875 13.15625 6.1875 
Q 5.515625 13.8125 5.515625 26.8125 
Q 5.515625 40.234375 12.765625 48.109375 
Q 20.015625 56 32.328125 56 
Q 43.359375 56 49.78125 48.890625 
Q 56.203125 41.796875 56.203125 29.59375 
z
M 47.21875 32.234375 
Q 47.125 39.59375 43.09375 43.984375 
Q 39.0625 48.390625 32.421875 48.390625 
Q 24.90625 48.390625 20.390625 44.140625 
Q 15.875 39.890625 15.1875 32.171875 
z
" id="DejaVuSans-101"/>
       <path d="M 34.28125 27.484375 
Q 23.390625 27.484375 19.1875 25 
Q 14.984375 22.515625 14.984375 16.5 
Q 14.984375 11.71875 18.140625 8.90625 
Q 21.296875 6.109375 26.703125 6.109375 
Q 34.1875 6.109375 38.703125 11.40625 
Q 43.21875 16.703125 43.21875 25.484375 
L 43.21875 27.484375 
z
M 52.203125 31.203125 
L 52.203125 0 
L 43.21875 0 
L 43.21875 8.296875 
Q 40.140625 3.328125 35.546875 0.953125 
Q 30.953125 -1.421875 24.3125 -1.421875 
Q 15.921875 -1.421875 10.953125 3.296875 
Q 6 8.015625 6 15.921875 
Q 6 25.140625 12.171875 29.828125 
Q 18.359375 34.515625 30.609375 34.515625 
L 43.21875 34.515625 
L 43.21875 35.40625 
Q 43.21875 41.609375 39.140625 45 
Q 35.0625 48.390625 27.6875 48.390625 
Q 23 48.390625 18.546875 47.265625 
Q 14.109375 46.140625 10.015625 43.890625 
L 10.015625 52.203125 
Q 14.9375 54.109375 19.578125 55.046875 
Q 24.21875 56 28.609375 56 
Q 40.484375 56 46.34375 49.84375 
Q 52.203125 43.703125 52.203125 31.203125 
z
" id="DejaVuSans-97"/>
       <path d="M 41.109375 46.296875 
Q 39.59375 47.171875 37.8125 47.578125 
Q 36.03125 48 33.890625 48 
Q 26.265625 48 22.1875 43.046875 
Q 18.109375 38.09375 18.109375 28.8125 
L 18.109375 0 
L 9.078125 0 
L 9.078125 54.6875 
L 18.109375 54.6875 
L 18.109375 46.1875 
Q 20.953125 51.171875 25.484375 53.578125 
Q 30.03125 56 36.53125 56 
Q 37.453125 56 38.578125 55.875 
Q 39.703125 55.765625 41.0625 55.515625 
z
" id="DejaVuSans-114"/>
      </defs>
      <use xlink:href="#DejaVuSans-121"/>
      <use x="59.179688" xlink:href="#DejaVuSans-101"/>
      <use x="120.703125" xlink:href="#DejaVuSans-97"/>
      <use x="181.982422" xlink:href="#DejaVuSans-114"/>
     </g>
    </g>
   </g>
   <g id="matplotlib.axis_2">
    <g id="ytick_1">
     <g id="line2d_10">
      <defs>
       <path d="M 0 0 
L -3.5 0 
" id="mdd9c54c6ea" style="stroke:#000000;stroke-width:0.8;"/>
      </defs>
      <g>
       <use style="stroke:#000000;stroke-width:0.8;" x="54" xlink:href="#mdd9c54c6ea" y="248.979277"/>
      </g>
     </g>
     <g id="text_11">
      <!-- 100 -->
      <g transform="translate(27.9125 252.778496)scale(0.1 -0.1)">
       <use xlink:href="#DejaVuSans-49"/>
       <use x="63.623047" xlink:href="#DejaVuSans-48"/>
       <use x="127.246094" xlink:href="#DejaVuSans-48"/>
      </g>
     </g>
    </g>
    <g id="ytick_2">
     <g id="line2d_11">
      <g>
       <use style="stroke:#000000;stroke-width:0.8;" x="54" xlink:href="#mdd9c54c6ea" y="212.522033"/>
      </g>
     </g>
     <g id="text_12">
      <!-- 200 -->
      <g transform="translate(27.9125 216.321252)scale(0.1 -0.1)">
       <use xlink:href="#DejaVuSans-50"/>
       <use x="63.623047" xlink:href="#DejaVuSans-48"/>
       <use x="127.246094" xlink:href="#DejaVuSans-48"/>
      </g>
     </g>
    </g>
    <g id="ytick_3">
     <g id="line2d_12">
      <g>
       <use style="stroke:#000000;stroke-width:0.8;" x="54" xlink:href="#mdd9c54c6ea" y="176.06479"/>
      </g>
     </g>
     <g id="text_13">
      <!-- 300 -->
      <g transform="translate(27.9125 179.864008)scale(0.1 -0.1)">
       <use xlink:href="#DejaVuSans-51"/>
       <use x="63.623047" xlink:href="#DejaVuSans-48"/>
       <use x="127.246094" xlink:href="#DejaVuSans-48"/>
      </g>
     </g>
    </g>
    <g id="ytick_4">
     <g id="line2d_13">
      <g>
       <use style="stroke:#000000;stroke-width:0.8;" x="54" xlink:href="#mdd9c54c6ea" y="139.607546"/>
      </g>
     </g>
     <g id="text_14">
      <!-- 400 -->
      <g transform="translate(27.9125 143.406764)scale(0.1 -0.1)">
       <use xlink:href="#DejaVuSans-52"/>
       <use x="63.623047" xlink:href="#DejaVuSans-48"/>
       <use x="127.246094" xlink:href="#DejaVuSans-48"/>
      </g>
     </g>
    </g>
    <g id="ytick_5">
     <g id="line2d_14">
      <g>
       <use style="stroke:#000000;stroke-width:0.8;" x="54" xlink:href="#mdd9c54c6ea" y="103.150302"/>
      </g>
     </g>
     <g id="text_15">
      <!-- 500 -->
      <g transform="translate(27.9125 106.949521)scale(0.1 -0.1)">
       <use xlink:href="#DejaVuSans-53"/>
       <use x="63.623047" xlink:href="#DejaVuSans-48"/>
       <use x="127.246094" xlink:href="#DejaVuSans-48"/>
      </g>
     </g>
    </g>
    <g id="ytick_6">
     <g id="line2d_15">
      <g>
       <use style="stroke:#000000;stroke-width:0.8;" x="54" xlink:href="#mdd9c54c6ea" y="66.693058"/>
      </g>
     </g>
     <g id="text_16">
      <!-- 600 -->
      <g transform="translate(27.9125 70.492277)scale(0.1 -0.1)">
       <use xlink:href="#DejaVuSans-54"/>
       <use x="63.623047" xlink:href="#DejaVuSans-48"/>
       <use x="127.246094" xlink:href="#DejaVuSans-48"/>
      </g>
     </g>
    </g>
    <g id="text_17">
     <!-- D_CO2/ppm -->
     <g transform="translate(21.554687 173.141719)rotate(-90)scale(0.1 -0.1)">
      <defs>
       <path d="M 19.671875 64.796875 
L 19.671875 8.109375 
L 31.59375 8.109375 
Q 46.6875 8.109375 53.6875 14.9375 
Q 60.6875 21.78125 60.6875 36.53125 
Q 60.6875 51.171875 53.6875 57.984375 
Q 46.6875 64.796875 31.59375 64.796875 
z
M 9.8125 72.90625 
L 30.078125 72.90625 
Q 51.265625 72.90625 61.171875 64.09375 
Q 71.09375 55.28125 71.09375 36.53125 
Q 71.09375 17.671875 61.125 8.828125 
Q 51.171875 0 30.078125 0 
L 9.8125 0 
z
" id="DejaVuSans-68"/>
       <path d="M 50.984375 -16.609375 
L 50.984375 -23.578125 
L -0.984375 -23.578125 
L -0.984375 -16.609375 
z
" id="DejaVuSans-95"/>
       <path d="M 64.40625 67.28125 
L 64.40625 56.890625 
Q 59.421875 61.53125 53.78125 63.8125 
Q 48.140625 66.109375 41.796875 66.109375 
Q 29.296875 66.109375 22.65625 58.46875 
Q 16.015625 50.828125 16.015625 36.375 
Q 16.015625 21.96875 22.65625 14.328125 
Q 29.296875 6.6875 41.796875 6.6875 
Q 48.140625 6.6875 53.78125 8.984375 
Q 59.421875 11.28125 64.40625 15.921875 
L 64.40625 5.609375 
Q 59.234375 2.09375 53.4375 0.328125 
Q 47.65625 -1.421875 41.21875 -1.421875 
Q 24.65625 -1.421875 15.125 8.703125 
Q 5.609375 18.84375 5.609375 36.375 
Q 5.609375 53.953125 15.125 64.078125 
Q 24.65625 74.21875 41.21875 74.21875 
Q 47.75 74.21875 53.53125 72.484375 
Q 59.328125 70.75 64.40625 67.28125 
z
" id="DejaVuSans-67"/>
       <path d="M 39.40625 66.21875 
Q 28.65625 66.21875 22.328125 58.203125 
Q 16.015625 50.203125 16.015625 36.375 
Q 16.015625 22.609375 22.328125 14.59375 
Q 28.65625 6.59375 39.40625 6.59375 
Q 50.140625 6.59375 56.421875 14.59375 
Q 62.703125 22.609375 62.703125 36.375 
Q 62.703125 50.203125 56.421875 58.203125 
Q 50.140625 66.21875 39.40625 66.21875 
z
M 39.40625 74.21875 
Q 54.734375 74.21875 63.90625 63.9375 
Q 73.09375 53.65625 73.09375 36.375 
Q 73.09375 19.140625 63.90625 8.859375 
Q 54.734375 -1.421875 39.40625 -1.421875 
Q 24.03125 -1.421875 14.8125 8.828125 
Q 5.609375 19.09375 5.609375 36.375 
Q 5.609375 53.65625 14.8125 63.9375 
Q 24.03125 74.21875 39.40625 74.21875 
z
" id="DejaVuSans-79"/>
       <path d="M 25.390625 72.90625 
L 33.6875 72.90625 
L 8.296875 -9.28125 
L 0 -9.28125 
z
" id="DejaVuSans-47"/>
       <path d="M 18.109375 8.203125 
L 18.109375 -20.796875 
L 9.078125 -20.796875 
L 9.078125 54.6875 
L 18.109375 54.6875 
L 18.109375 46.390625 
Q 20.953125 51.265625 25.265625 53.625 
Q 29.59375 56 35.59375 56 
Q 45.5625 56 51.78125 48.09375 
Q 58.015625 40.1875 58.015625 27.296875 
Q 58.015625 14.40625 51.78125 6.484375 
Q 45.5625 -1.421875 35.59375 -1.421875 
Q 29.59375 -1.421875 25.265625 0.953125 
Q 20.953125 3.328125 18.109375 8.203125 
z
M 48.6875 27.296875 
Q 48.6875 37.203125 44.609375 42.84375 
Q 40.53125 48.484375 33.40625 48.484375 
Q 26.265625 48.484375 22.1875 42.84375 
Q 18.109375 37.203125 18.109375 27.296875 
Q 18.109375 17.390625 22.1875 11.75 
Q 26.265625 6.109375 33.40625 6.109375 
Q 40.53125 6.109375 44.609375 11.75 
Q 48.6875 17.390625 48.6875 27.296875 
z
" id="DejaVuSans-112"/>
       <path d="M 52 44.1875 
Q 55.375 50.25 60.0625 53.125 
Q 64.75 56 71.09375 56 
Q 79.640625 56 84.28125 50.015625 
Q 88.921875 44.046875 88.921875 33.015625 
L 88.921875 0 
L 79.890625 0 
L 79.890625 32.71875 
Q 79.890625 40.578125 77.09375 44.375 
Q 74.3125 48.1875 68.609375 48.1875 
Q 61.625 48.1875 57.5625 43.546875 
Q 53.515625 38.921875 53.515625 30.90625 
L 53.515625 0 
L 44.484375 0 
L 44.484375 32.71875 
Q 44.484375 40.625 41.703125 44.40625 
Q 38.921875 48.1875 33.109375 48.1875 
Q 26.21875 48.1875 22.15625 43.53125 
Q 18.109375 38.875 18.109375 30.90625 
L 18.109375 0 
L 9.078125 0 
L 9.078125 54.6875 
L 18.109375 54.6875 
L 18.109375 46.1875 
Q 21.1875 51.21875 25.484375 53.609375 
Q 29.78125 56 35.6875 56 
Q 41.65625 56 45.828125 52.96875 
Q 50 49.953125 52 44.1875 
z
" id="DejaVuSans-109"/>
      </defs>
      <use xlink:href="#DejaVuSans-68"/>
      <use x="77.001953" xlink:href="#DejaVuSans-95"/>
      <use x="127.001953" xlink:href="#DejaVuSans-67"/>
      <use x="196.826172" xlink:href="#DejaVuSans-79"/>
      <use x="275.537109" xlink:href="#DejaVuSans-50"/>
      <use x="339.160156" xlink:href="#DejaVuSans-47"/>
      <use x="372.851562" xlink:href="#DejaVuSans-112"/>
      <use x="436.328125" xlink:href="#DejaVuSans-112"/>
      <use x="499.804688" xlink:href="#DejaVuSans-109"/>
     </g>
    </g>
   </g>
   <g id="line2d_16">
    <path clip-path="url(#p2fd45a324c)" d="M 54 233.949771 
L 57.893023 232.927387 
L 61.786047 231.835055 
L 65.67907 230.716844 
L 69.572093 229.587585 
L 73.465116 228.452012 
L 77.35814 227.311878 
L 81.251163 226.188805 
L 85.144186 225.082298 
L 89.037209 223.991112 
L 92.930233 222.915074 
L 96.823256 221.85464 
L 100.716279 220.823461 
L 104.609302 219.819412 
L 108.502326 218.840953 
L 112.395349 217.885787 
L 116.288372 216.952888 
L 120.181395 216.015322 
L 124.074419 215.069167 
L 127.967442 214.111775 
L 131.860465 213.140537 
L 135.753488 212.1534 
L 139.646512 211.177333 
L 143.539535 210.199052 
L 147.432558 209.214385 
L 151.325581 208.217146 
L 155.218605 207.198717 
L 159.111628 206.146705 
L 163.004651 205.048126 
L 166.897674 203.934499 
L 170.790698 202.822096 
L 174.683721 201.692125 
L 178.576744 200.572395 
L 182.469767 199.416095 
L 186.362791 198.264195 
L 190.255814 197.164486 
L 194.148837 196.08022 
L 198.04186 194.99818 
L 201.934884 193.90375 
L 205.827907 192.771938 
L 209.72093 191.598092 
L 213.613953 190.450114 
L 217.506977 189.284112 
L 221.4 188.093889 
L 225.293023 186.890726 
L 229.186047 185.673912 
L 233.07907 184.447119 
L 236.972093 183.228858 
L 240.865116 182.016205 
L 244.75814 180.807035 
L 248.651163 179.593626 
L 252.544186 178.343267 
L 256.437209 177.035644 
L 260.330233 175.683784 
L 264.223256 174.335107 
L 268.116279 172.981901 
L 272.009302 171.64634 
L 275.902326 170.222418 
L 279.795349 168.842043 
L 283.688372 167.254749 
L 287.581395 166.092752 
L 291.474419 164.118567 
L 295.367442 163.453418 
L 299.260465 162.132466 
L 303.153488 160.333402 
L 307.046512 158.813965 
L 310.939535 156.674994 
L 314.832558 156.105316 
L 318.725581 154.129718 
L 322.618605 152.090191 
L 326.511628 150.658158 
L 330.404651 148.581804 
L 334.297674 147.120978 
L 338.190698 144.212409 
L 342.083721 144.501092 
L 345.976744 142.074974 
L 349.869767 139.518249 
L 353.762791 138.991996 
L 357.655814 135.701454 
L 361.548837 133.454318 
L 365.44186 133.364933 
L 369.334884 129.144468 
L 373.227907 128.824177 
L 377.12093 127.483242 
L 381.013953 124.614293 
L 384.906977 121.722268 
L 388.8 120.780953 
" style="fill:none;stroke:#ff0000;stroke-dasharray:5.55,2.4;stroke-dashoffset:0;stroke-width:1.5;"/>
   </g>
   <g id="line2d_17">
    <path clip-path="url(#p2fd45a324c)" d="M 54 233.949771 
L 57.893023 232.848338 
L 61.786047 231.738438 
L 65.67907 230.63503 
L 69.572093 229.539894 
L 73.465116 228.453781 
L 77.35814 227.376436 
L 81.251163 226.302094 
L 85.144186 225.227257 
L 89.037209 224.150067 
L 92.930233 223.070324 
L 96.823256 221.988289 
L 100.716279 220.906193 
L 104.609302 219.822822 
L 108.502326 218.737177 
L 112.395349 217.647059 
L 116.288372 216.55155 
L 120.181395 215.447786 
L 124.074419 214.332429 
L 127.967442 213.203037 
L 131.860465 212.056805 
L 135.753488 210.890931 
L 139.646512 209.712273 
L 143.539535 208.520187 
L 147.432558 207.317681 
L 151.325581 206.105323 
L 155.218605 204.886784 
L 159.111628 203.670627 
L 163.004651 202.457507 
L 166.897674 201.233995 
L 170.790698 199.927095 
L 174.683721 198.443282 
L 178.576744 196.949134 
L 182.469767 195.547052 
L 186.362791 194.138962 
L 190.255814 192.75847 
L 194.148837 191.363893 
L 198.04186 189.936466 
L 201.934884 188.486632 
L 205.827907 187.016805 
L 209.72093 185.527819 
L 213.613953 184.054887 
L 217.506977 182.563565 
L 221.4 181.079318 
L 225.293023 179.576826 
L 229.186047 178.096851 
L 233.07907 176.563585 
L 236.972093 175.044225 
L 240.865116 173.373598 
L 244.75814 171.875455 
L 248.651163 170.034458 
L 252.544186 168.782542 
L 256.437209 166.743727 
L 260.330233 165.243982 
L 264.223256 162.991695 
L 268.116279 161.949334 
L 272.009302 160.164545 
L 275.902326 157.81603 
L 279.795349 155.473456 
L 283.688372 153.90541 
L 287.581395 151.085047 
L 291.474419 150.147514 
L 295.367442 147.643615 
L 299.260465 145.767282 
L 303.153488 143.937077 
L 307.046512 140.821489 
L 310.939535 138.243881 
L 314.832558 136.807799 
L 318.725581 134.688377 
L 322.618605 131.832433 
L 326.511628 130.55782 
L 330.404651 126.949879 
L 334.297674 124.455226 
L 338.190698 122.652713 
L 342.083721 117.661849 
L 345.976744 118.057196 
L 349.869767 114.60406 
L 353.762791 110.626729 
L 357.655814 110.762164 
L 361.548837 107.360408 
L 365.44186 103.186661 
L 369.334884 99.792715 
L 373.227907 102.482271 
L 377.12093 100.478658 
L 381.013953 96.836639 
L 384.906977 95.301536 
L 388.8 93.367927 
" style="fill:none;stroke:#0000ff;stroke-linecap:square;stroke-width:1.5;"/>
   </g>
   <g id="patch_3">
    <path d="M 54 252 
L 54 34.56 
" style="fill:none;stroke:#000000;stroke-linecap:square;stroke-linejoin:miter;stroke-width:0.8;"/>
   </g>
   <g id="patch_4">
    <path d="M 388.8 252 
L 388.8 34.56 
" style="fill:none;stroke:#000000;stroke-linecap:square;stroke-linejoin:miter;stroke-width:0.8;"/>
   </g>
   <g id="patch_5">
    <path d="M 54 252 
L 388.8 252 
" style="fill:none;stroke:#000000;stroke-linecap:square;stroke-linejoin:miter;stroke-width:0.8;"/>
   </g>
   <g id="patch_6">
    <path d="M 54 34.56 
L 388.8 34.56 
" style="fill:none;stroke:#000000;stroke-linecap:square;stroke-linejoin:miter;stroke-width:0.8;"/>
   </g>
   <g id="legend_1">
    <g id="patch_7">
     <path d="M 61 72.194375 
L 165.542188 72.194375 
Q 167.542188 72.194375 167.542188 70.194375 
L 167.542188 41.56 
Q 167.542188 39.56 165.542188 39.56 
L 61 39.56 
Q 59 39.56 59 41.56 
L 59 70.194375 
Q 59 72.194375 61 72.194375 
z
" style="fill:#ffffff;opacity:0.8;stroke:#cccccc;stroke-linejoin:miter;"/>
    </g>
    <g id="line2d_18">
     <path d="M 63 47.658437 
L 83 47.658437 
" style="fill:none;stroke:#ff0000;stroke-dasharray:5.55,2.4;stroke-dashoffset:0;stroke-width:1.5;"/>
    </g>
    <g id="line2d_19"/>
    <g id="text_18">
     <!-- CD-LINKS NDC -->
     <g transform="translate(91 51.158437)scale(0.1 -0.1)">
      <defs>
       <path d="M 4.890625 31.390625 
L 31.203125 31.390625 
L 31.203125 23.390625 
L 4.890625 23.390625 
z
" id="DejaVuSans-45"/>
       <path d="M 9.8125 72.90625 
L 19.671875 72.90625 
L 19.671875 8.296875 
L 55.171875 8.296875 
L 55.171875 0 
L 9.8125 0 
z
" id="DejaVuSans-76"/>
       <path d="M 9.8125 72.90625 
L 19.671875 72.90625 
L 19.671875 0 
L 9.8125 0 
z
" id="DejaVuSans-73"/>
       <path d="M 9.8125 72.90625 
L 23.09375 72.90625 
L 55.421875 11.921875 
L 55.421875 72.90625 
L 64.984375 72.90625 
L 64.984375 0 
L 51.703125 0 
L 19.390625 60.984375 
L 19.390625 0 
L 9.8125 0 
z
" id="DejaVuSans-78"/>
       <path d="M 9.8125 72.90625 
L 19.671875 72.90625 
L 19.671875 42.09375 
L 52.390625 72.90625 
L 65.09375 72.90625 
L 28.90625 38.921875 
L 67.671875 0 
L 54.6875 0 
L 19.671875 35.109375 
L 19.671875 0 
L 9.8125 0 
z
" id="DejaVuSans-75"/>
       <path d="M 53.515625 70.515625 
L 53.515625 60.890625 
Q 47.90625 63.578125 42.921875 64.890625 
Q 37.9375 66.21875 33.296875 66.21875 
Q 25.25 66.21875 20.875 63.09375 
Q 16.5 59.96875 16.5 54.203125 
Q 16.5 49.359375 19.40625 46.890625 
Q 22.3125 44.4375 30.421875 42.921875 
L 36.375 41.703125 
Q 47.40625 39.59375 52.65625 34.296875 
Q 57.90625 29 57.90625 20.125 
Q 57.90625 9.515625 50.796875 4.046875 
Q 43.703125 -1.421875 29.984375 -1.421875 
Q 24.8125 -1.421875 18.96875 -0.25 
Q 13.140625 0.921875 6.890625 3.21875 
L 6.890625 13.375 
Q 12.890625 10.015625 18.65625 8.296875 
Q 24.421875 6.59375 29.984375 6.59375 
Q 38.421875 6.59375 43.015625 9.90625 
Q 47.609375 13.234375 47.609375 19.390625 
Q 47.609375 24.75 44.3125 27.78125 
Q 41.015625 30.8125 33.5 32.328125 
L 27.484375 33.5 
Q 16.453125 35.6875 11.515625 40.375 
Q 6.59375 45.0625 6.59375 53.421875 
Q 6.59375 63.09375 13.40625 68.65625 
Q 20.21875 74.21875 32.171875 74.21875 
Q 37.3125 74.21875 42.625 73.28125 
Q 47.953125 72.359375 53.515625 70.515625 
z
" id="DejaVuSans-83"/>
       <path id="DejaVuSans-32"/>
      </defs>
      <use xlink:href="#DejaVuSans-67"/>
      <use x="69.824219" xlink:href="#DejaVuSans-68"/>
      <use x="146.826172" xlink:href="#DejaVuSans-45"/>
      <use x="182.910156" xlink:href="#DejaVuSans-76"/>
      <use x="238.623047" xlink:href="#DejaVuSans-73"/>
      <use x="268.115234" xlink:href="#DejaVuSans-78"/>
      <use x="342.919922" xlink:href="#DejaVuSans-75"/>
      <use x="408.496094" xlink:href="#DejaVuSans-83"/>
      <use x="471.972656" xlink:href="#DejaVuSans-32"/>
      <use x="503.759766" xlink:href="#DejaVuSans-78"/>
      <use x="578.564453" xlink:href="#DejaVuSans-68"/>
      <use x="655.566406" xlink:href="#DejaVuSans-67"/>
     </g>
    </g>
    <g id="line2d_20">
     <path d="M 63 62.336562 
L 83 62.336562 
" style="fill:none;stroke:#0000ff;stroke-linecap:square;stroke-width:1.5;"/>
    </g>
    <g id="line2d_21"/>
    <g id="text_19">
     <!-- CD_NP -->
     <g transform="translate(91 65.836562)scale(0.1 -0.1)">
      <defs>
       <path d="M 19.671875 64.796875 
L 19.671875 37.40625 
L 32.078125 37.40625 
Q 38.96875 37.40625 42.71875 40.96875 
Q 46.484375 44.53125 46.484375 51.125 
Q 46.484375 57.671875 42.71875 61.234375 
Q 38.96875 64.796875 32.078125 64.796875 
z
M 9.8125 72.90625 
L 32.078125 72.90625 
Q 44.34375 72.90625 50.609375 67.359375 
Q 56.890625 61.8125 56.890625 51.125 
Q 56.890625 40.328125 50.609375 34.8125 
Q 44.34375 29.296875 32.078125 29.296875 
L 19.671875 29.296875 
L 19.671875 0 
L 9.8125 0 
z
" id="DejaVuSans-80"/>
      </defs>
      <use xlink:href="#DejaVuSans-67"/>
      <use x="69.824219" xlink:href="#DejaVuSans-68"/>
      <use x="146.826172" xlink:href="#DejaVuSans-95"/>
      <use x="196.826172" xlink:href="#DejaVuSans-78"/>
      <use x="271.630859" xlink:href="#DejaVuSans-80"/>
     </g>
    </g>
   </g>
  </g>
 </g>
 <defs>
  <clipPath id="p2fd45a324c">
   <rect height="217.44" width="334.8" x="54" y="34.56"/>
  </clipPath>
 </defs>
</svg>
