<?xml version="1.0" encoding="utf-8" standalone="no"?>
<!DOCTYPE svg PUBLIC "-//W3C//DTD SVG 1.1//EN"
  "http://www.w3.org/Graphics/SVG/1.1/DTD/svg11.dtd">
<!-- Created with matplotlib (https://matplotlib.org/) -->
<svg height="288pt" version="1.1" viewBox="0 0 432 288" width="432pt" xmlns="http://www.w3.org/2000/svg" xmlns:xlink="http://www.w3.org/1999/xlink">
 <metadata>
  <rdf:RDF xmlns:cc="http://creativecommons.org/ns#" xmlns:dc="http://purl.org/dc/elements/1.1/" xmlns:rdf="http://www.w3.org/1999/02/22-rdf-syntax-ns#">
   <cc:Work>
    <dc:type rdf:resource="http://purl.org/dc/dcmitype/StillImage"/>
    <dc:date>2021-05-18T19:29:04.961138</dc:date>
    <dc:format>image/svg+xml</dc:format>
    <dc:creator>
     <cc:Agent>
      <dc:title>Matplotlib v3.3.2, https://matplotlib.org/</dc:title>
     </cc:Agent>
    </dc:creator>
   </cc:Work>
  </rdf:RDF>
 </metadata>
 <defs>
  <style type="text/css">*{stroke-linecap:butt;stroke-linejoin:round;}</style>
 </defs>
 <g id="figure_1">
  <g id="patch_1">
   <path d="M 0 288 
L 432 288 
L 432 0 
L 0 0 
z
" style="fill:#ffffff;"/>
  </g>
  <g id="axes_1">
   <g id="patch_2">
    <path d="M 54 252 
L 388.8 252 
L 388.8 34.56 
L 54 34.56 
z
" style="fill:#ffffff;"/>
   </g>
   <g id="PolyCollection_1">
    <defs>
     <path d="M 54 -62.428385 
L 54 -45.883636 
L 57.893023 -46.851263 
L 61.786047 -47.861433 
L 65.67907 -48.879952 
L 69.572093 -49.895473 
L 73.465116 -50.905281 
L 77.35814 -51.909143 
L 81.251163 -52.903589 
L 85.144186 -53.889707 
L 89.037209 -54.869401 
L 92.930233 -55.843127 
L 96.823256 -56.810339 
L 100.716279 -57.765262 
L 104.609302 -58.709619 
L 108.502326 -59.644723 
L 112.395349 -60.572868 
L 116.288372 -61.495006 
L 120.181395 -62.425607 
L 124.074419 -63.368662 
L 127.967442 -64.326538 
L 131.860465 -65.301729 
L 135.753488 -66.296096 
L 139.646512 -67.262909 
L 143.539535 -68.216648 
L 147.432558 -69.159584 
L 151.325581 -70.093471 
L 155.218605 -71.016855 
L 159.111628 -71.927001 
L 163.004651 -72.823083 
L 166.897674 -73.700958 
L 170.790698 -74.545052 
L 174.683721 -75.340836 
L 178.576744 -76.158682 
L 182.469767 -76.966064 
L 186.362791 -77.780111 
L 190.255814 -78.601535 
L 194.148837 -79.423742 
L 198.04186 -80.253106 
L 201.934884 -81.084284 
L 205.827907 -81.908717 
L 209.72093 -82.735685 
L 213.613953 -83.612298 
L 217.506977 -84.566251 
L 221.4 -85.514609 
L 225.293023 -86.478542 
L 229.186047 -87.445669 
L 233.07907 -88.416432 
L 236.972093 -89.375006 
L 240.865116 -90.316162 
L 244.75814 -91.25077 
L 248.651163 -92.175996 
L 252.544186 -93.215674 
L 256.437209 -94.319062 
L 260.330233 -95.571123 
L 264.223256 -96.588261 
L 268.116279 -98.141727 
L 272.009302 -98.65468 
L 275.902326 -100.822889 
L 279.795349 -102.201185 
L 283.688372 -102.974362 
L 287.581395 -103.872095 
L 291.474419 -105.202933 
L 295.367442 -106.300889 
L 299.260465 -108.039734 
L 303.153488 -108.061136 
L 307.046512 -110.950578 
L 310.939535 -111.618505 
L 314.832558 -111.446052 
L 318.725581 -114.843917 
L 322.618605 -115.125509 
L 326.511628 -114.254903 
L 330.404651 -118.314688 
L 334.297674 -118.352398 
L 338.190698 -118.130413 
L 342.083721 -122.632736 
L 345.976744 -123.223892 
L 349.869767 -120.54291 
L 353.762791 -125.787869 
L 357.655814 -128.371399 
L 361.548837 -130.60973 
L 365.44186 -131.164935 
L 369.334884 -132.294333 
L 373.227907 -135.616431 
L 377.12093 -137.113411 
L 381.013953 -136.440277 
L 384.906977 -140.192629 
L 388.8 -141.245538 
L 388.8 -227.11123 
L 388.8 -227.11123 
L 384.906977 -221.494745 
L 381.013953 -222.215009 
L 377.12093 -216.623408 
L 373.227907 -211.511548 
L 369.334884 -211.931287 
L 365.44186 -209.427728 
L 361.548837 -202.088491 
L 357.655814 -208.754234 
L 353.762791 -207.01025 
L 349.869767 -211.521398 
L 345.976744 -204.333178 
L 342.083721 -196.922512 
L 338.190698 -199.870604 
L 334.297674 -192.797113 
L 330.404651 -186.701609 
L 326.511628 -191.611421 
L 322.618605 -183.500281 
L 318.725581 -178.34866 
L 314.832558 -178.762482 
L 310.939535 -173.81354 
L 307.046512 -168.715136 
L 303.153488 -170.047518 
L 299.260465 -164.396333 
L 295.367442 -163.100533 
L 291.474419 -160.104172 
L 287.581395 -157.856318 
L 283.688372 -154.622566 
L 279.795349 -150.963598 
L 275.902326 -149.229125 
L 272.009302 -149.186908 
L 268.116279 -145.216031 
L 264.223256 -143.933834 
L 260.330233 -141.488429 
L 256.437209 -139.706791 
L 252.544186 -137.661729 
L 248.651163 -135.804008 
L 244.75814 -133.901399 
L 240.865116 -132.062949 
L 236.972093 -130.214548 
L 233.07907 -128.39448 
L 229.186047 -126.571752 
L 225.293023 -124.776907 
L 221.4 -122.996103 
L 217.506977 -121.245661 
L 213.613953 -119.50996 
L 209.72093 -117.836311 
L 205.827907 -116.187558 
L 201.934884 -114.547855 
L 198.04186 -112.888283 
L 194.148837 -111.281702 
L 190.255814 -109.712312 
L 186.362791 -108.12942 
L 182.469767 -106.499375 
L 178.576744 -104.792334 
L 174.683721 -103.154006 
L 170.790698 -101.591017 
L 166.897674 -100.200234 
L 163.004651 -98.893626 
L 159.111628 -97.600666 
L 155.218605 -96.300122 
L 151.325581 -94.987879 
L 147.432558 -93.665696 
L 143.539535 -92.335151 
L 139.646512 -90.994863 
L 135.753488 -89.642482 
L 131.860465 -88.267426 
L 127.967442 -86.914634 
L 124.074419 -85.582674 
L 120.181395 -84.269366 
L 116.288372 -82.972287 
L 112.395349 -81.687323 
L 108.502326 -80.399553 
L 104.609302 -79.108611 
L 100.716279 -77.812946 
L 96.823256 -76.511855 
L 92.930233 -75.204458 
L 89.037209 -73.8982 
L 85.144186 -72.593931 
L 81.251163 -71.292017 
L 77.35814 -69.992143 
L 73.465116 -68.694292 
L 69.572093 -67.404054 
L 65.67907 -66.122606 
L 61.786047 -64.853544 
L 57.893023 -63.610054 
L 54 -62.428385 
z
" id="m2bc07298a5" style="stroke:#ff0000;stroke-opacity:0.1;"/>
    </defs>
    <g clip-path="url(#pfd11e45930)">
     <use style="fill:#ff0000;fill-opacity:0.1;stroke:#ff0000;stroke-opacity:0.1;" x="0" xlink:href="#m2bc07298a5" y="288"/>
    </g>
   </g>
   <g id="PolyCollection_2">
    <defs>
     <path d="M 54 -62.428385 
L 54 -45.883636 
L 57.893023 -46.892796 
L 61.786047 -47.890431 
L 65.67907 -48.872325 
L 69.572093 -49.839377 
L 73.465116 -50.792502 
L 77.35814 -51.73314 
L 81.251163 -52.665252 
L 85.144186 -53.593599 
L 89.037209 -54.521079 
L 92.930233 -55.448356 
L 96.823256 -56.375121 
L 100.716279 -57.302257 
L 104.609302 -58.231687 
L 108.502326 -59.164678 
L 112.395349 -60.103518 
L 116.288372 -61.049261 
L 120.181395 -62.001467 
L 124.074419 -62.962481 
L 127.967442 -63.934151 
L 131.860465 -64.919226 
L 135.753488 -65.920795 
L 139.646512 -66.927531 
L 143.539535 -67.940736 
L 147.432558 -68.958229 
L 151.325581 -69.981132 
L 155.218605 -71.007946 
L 159.111628 -72.035836 
L 163.004651 -73.057781 
L 166.897674 -74.061023 
L 170.790698 -75.055328 
L 174.683721 -76.048028 
L 178.576744 -77.017612 
L 182.469767 -77.978547 
L 186.362791 -78.999895 
L 190.255814 -80.002766 
L 194.148837 -81.022795 
L 198.04186 -82.028471 
L 201.934884 -83.046353 
L 205.827907 -84.093312 
L 209.72093 -85.193995 
L 213.613953 -86.271151 
L 217.506977 -87.361607 
L 221.4 -88.437236 
L 225.293023 -89.531416 
L 229.186047 -90.586771 
L 233.07907 -91.674459 
L 236.972093 -92.680164 
L 240.865116 -93.852152 
L 244.75814 -94.870958 
L 248.651163 -96.391341 
L 252.544186 -97.186089 
L 256.437209 -99.091369 
L 260.330233 -100.467884 
L 264.223256 -101.684828 
L 268.116279 -102.365997 
L 272.009302 -104.521426 
L 275.902326 -105.926612 
L 279.795349 -106.988808 
L 283.688372 -108.362337 
L 287.581395 -108.710568 
L 291.474419 -111.420672 
L 295.367442 -112.269403 
L 299.260465 -113.15173 
L 303.153488 -115.48084 
L 307.046512 -116.807948 
L 310.939535 -116.654158 
L 314.832558 -119.664809 
L 318.725581 -120.78216 
L 322.618605 -119.946536 
L 326.511628 -124.5526 
L 330.404651 -125.036702 
L 334.297674 -123.963417 
L 338.190698 -128.926987 
L 342.083721 -130.807462 
L 345.976744 -133.003395 
L 349.869767 -133.948642 
L 353.762791 -133.996957 
L 357.655814 -136.916829 
L 361.548837 -138.362125 
L 365.44186 -138.786823 
L 369.334884 -142.254055 
L 373.227907 -143.300112 
L 377.12093 -142.16456 
L 381.013953 -147.623694 
L 384.906977 -150.722443 
L 388.8 -151.363231 
L 388.8 -243.556364 
L 388.8 -243.556364 
L 384.906977 -241.057336 
L 381.013953 -239.6778 
L 377.12093 -240.782123 
L 373.227907 -231.09625 
L 369.334884 -225.192606 
L 365.44186 -230.056955 
L 361.548837 -221.166833 
L 357.655814 -214.123929 
L 353.762791 -215.365746 
L 349.869767 -210.014827 
L 345.976744 -209.443416 
L 342.083721 -208.381649 
L 338.190698 -204.84177 
L 334.297674 -210.256455 
L 330.404651 -199.826178 
L 326.511628 -193.713926 
L 322.618605 -198.577284 
L 318.725581 -189.265372 
L 314.832558 -185.28114 
L 310.939535 -185.616952 
L 307.046512 -177.944462 
L 303.153488 -174.977053 
L 299.260465 -174.70654 
L 295.367442 -170.772189 
L 291.474419 -166.071063 
L 287.581395 -167.267586 
L 283.688372 -161.723127 
L 279.795349 -159.055962 
L 275.902326 -155.485813 
L 272.009302 -153.471552 
L 268.116279 -153.523596 
L 264.223256 -149.492155 
L 260.330233 -146.759895 
L 256.437209 -144.605615 
L 252.544186 -144.160857 
L 248.651163 -140.866067 
L 244.75814 -139.5348 
L 240.865116 -137.060115 
L 236.972093 -135.226647 
L 233.07907 -133.04541 
L 229.186047 -131.087048 
L 225.293023 -129.009258 
L 221.4 -127.031376 
L 217.506977 -125.01033 
L 213.613953 -123.050492 
L 209.72093 -121.073444 
L 205.827907 -119.133554 
L 201.934884 -117.19142 
L 198.04186 -115.280685 
L 194.148837 -113.359796 
L 190.255814 -111.558109 
L 186.362791 -109.727661 
L 182.469767 -107.974019 
L 178.576744 -105.992835 
L 174.683721 -104.014311 
L 170.790698 -102.172593 
L 166.897674 -100.473362 
L 163.004651 -98.884982 
L 159.111628 -97.451823 
L 155.218605 -96.082335 
L 151.325581 -94.70605 
L 147.432558 -93.31525 
L 143.539535 -91.918804 
L 139.646512 -90.522487 
L 135.753488 -89.132335 
L 131.860465 -87.749762 
L 127.967442 -86.387074 
L 124.074419 -85.042425 
L 120.181395 -83.713739 
L 116.288372 -82.399304 
L 112.395349 -81.096517 
L 108.502326 -79.805592 
L 104.609302 -78.525789 
L 100.716279 -77.255274 
L 96.823256 -75.993194 
L 92.930233 -74.738338 
L 89.037209 -73.490971 
L 85.144186 -72.251267 
L 81.251163 -71.018923 
L 77.35814 -69.792225 
L 73.465116 -68.567741 
L 69.572093 -67.341827 
L 65.67907 -66.113866 
L 61.786047 -64.88394 
L 57.893023 -63.652215 
L 54 -62.428385 
z
" id="mf395219b42" style="stroke:#0000ff;stroke-opacity:0.1;"/>
    </defs>
    <g clip-path="url(#pfd11e45930)">
     <use style="fill:#0000ff;fill-opacity:0.1;stroke:#0000ff;stroke-opacity:0.1;" x="0" xlink:href="#mf395219b42" y="288"/>
    </g>
   </g>
   <g id="matplotlib.axis_1">
    <g id="xtick_1">
     <g id="line2d_1">
      <defs>
       <path d="M 0 0 
L 0 3.5 
" id="m2ea9ab14e8" style="stroke:#000000;stroke-width:0.8;"/>
      </defs>
      <g>
       <use style="stroke:#000000;stroke-width:0.8;" x="77.35814" xlink:href="#m2ea9ab14e8" y="252"/>
      </g>
     </g>
     <g id="text_1">
      <!-- 2020 -->
      <g transform="translate(64.63314 266.598437)scale(0.1 -0.1)">
       <defs>
        <path d="M 19.1875 8.296875 
L 53.609375 8.296875 
L 53.609375 0 
L 7.328125 0 
L 7.328125 8.296875 
Q 12.9375 14.109375 22.625 23.890625 
Q 32.328125 33.6875 34.8125 36.53125 
Q 39.546875 41.84375 41.421875 45.53125 
Q 43.3125 49.21875 43.3125 52.78125 
Q 43.3125 58.59375 39.234375 62.25 
Q 35.15625 65.921875 28.609375 65.921875 
Q 23.96875 65.921875 18.8125 64.3125 
Q 13.671875 62.703125 7.8125 59.421875 
L 7.8125 69.390625 
Q 13.765625 71.78125 18.9375 73 
Q 24.125 74.21875 28.421875 74.21875 
Q 39.75 74.21875 46.484375 68.546875 
Q 53.21875 62.890625 53.21875 53.421875 
Q 53.21875 48.921875 51.53125 44.890625 
Q 49.859375 40.875 45.40625 35.40625 
Q 44.1875 33.984375 37.640625 27.21875 
Q 31.109375 20.453125 19.1875 8.296875 
z
" id="DejaVuSans-50"/>
        <path d="M 31.78125 66.40625 
Q 24.171875 66.40625 20.328125 58.90625 
Q 16.5 51.421875 16.5 36.375 
Q 16.5 21.390625 20.328125 13.890625 
Q 24.171875 6.390625 31.78125 6.390625 
Q 39.453125 6.390625 43.28125 13.890625 
Q 47.125 21.390625 47.125 36.375 
Q 47.125 51.421875 43.28125 58.90625 
Q 39.453125 66.40625 31.78125 66.40625 
z
M 31.78125 74.21875 
Q 44.046875 74.21875 50.515625 64.515625 
Q 56.984375 54.828125 56.984375 36.375 
Q 56.984375 17.96875 50.515625 8.265625 
Q 44.046875 -1.421875 31.78125 -1.421875 
Q 19.53125 -1.421875 13.0625 8.265625 
Q 6.59375 17.96875 6.59375 36.375 
Q 6.59375 54.828125 13.0625 64.515625 
Q 19.53125 74.21875 31.78125 74.21875 
z
" id="DejaVuSans-48"/>
       </defs>
       <use xlink:href="#DejaVuSans-50"/>
       <use x="63.623047" xlink:href="#DejaVuSans-48"/>
       <use x="127.246094" xlink:href="#DejaVuSans-50"/>
       <use x="190.869141" xlink:href="#DejaVuSans-48"/>
      </g>
     </g>
    </g>
    <g id="xtick_2">
     <g id="line2d_2">
      <g>
       <use style="stroke:#000000;stroke-width:0.8;" x="116.288372" xlink:href="#m2ea9ab14e8" y="252"/>
      </g>
     </g>
     <g id="text_2">
      <!-- 2030 -->
      <g transform="translate(103.563372 266.598437)scale(0.1 -0.1)">
       <defs>
        <path d="M 40.578125 39.3125 
Q 47.65625 37.796875 51.625 33 
Q 55.609375 28.21875 55.609375 21.1875 
Q 55.609375 10.40625 48.1875 4.484375 
Q 40.765625 -1.421875 27.09375 -1.421875 
Q 22.515625 -1.421875 17.65625 -0.515625 
Q 12.796875 0.390625 7.625 2.203125 
L 7.625 11.71875 
Q 11.71875 9.328125 16.59375 8.109375 
Q 21.484375 6.890625 26.8125 6.890625 
Q 36.078125 6.890625 40.9375 10.546875 
Q 45.796875 14.203125 45.796875 21.1875 
Q 45.796875 27.640625 41.28125 31.265625 
Q 36.765625 34.90625 28.71875 34.90625 
L 20.21875 34.90625 
L 20.21875 43.015625 
L 29.109375 43.015625 
Q 36.375 43.015625 40.234375 45.921875 
Q 44.09375 48.828125 44.09375 54.296875 
Q 44.09375 59.90625 40.109375 62.90625 
Q 36.140625 65.921875 28.71875 65.921875 
Q 24.65625 65.921875 20.015625 65.03125 
Q 15.375 64.15625 9.8125 62.3125 
L 9.8125 71.09375 
Q 15.4375 72.65625 20.34375 73.4375 
Q 25.25 74.21875 29.59375 74.21875 
Q 40.828125 74.21875 47.359375 69.109375 
Q 53.90625 64.015625 53.90625 55.328125 
Q 53.90625 49.265625 50.4375 45.09375 
Q 46.96875 40.921875 40.578125 39.3125 
z
" id="DejaVuSans-51"/>
       </defs>
       <use xlink:href="#DejaVuSans-50"/>
       <use x="63.623047" xlink:href="#DejaVuSans-48"/>
       <use x="127.246094" xlink:href="#DejaVuSans-51"/>
       <use x="190.869141" xlink:href="#DejaVuSans-48"/>
      </g>
     </g>
    </g>
    <g id="xtick_3">
     <g id="line2d_3">
      <g>
       <use style="stroke:#000000;stroke-width:0.8;" x="155.218605" xlink:href="#m2ea9ab14e8" y="252"/>
      </g>
     </g>
     <g id="text_3">
      <!-- 2040 -->
      <g transform="translate(142.493605 266.598437)scale(0.1 -0.1)">
       <defs>
        <path d="M 37.796875 64.3125 
L 12.890625 25.390625 
L 37.796875 25.390625 
z
M 35.203125 72.90625 
L 47.609375 72.90625 
L 47.609375 25.390625 
L 58.015625 25.390625 
L 58.015625 17.1875 
L 47.609375 17.1875 
L 47.609375 0 
L 37.796875 0 
L 37.796875 17.1875 
L 4.890625 17.1875 
L 4.890625 26.703125 
z
" id="DejaVuSans-52"/>
       </defs>
       <use xlink:href="#DejaVuSans-50"/>
       <use x="63.623047" xlink:href="#DejaVuSans-48"/>
       <use x="127.246094" xlink:href="#DejaVuSans-52"/>
       <use x="190.869141" xlink:href="#DejaVuSans-48"/>
      </g>
     </g>
    </g>
    <g id="xtick_4">
     <g id="line2d_4">
      <g>
       <use style="stroke:#000000;stroke-width:0.8;" x="194.148837" xlink:href="#m2ea9ab14e8" y="252"/>
      </g>
     </g>
     <g id="text_4">
      <!-- 2050 -->
      <g transform="translate(181.423837 266.598437)scale(0.1 -0.1)">
       <defs>
        <path d="M 10.796875 72.90625 
L 49.515625 72.90625 
L 49.515625 64.59375 
L 19.828125 64.59375 
L 19.828125 46.734375 
Q 21.96875 47.46875 24.109375 47.828125 
Q 26.265625 48.1875 28.421875 48.1875 
Q 40.625 48.1875 47.75 41.5 
Q 54.890625 34.8125 54.890625 23.390625 
Q 54.890625 11.625 47.5625 5.09375 
Q 40.234375 -1.421875 26.90625 -1.421875 
Q 22.3125 -1.421875 17.546875 -0.640625 
Q 12.796875 0.140625 7.71875 1.703125 
L 7.71875 11.625 
Q 12.109375 9.234375 16.796875 8.0625 
Q 21.484375 6.890625 26.703125 6.890625 
Q 35.15625 6.890625 40.078125 11.328125 
Q 45.015625 15.765625 45.015625 23.390625 
Q 45.015625 31 40.078125 35.4375 
Q 35.15625 39.890625 26.703125 39.890625 
Q 22.75 39.890625 18.8125 39.015625 
Q 14.890625 38.140625 10.796875 36.28125 
z
" id="DejaVuSans-53"/>
       </defs>
       <use xlink:href="#DejaVuSans-50"/>
       <use x="63.623047" xlink:href="#DejaVuSans-48"/>
       <use x="127.246094" xlink:href="#DejaVuSans-53"/>
       <use x="190.869141" xlink:href="#DejaVuSans-48"/>
      </g>
     </g>
    </g>
    <g id="xtick_5">
     <g id="line2d_5">
      <g>
       <use style="stroke:#000000;stroke-width:0.8;" x="233.07907" xlink:href="#m2ea9ab14e8" y="252"/>
      </g>
     </g>
     <g id="text_5">
      <!-- 2060 -->
      <g transform="translate(220.35407 266.598437)scale(0.1 -0.1)">
       <defs>
        <path d="M 33.015625 40.375 
Q 26.375 40.375 22.484375 35.828125 
Q 18.609375 31.296875 18.609375 23.390625 
Q 18.609375 15.53125 22.484375 10.953125 
Q 26.375 6.390625 33.015625 6.390625 
Q 39.65625 6.390625 43.53125 10.953125 
Q 47.40625 15.53125 47.40625 23.390625 
Q 47.40625 31.296875 43.53125 35.828125 
Q 39.65625 40.375 33.015625 40.375 
z
M 52.59375 71.296875 
L 52.59375 62.3125 
Q 48.875 64.0625 45.09375 64.984375 
Q 41.3125 65.921875 37.59375 65.921875 
Q 27.828125 65.921875 22.671875 59.328125 
Q 17.53125 52.734375 16.796875 39.40625 
Q 19.671875 43.65625 24.015625 45.921875 
Q 28.375 48.1875 33.59375 48.1875 
Q 44.578125 48.1875 50.953125 41.515625 
Q 57.328125 34.859375 57.328125 23.390625 
Q 57.328125 12.15625 50.6875 5.359375 
Q 44.046875 -1.421875 33.015625 -1.421875 
Q 20.359375 -1.421875 13.671875 8.265625 
Q 6.984375 17.96875 6.984375 36.375 
Q 6.984375 53.65625 15.1875 63.9375 
Q 23.390625 74.21875 37.203125 74.21875 
Q 40.921875 74.21875 44.703125 73.484375 
Q 48.484375 72.75 52.59375 71.296875 
z
" id="DejaVuSans-54"/>
       </defs>
       <use xlink:href="#DejaVuSans-50"/>
       <use x="63.623047" xlink:href="#DejaVuSans-48"/>
       <use x="127.246094" xlink:href="#DejaVuSans-54"/>
       <use x="190.869141" xlink:href="#DejaVuSans-48"/>
      </g>
     </g>
    </g>
    <g id="xtick_6">
     <g id="line2d_6">
      <g>
       <use style="stroke:#000000;stroke-width:0.8;" x="272.009302" xlink:href="#m2ea9ab14e8" y="252"/>
      </g>
     </g>
     <g id="text_6">
      <!-- 2070 -->
      <g transform="translate(259.284302 266.598437)scale(0.1 -0.1)">
       <defs>
        <path d="M 8.203125 72.90625 
L 55.078125 72.90625 
L 55.078125 68.703125 
L 28.609375 0 
L 18.3125 0 
L 43.21875 64.59375 
L 8.203125 64.59375 
z
" id="DejaVuSans-55"/>
       </defs>
       <use xlink:href="#DejaVuSans-50"/>
       <use x="63.623047" xlink:href="#DejaVuSans-48"/>
       <use x="127.246094" xlink:href="#DejaVuSans-55"/>
       <use x="190.869141" xlink:href="#DejaVuSans-48"/>
      </g>
     </g>
    </g>
    <g id="xtick_7">
     <g id="line2d_7">
      <g>
       <use style="stroke:#000000;stroke-width:0.8;" x="310.939535" xlink:href="#m2ea9ab14e8" y="252"/>
      </g>
     </g>
     <g id="text_7">
      <!-- 2080 -->
      <g transform="translate(298.214535 266.598437)scale(0.1 -0.1)">
       <defs>
        <path d="M 31.78125 34.625 
Q 24.75 34.625 20.71875 30.859375 
Q 16.703125 27.09375 16.703125 20.515625 
Q 16.703125 13.921875 20.71875 10.15625 
Q 24.75 6.390625 31.78125 6.390625 
Q 38.8125 6.390625 42.859375 10.171875 
Q 46.921875 13.96875 46.921875 20.515625 
Q 46.921875 27.09375 42.890625 30.859375 
Q 38.875 34.625 31.78125 34.625 
z
M 21.921875 38.8125 
Q 15.578125 40.375 12.03125 44.71875 
Q 8.5 49.078125 8.5 55.328125 
Q 8.5 64.0625 14.71875 69.140625 
Q 20.953125 74.21875 31.78125 74.21875 
Q 42.671875 74.21875 48.875 69.140625 
Q 55.078125 64.0625 55.078125 55.328125 
Q 55.078125 49.078125 51.53125 44.71875 
Q 48 40.375 41.703125 38.8125 
Q 48.828125 37.15625 52.796875 32.3125 
Q 56.78125 27.484375 56.78125 20.515625 
Q 56.78125 9.90625 50.3125 4.234375 
Q 43.84375 -1.421875 31.78125 -1.421875 
Q 19.734375 -1.421875 13.25 4.234375 
Q 6.78125 9.90625 6.78125 20.515625 
Q 6.78125 27.484375 10.78125 32.3125 
Q 14.796875 37.15625 21.921875 38.8125 
z
M 18.3125 54.390625 
Q 18.3125 48.734375 21.84375 45.5625 
Q 25.390625 42.390625 31.78125 42.390625 
Q 38.140625 42.390625 41.71875 45.5625 
Q 45.3125 48.734375 45.3125 54.390625 
Q 45.3125 60.0625 41.71875 63.234375 
Q 38.140625 66.40625 31.78125 66.40625 
Q 25.390625 66.40625 21.84375 63.234375 
Q 18.3125 60.0625 18.3125 54.390625 
z
" id="DejaVuSans-56"/>
       </defs>
       <use xlink:href="#DejaVuSans-50"/>
       <use x="63.623047" xlink:href="#DejaVuSans-48"/>
       <use x="127.246094" xlink:href="#DejaVuSans-56"/>
       <use x="190.869141" xlink:href="#DejaVuSans-48"/>
      </g>
     </g>
    </g>
    <g id="xtick_8">
     <g id="line2d_8">
      <g>
       <use style="stroke:#000000;stroke-width:0.8;" x="349.869767" xlink:href="#m2ea9ab14e8" y="252"/>
      </g>
     </g>
     <g id="text_8">
      <!-- 2090 -->
      <g transform="translate(337.144767 266.598437)scale(0.1 -0.1)">
       <defs>
        <path d="M 10.984375 1.515625 
L 10.984375 10.5 
Q 14.703125 8.734375 18.5 7.8125 
Q 22.3125 6.890625 25.984375 6.890625 
Q 35.75 6.890625 40.890625 13.453125 
Q 46.046875 20.015625 46.78125 33.40625 
Q 43.953125 29.203125 39.59375 26.953125 
Q 35.25 24.703125 29.984375 24.703125 
Q 19.046875 24.703125 12.671875 31.3125 
Q 6.296875 37.9375 6.296875 49.421875 
Q 6.296875 60.640625 12.9375 67.421875 
Q 19.578125 74.21875 30.609375 74.21875 
Q 43.265625 74.21875 49.921875 64.515625 
Q 56.59375 54.828125 56.59375 36.375 
Q 56.59375 19.140625 48.40625 8.859375 
Q 40.234375 -1.421875 26.421875 -1.421875 
Q 22.703125 -1.421875 18.890625 -0.6875 
Q 15.09375 0.046875 10.984375 1.515625 
z
M 30.609375 32.421875 
Q 37.25 32.421875 41.125 36.953125 
Q 45.015625 41.5 45.015625 49.421875 
Q 45.015625 57.28125 41.125 61.84375 
Q 37.25 66.40625 30.609375 66.40625 
Q 23.96875 66.40625 20.09375 61.84375 
Q 16.21875 57.28125 16.21875 49.421875 
Q 16.21875 41.5 20.09375 36.953125 
Q 23.96875 32.421875 30.609375 32.421875 
z
" id="DejaVuSans-57"/>
       </defs>
       <use xlink:href="#DejaVuSans-50"/>
       <use x="63.623047" xlink:href="#DejaVuSans-48"/>
       <use x="127.246094" xlink:href="#DejaVuSans-57"/>
       <use x="190.869141" xlink:href="#DejaVuSans-48"/>
      </g>
     </g>
    </g>
    <g id="xtick_9">
     <g id="line2d_9">
      <g>
       <use style="stroke:#000000;stroke-width:0.8;" x="388.8" xlink:href="#m2ea9ab14e8" y="252"/>
      </g>
     </g>
     <g id="text_9">
      <!-- 2100 -->
      <g transform="translate(376.075 266.598437)scale(0.1 -0.1)">
       <defs>
        <path d="M 12.40625 8.296875 
L 28.515625 8.296875 
L 28.515625 63.921875 
L 10.984375 60.40625 
L 10.984375 69.390625 
L 28.421875 72.90625 
L 38.28125 72.90625 
L 38.28125 8.296875 
L 54.390625 8.296875 
L 54.390625 0 
L 12.40625 0 
z
" id="DejaVuSans-49"/>
       </defs>
       <use xlink:href="#DejaVuSans-50"/>
       <use x="63.623047" xlink:href="#DejaVuSans-49"/>
       <use x="127.246094" xlink:href="#DejaVuSans-48"/>
       <use x="190.869141" xlink:href="#DejaVuSans-48"/>
      </g>
     </g>
    </g>
    <g id="text_10">
     <!-- year -->
     <g transform="translate(210.244531 280.276563)scale(0.1 -0.1)">
      <defs>
       <path d="M 32.171875 -5.078125 
Q 28.375 -14.84375 24.75 -17.8125 
Q 21.140625 -20.796875 15.09375 -20.796875 
L 7.90625 -20.796875 
L 7.90625 -13.28125 
L 13.1875 -13.28125 
Q 16.890625 -13.28125 18.9375 -11.515625 
Q 21 -9.765625 23.484375 -3.21875 
L 25.09375 0.875 
L 2.984375 54.6875 
L 12.5 54.6875 
L 29.59375 11.921875 
L 46.6875 54.6875 
L 56.203125 54.6875 
z
" id="DejaVuSans-121"/>
       <path d="M 56.203125 29.59375 
L 56.203125 25.203125 
L 14.890625 25.203125 
Q 15.484375 15.921875 20.484375 11.0625 
Q 25.484375 6.203125 34.421875 6.203125 
Q 39.59375 6.203125 44.453125 7.46875 
Q 49.3125 8.734375 54.109375 11.28125 
L 54.109375 2.78125 
Q 49.265625 0.734375 44.1875 -0.34375 
Q 39.109375 -1.421875 33.890625 -1.421875 
Q 20.796875 -1.421875 13.15625 6.1875 
Q 5.515625 13.8125 5.515625 26.8125 
Q 5.515625 40.234375 12.765625 48.109375 
Q 20.015625 56 32.328125 56 
Q 43.359375 56 49.78125 48.890625 
Q 56.203125 41.796875 56.203125 29.59375 
z
M 47.21875 32.234375 
Q 47.125 39.59375 43.09375 43.984375 
Q 39.0625 48.390625 32.421875 48.390625 
Q 24.90625 48.390625 20.390625 44.140625 
Q 15.875 39.890625 15.1875 32.171875 
z
" id="DejaVuSans-101"/>
       <path d="M 34.28125 27.484375 
Q 23.390625 27.484375 19.1875 25 
Q 14.984375 22.515625 14.984375 16.5 
Q 14.984375 11.71875 18.140625 8.90625 
Q 21.296875 6.109375 26.703125 6.109375 
Q 34.1875 6.109375 38.703125 11.40625 
Q 43.21875 16.703125 43.21875 25.484375 
L 43.21875 27.484375 
z
M 52.203125 31.203125 
L 52.203125 0 
L 43.21875 0 
L 43.21875 8.296875 
Q 40.140625 3.328125 35.546875 0.953125 
Q 30.953125 -1.421875 24.3125 -1.421875 
Q 15.921875 -1.421875 10.953125 3.296875 
Q 6 8.015625 6 15.921875 
Q 6 25.140625 12.171875 29.828125 
Q 18.359375 34.515625 30.609375 34.515625 
L 43.21875 34.515625 
L 43.21875 35.40625 
Q 43.21875 41.609375 39.140625 45 
Q 35.0625 48.390625 27.6875 48.390625 
Q 23 48.390625 18.546875 47.265625 
Q 14.109375 46.140625 10.015625 43.890625 
L 10.015625 52.203125 
Q 14.9375 54.109375 19.578125 55.046875 
Q 24.21875 56 28.609375 56 
Q 40.484375 56 46.34375 49.84375 
Q 52.203125 43.703125 52.203125 31.203125 
z
" id="DejaVuSans-97"/>
       <path d="M 41.109375 46.296875 
Q 39.59375 47.171875 37.8125 47.578125 
Q 36.03125 48 33.890625 48 
Q 26.265625 48 22.1875 43.046875 
Q 18.109375 38.09375 18.109375 28.8125 
L 18.109375 0 
L 9.078125 0 
L 9.078125 54.6875 
L 18.109375 54.6875 
L 18.109375 46.1875 
Q 20.953125 51.171875 25.484375 53.578125 
Q 30.03125 56 36.53125 56 
Q 37.453125 56 38.578125 55.875 
Q 39.703125 55.765625 41.0625 55.515625 
z
" id="DejaVuSans-114"/>
      </defs>
      <use xlink:href="#DejaVuSans-121"/>
      <use x="59.179688" xlink:href="#DejaVuSans-101"/>
      <use x="120.703125" xlink:href="#DejaVuSans-97"/>
      <use x="181.982422" xlink:href="#DejaVuSans-114"/>
     </g>
    </g>
   </g>
   <g id="matplotlib.axis_2">
    <g id="ytick_1">
     <g id="line2d_10">
      <defs>
       <path d="M 0 0 
L -3.5 0 
" id="mf0ec916191" style="stroke:#000000;stroke-width:0.8;"/>
      </defs>
      <g>
       <use style="stroke:#000000;stroke-width:0.8;" x="54" xlink:href="#mf0ec916191" y="249.068172"/>
      </g>
     </g>
     <g id="text_11">
      <!-- 100 -->
      <g transform="translate(27.9125 252.867391)scale(0.1 -0.1)">
       <use xlink:href="#DejaVuSans-49"/>
       <use x="63.623047" xlink:href="#DejaVuSans-48"/>
       <use x="127.246094" xlink:href="#DejaVuSans-48"/>
      </g>
     </g>
    </g>
    <g id="ytick_2">
     <g id="line2d_11">
      <g>
       <use style="stroke:#000000;stroke-width:0.8;" x="54" xlink:href="#mf0ec916191" y="212.138699"/>
      </g>
     </g>
     <g id="text_12">
      <!-- 200 -->
      <g transform="translate(27.9125 215.937918)scale(0.1 -0.1)">
       <use xlink:href="#DejaVuSans-50"/>
       <use x="63.623047" xlink:href="#DejaVuSans-48"/>
       <use x="127.246094" xlink:href="#DejaVuSans-48"/>
      </g>
     </g>
    </g>
    <g id="ytick_3">
     <g id="line2d_12">
      <g>
       <use style="stroke:#000000;stroke-width:0.8;" x="54" xlink:href="#mf0ec916191" y="175.209225"/>
      </g>
     </g>
     <g id="text_13">
      <!-- 300 -->
      <g transform="translate(27.9125 179.008444)scale(0.1 -0.1)">
       <use xlink:href="#DejaVuSans-51"/>
       <use x="63.623047" xlink:href="#DejaVuSans-48"/>
       <use x="127.246094" xlink:href="#DejaVuSans-48"/>
      </g>
     </g>
    </g>
    <g id="ytick_4">
     <g id="line2d_13">
      <g>
       <use style="stroke:#000000;stroke-width:0.8;" x="54" xlink:href="#mf0ec916191" y="138.279752"/>
      </g>
     </g>
     <g id="text_14">
      <!-- 400 -->
      <g transform="translate(27.9125 142.078971)scale(0.1 -0.1)">
       <use xlink:href="#DejaVuSans-52"/>
       <use x="63.623047" xlink:href="#DejaVuSans-48"/>
       <use x="127.246094" xlink:href="#DejaVuSans-48"/>
      </g>
     </g>
    </g>
    <g id="ytick_5">
     <g id="line2d_14">
      <g>
       <use style="stroke:#000000;stroke-width:0.8;" x="54" xlink:href="#mf0ec916191" y="101.350278"/>
      </g>
     </g>
     <g id="text_15">
      <!-- 500 -->
      <g transform="translate(27.9125 105.149497)scale(0.1 -0.1)">
       <use xlink:href="#DejaVuSans-53"/>
       <use x="63.623047" xlink:href="#DejaVuSans-48"/>
       <use x="127.246094" xlink:href="#DejaVuSans-48"/>
      </g>
     </g>
    </g>
    <g id="ytick_6">
     <g id="line2d_15">
      <g>
       <use style="stroke:#000000;stroke-width:0.8;" x="54" xlink:href="#mf0ec916191" y="64.420805"/>
      </g>
     </g>
     <g id="text_16">
      <!-- 600 -->
      <g transform="translate(27.9125 68.220023)scale(0.1 -0.1)">
       <use xlink:href="#DejaVuSans-54"/>
       <use x="63.623047" xlink:href="#DejaVuSans-48"/>
       <use x="127.246094" xlink:href="#DejaVuSans-48"/>
      </g>
     </g>
    </g>
    <g id="text_17">
     <!-- D_CO2/ppm -->
     <g transform="translate(21.554687 173.141719)rotate(-90)scale(0.1 -0.1)">
      <defs>
       <path d="M 19.671875 64.796875 
L 19.671875 8.109375 
L 31.59375 8.109375 
Q 46.6875 8.109375 53.6875 14.9375 
Q 60.6875 21.78125 60.6875 36.53125 
Q 60.6875 51.171875 53.6875 57.984375 
Q 46.6875 64.796875 31.59375 64.796875 
z
M 9.8125 72.90625 
L 30.078125 72.90625 
Q 51.265625 72.90625 61.171875 64.09375 
Q 71.09375 55.28125 71.09375 36.53125 
Q 71.09375 17.671875 61.125 8.828125 
Q 51.171875 0 30.078125 0 
L 9.8125 0 
z
" id="DejaVuSans-68"/>
       <path d="M 50.984375 -16.609375 
L 50.984375 -23.578125 
L -0.984375 -23.578125 
L -0.984375 -16.609375 
z
" id="DejaVuSans-95"/>
       <path d="M 64.40625 67.28125 
L 64.40625 56.890625 
Q 59.421875 61.53125 53.78125 63.8125 
Q 48.140625 66.109375 41.796875 66.109375 
Q 29.296875 66.109375 22.65625 58.46875 
Q 16.015625 50.828125 16.015625 36.375 
Q 16.015625 21.96875 22.65625 14.328125 
Q 29.296875 6.6875 41.796875 6.6875 
Q 48.140625 6.6875 53.78125 8.984375 
Q 59.421875 11.28125 64.40625 15.921875 
L 64.40625 5.609375 
Q 59.234375 2.09375 53.4375 0.328125 
Q 47.65625 -1.421875 41.21875 -1.421875 
Q 24.65625 -1.421875 15.125 8.703125 
Q 5.609375 18.84375 5.609375 36.375 
Q 5.609375 53.953125 15.125 64.078125 
Q 24.65625 74.21875 41.21875 74.21875 
Q 47.75 74.21875 53.53125 72.484375 
Q 59.328125 70.75 64.40625 67.28125 
z
" id="DejaVuSans-67"/>
       <path d="M 39.40625 66.21875 
Q 28.65625 66.21875 22.328125 58.203125 
Q 16.015625 50.203125 16.015625 36.375 
Q 16.015625 22.609375 22.328125 14.59375 
Q 28.65625 6.59375 39.40625 6.59375 
Q 50.140625 6.59375 56.421875 14.59375 
Q 62.703125 22.609375 62.703125 36.375 
Q 62.703125 50.203125 56.421875 58.203125 
Q 50.140625 66.21875 39.40625 66.21875 
z
M 39.40625 74.21875 
Q 54.734375 74.21875 63.90625 63.9375 
Q 73.09375 53.65625 73.09375 36.375 
Q 73.09375 19.140625 63.90625 8.859375 
Q 54.734375 -1.421875 39.40625 -1.421875 
Q 24.03125 -1.421875 14.8125 8.828125 
Q 5.609375 19.09375 5.609375 36.375 
Q 5.609375 53.65625 14.8125 63.9375 
Q 24.03125 74.21875 39.40625 74.21875 
z
" id="DejaVuSans-79"/>
       <path d="M 25.390625 72.90625 
L 33.6875 72.90625 
L 8.296875 -9.28125 
L 0 -9.28125 
z
" id="DejaVuSans-47"/>
       <path d="M 18.109375 8.203125 
L 18.109375 -20.796875 
L 9.078125 -20.796875 
L 9.078125 54.6875 
L 18.109375 54.6875 
L 18.109375 46.390625 
Q 20.953125 51.265625 25.265625 53.625 
Q 29.59375 56 35.59375 56 
Q 45.5625 56 51.78125 48.09375 
Q 58.015625 40.1875 58.015625 27.296875 
Q 58.015625 14.40625 51.78125 6.484375 
Q 45.5625 -1.421875 35.59375 -1.421875 
Q 29.59375 -1.421875 25.265625 0.953125 
Q 20.953125 3.328125 18.109375 8.203125 
z
M 48.6875 27.296875 
Q 48.6875 37.203125 44.609375 42.84375 
Q 40.53125 48.484375 33.40625 48.484375 
Q 26.265625 48.484375 22.1875 42.84375 
Q 18.109375 37.203125 18.109375 27.296875 
Q 18.109375 17.390625 22.1875 11.75 
Q 26.265625 6.109375 33.40625 6.109375 
Q 40.53125 6.109375 44.609375 11.75 
Q 48.6875 17.390625 48.6875 27.296875 
z
" id="DejaVuSans-112"/>
       <path d="M 52 44.1875 
Q 55.375 50.25 60.0625 53.125 
Q 64.75 56 71.09375 56 
Q 79.640625 56 84.28125 50.015625 
Q 88.921875 44.046875 88.921875 33.015625 
L 88.921875 0 
L 79.890625 0 
L 79.890625 32.71875 
Q 79.890625 40.578125 77.09375 44.375 
Q 74.3125 48.1875 68.609375 48.1875 
Q 61.625 48.1875 57.5625 43.546875 
Q 53.515625 38.921875 53.515625 30.90625 
L 53.515625 0 
L 44.484375 0 
L 44.484375 32.71875 
Q 44.484375 40.625 41.703125 44.40625 
Q 38.921875 48.1875 33.109375 48.1875 
Q 26.21875 48.1875 22.15625 43.53125 
Q 18.109375 38.875 18.109375 30.90625 
L 18.109375 0 
L 9.078125 0 
L 9.078125 54.6875 
L 18.109375 54.6875 
L 18.109375 46.1875 
Q 21.1875 51.21875 25.484375 53.609375 
Q 29.78125 56 35.6875 56 
Q 41.65625 56 45.828125 52.96875 
Q 50 49.953125 52 44.1875 
z
" id="DejaVuSans-109"/>
      </defs>
      <use xlink:href="#DejaVuSans-68"/>
      <use x="77.001953" xlink:href="#DejaVuSans-95"/>
      <use x="127.001953" xlink:href="#DejaVuSans-67"/>
      <use x="196.826172" xlink:href="#DejaVuSans-79"/>
      <use x="275.537109" xlink:href="#DejaVuSans-50"/>
      <use x="339.160156" xlink:href="#DejaVuSans-47"/>
      <use x="372.851562" xlink:href="#DejaVuSans-112"/>
      <use x="436.328125" xlink:href="#DejaVuSans-112"/>
      <use x="499.804688" xlink:href="#DejaVuSans-109"/>
     </g>
    </g>
   </g>
   <g id="line2d_16">
    <path clip-path="url(#pfd11e45930)" d="M 54 233.843989 
L 57.893023 232.76934 
L 61.786047 231.642511 
L 65.67907 230.498721 
L 69.572093 229.350236 
L 73.465116 228.200214 
L 77.35814 227.049357 
L 81.251163 225.902197 
L 85.144186 224.758181 
L 89.037209 223.6162 
L 92.930233 222.476207 
L 96.823256 221.338903 
L 100.716279 220.210896 
L 104.609302 219.090885 
L 108.502326 217.977862 
L 112.395349 216.869905 
L 116.288372 215.766354 
L 120.181395 214.652513 
L 124.074419 213.524332 
L 127.967442 212.379414 
L 131.860465 211.215423 
L 135.753488 210.030711 
L 139.646512 208.871114 
L 143.539535 207.724101 
L 147.432558 206.58736 
L 151.325581 205.459325 
L 155.218605 204.341512 
L 159.111628 203.236169 
L 163.004651 202.141645 
L 166.897674 201.049404 
L 170.790698 199.931963 
L 174.683721 198.752582 
L 178.576744 197.524492 
L 182.469767 196.267281 
L 186.362791 195.045237 
L 190.255814 193.843074 
L 194.148837 192.647278 
L 198.04186 191.429309 
L 201.934884 190.183931 
L 205.827907 188.951863 
L 209.72093 187.714002 
L 213.613953 186.438871 
L 217.506977 185.094047 
L 221.4 183.744647 
L 225.293023 182.372279 
L 229.186047 180.991289 
L 233.07907 179.594544 
L 236.972093 178.205226 
L 240.865116 176.810442 
L 244.75814 175.423918 
L 248.651163 174.009998 
L 252.544186 172.561298 
L 256.437209 170.987073 
L 260.330233 169.470224 
L 264.223256 167.738952 
L 268.116279 166.321121 
L 272.009302 164.079206 
L 275.902326 162.973993 
L 279.795349 161.417609 
L 283.688372 159.201536 
L 287.581395 157.135794 
L 291.474419 155.346447 
L 295.367442 153.299289 
L 299.260465 151.781967 
L 303.153488 148.945673 
L 307.046512 148.167143 
L 310.939535 145.283977 
L 314.832558 142.895733 
L 318.725581 141.403712 
L 322.618605 138.687105 
L 326.511628 135.066838 
L 330.404651 135.491851 
L 334.297674 132.425245 
L 338.190698 128.999497 
L 342.083721 128.222376 
L 345.976744 124.221465 
L 349.869767 121.967841 
L 353.762791 121.600946 
L 357.655814 119.437189 
L 361.548837 121.650884 
L 365.44186 117.703674 
L 369.334884 115.88719 
L 373.227907 114.436011 
L 377.12093 111.131585 
L 381.013953 108.672351 
L 384.906977 107.156313 
L 388.8 103.821616 
" style="fill:none;stroke:#ff0000;stroke-dasharray:5.55,2.4;stroke-dashoffset:0;stroke-width:1.5;"/>
   </g>
   <g id="line2d_17">
    <path clip-path="url(#pfd11e45930)" d="M 54 233.843989 
L 57.893023 232.727495 
L 61.786047 231.612815 
L 65.67907 230.506903 
L 69.572093 229.409398 
L 73.465116 228.319878 
L 77.35814 227.237318 
L 81.251163 226.157913 
L 85.144186 225.077567 
L 89.037209 223.993975 
L 92.930233 222.906653 
L 96.823256 221.815843 
L 100.716279 220.721235 
L 104.609302 219.621262 
L 108.502326 218.514865 
L 112.395349 217.399982 
L 116.288372 216.275717 
L 120.181395 215.142397 
L 124.074419 213.997547 
L 127.967442 212.839387 
L 131.860465 211.665506 
L 135.753488 210.473435 
L 139.646512 209.274991 
L 143.539535 208.07023 
L 147.432558 206.86326 
L 151.325581 205.656409 
L 155.218605 204.45486 
L 159.111628 203.256168 
L 163.004651 202.028619 
L 166.897674 200.732808 
L 170.790698 199.386039 
L 174.683721 197.968834 
L 178.576744 196.494776 
L 182.469767 195.023717 
L 186.362791 193.636225 
L 190.255814 192.21956 
L 194.148837 190.808705 
L 198.04186 189.345422 
L 201.934884 187.881113 
L 205.827907 186.386567 
L 209.72093 184.86628 
L 213.613953 183.339175 
L 217.506977 181.814031 
L 221.4 180.265694 
L 225.293023 178.729663 
L 229.186047 177.163091 
L 233.07907 175.640065 
L 236.972093 174.046592 
L 240.865116 172.543864 
L 244.75814 170.797118 
L 248.651163 169.371296 
L 252.544186 167.326527 
L 256.437209 166.151508 
L 260.330233 164.38611 
L 264.223256 162.411508 
L 268.116279 160.055203 
L 272.009302 159.003511 
L 275.902326 157.293787 
L 279.795349 154.977615 
L 283.688372 152.957268 
L 287.581395 150.010923 
L 291.474419 149.254132 
L 295.367442 146.479204 
L 299.260465 144.070865 
L 303.153488 142.771053 
L 307.046512 140.623795 
L 310.939535 136.864445 
L 314.832558 135.527025 
L 318.725581 132.976234 
L 322.618605 128.73809 
L 326.511628 128.866737 
L 330.404651 125.568554 
L 334.297674 120.89007 
L 338.190698 121.115616 
L 342.083721 118.405445 
L 345.976744 116.776594 
L 349.869767 116.018271 
L 353.762791 113.318649 
L 357.655814 112.479621 
L 361.548837 108.235527 
L 365.44186 103.578105 
L 369.334884 104.276675 
L 373.227907 100.801813 
L 377.12093 96.526659 
L 381.013953 94.349253 
L 384.906977 92.110111 
L 388.8 90.540203 
" style="fill:none;stroke:#0000ff;stroke-linecap:square;stroke-width:1.5;"/>
   </g>
   <g id="patch_3">
    <path d="M 54 252 
L 54 34.56 
" style="fill:none;stroke:#000000;stroke-linecap:square;stroke-linejoin:miter;stroke-width:0.8;"/>
   </g>
   <g id="patch_4">
    <path d="M 388.8 252 
L 388.8 34.56 
" style="fill:none;stroke:#000000;stroke-linecap:square;stroke-linejoin:miter;stroke-width:0.8;"/>
   </g>
   <g id="patch_5">
    <path d="M 54 252 
L 388.8 252 
" style="fill:none;stroke:#000000;stroke-linecap:square;stroke-linejoin:miter;stroke-width:0.8;"/>
   </g>
   <g id="patch_6">
    <path d="M 54 34.56 
L 388.8 34.56 
" style="fill:none;stroke:#000000;stroke-linecap:square;stroke-linejoin:miter;stroke-width:0.8;"/>
   </g>
   <g id="legend_1">
    <g id="patch_7">
     <path d="M 61 72.194375 
L 165.542188 72.194375 
Q 167.542188 72.194375 167.542188 70.194375 
L 167.542188 41.56 
Q 167.542188 39.56 165.542188 39.56 
L 61 39.56 
Q 59 39.56 59 41.56 
L 59 70.194375 
Q 59 72.194375 61 72.194375 
z
" style="fill:#ffffff;opacity:0.8;stroke:#cccccc;stroke-linejoin:miter;"/>
    </g>
    <g id="line2d_18">
     <path d="M 63 47.658437 
L 83 47.658437 
" style="fill:none;stroke:#ff0000;stroke-dasharray:5.55,2.4;stroke-dashoffset:0;stroke-width:1.5;"/>
    </g>
    <g id="line2d_19"/>
    <g id="text_18">
     <!-- CD-LINKS NDC -->
     <g transform="translate(91 51.158437)scale(0.1 -0.1)">
      <defs>
       <path d="M 4.890625 31.390625 
L 31.203125 31.390625 
L 31.203125 23.390625 
L 4.890625 23.390625 
z
" id="DejaVuSans-45"/>
       <path d="M 9.8125 72.90625 
L 19.671875 72.90625 
L 19.671875 8.296875 
L 55.171875 8.296875 
L 55.171875 0 
L 9.8125 0 
z
" id="DejaVuSans-76"/>
       <path d="M 9.8125 72.90625 
L 19.671875 72.90625 
L 19.671875 0 
L 9.8125 0 
z
" id="DejaVuSans-73"/>
       <path d="M 9.8125 72.90625 
L 23.09375 72.90625 
L 55.421875 11.921875 
L 55.421875 72.90625 
L 64.984375 72.90625 
L 64.984375 0 
L 51.703125 0 
L 19.390625 60.984375 
L 19.390625 0 
L 9.8125 0 
z
" id="DejaVuSans-78"/>
       <path d="M 9.8125 72.90625 
L 19.671875 72.90625 
L 19.671875 42.09375 
L 52.390625 72.90625 
L 65.09375 72.90625 
L 28.90625 38.921875 
L 67.671875 0 
L 54.6875 0 
L 19.671875 35.109375 
L 19.671875 0 
L 9.8125 0 
z
" id="DejaVuSans-75"/>
       <path d="M 53.515625 70.515625 
L 53.515625 60.890625 
Q 47.90625 63.578125 42.921875 64.890625 
Q 37.9375 66.21875 33.296875 66.21875 
Q 25.25 66.21875 20.875 63.09375 
Q 16.5 59.96875 16.5 54.203125 
Q 16.5 49.359375 19.40625 46.890625 
Q 22.3125 44.4375 30.421875 42.921875 
L 36.375 41.703125 
Q 47.40625 39.59375 52.65625 34.296875 
Q 57.90625 29 57.90625 20.125 
Q 57.90625 9.515625 50.796875 4.046875 
Q 43.703125 -1.421875 29.984375 -1.421875 
Q 24.8125 -1.421875 18.96875 -0.25 
Q 13.140625 0.921875 6.890625 3.21875 
L 6.890625 13.375 
Q 12.890625 10.015625 18.65625 8.296875 
Q 24.421875 6.59375 29.984375 6.59375 
Q 38.421875 6.59375 43.015625 9.90625 
Q 47.609375 13.234375 47.609375 19.390625 
Q 47.609375 24.75 44.3125 27.78125 
Q 41.015625 30.8125 33.5 32.328125 
L 27.484375 33.5 
Q 16.453125 35.6875 11.515625 40.375 
Q 6.59375 45.0625 6.59375 53.421875 
Q 6.59375 63.09375 13.40625 68.65625 
Q 20.21875 74.21875 32.171875 74.21875 
Q 37.3125 74.21875 42.625 73.28125 
Q 47.953125 72.359375 53.515625 70.515625 
z
" id="DejaVuSans-83"/>
       <path id="DejaVuSans-32"/>
      </defs>
      <use xlink:href="#DejaVuSans-67"/>
      <use x="69.824219" xlink:href="#DejaVuSans-68"/>
      <use x="146.826172" xlink:href="#DejaVuSans-45"/>
      <use x="182.910156" xlink:href="#DejaVuSans-76"/>
      <use x="238.623047" xlink:href="#DejaVuSans-73"/>
      <use x="268.115234" xlink:href="#DejaVuSans-78"/>
      <use x="342.919922" xlink:href="#DejaVuSans-75"/>
      <use x="408.496094" xlink:href="#DejaVuSans-83"/>
      <use x="471.972656" xlink:href="#DejaVuSans-32"/>
      <use x="503.759766" xlink:href="#DejaVuSans-78"/>
      <use x="578.564453" xlink:href="#DejaVuSans-68"/>
      <use x="655.566406" xlink:href="#DejaVuSans-67"/>
     </g>
    </g>
    <g id="line2d_20">
     <path d="M 63 62.336562 
L 83 62.336562 
" style="fill:none;stroke:#0000ff;stroke-linecap:square;stroke-width:1.5;"/>
    </g>
    <g id="line2d_21"/>
    <g id="text_19">
     <!-- CD-LINKS_NP -->
     <g transform="translate(91 65.836562)scale(0.1 -0.1)">
      <defs>
       <path d="M 19.671875 64.796875 
L 19.671875 37.40625 
L 32.078125 37.40625 
Q 38.96875 37.40625 42.71875 40.96875 
Q 46.484375 44.53125 46.484375 51.125 
Q 46.484375 57.671875 42.71875 61.234375 
Q 38.96875 64.796875 32.078125 64.796875 
z
M 9.8125 72.90625 
L 32.078125 72.90625 
Q 44.34375 72.90625 50.609375 67.359375 
Q 56.890625 61.8125 56.890625 51.125 
Q 56.890625 40.328125 50.609375 34.8125 
Q 44.34375 29.296875 32.078125 29.296875 
L 19.671875 29.296875 
L 19.671875 0 
L 9.8125 0 
z
" id="DejaVuSans-80"/>
      </defs>
      <use xlink:href="#DejaVuSans-67"/>
      <use x="69.824219" xlink:href="#DejaVuSans-68"/>
      <use x="146.826172" xlink:href="#DejaVuSans-45"/>
      <use x="182.910156" xlink:href="#DejaVuSans-76"/>
      <use x="238.623047" xlink:href="#DejaVuSans-73"/>
      <use x="268.115234" xlink:href="#DejaVuSans-78"/>
      <use x="342.919922" xlink:href="#DejaVuSans-75"/>
      <use x="408.496094" xlink:href="#DejaVuSans-83"/>
      <use x="471.972656" xlink:href="#DejaVuSans-95"/>
      <use x="521.972656" xlink:href="#DejaVuSans-78"/>
      <use x="596.777344" xlink:href="#DejaVuSans-80"/>
     </g>
    </g>
   </g>
  </g>
 </g>
 <defs>
  <clipPath id="pfd11e45930">
   <rect height="217.44" width="334.8" x="54" y="34.56"/>
  </clipPath>
 </defs>
</svg>
