<?xml version="1.0" encoding="utf-8" standalone="no"?>
<!DOCTYPE svg PUBLIC "-//W3C//DTD SVG 1.1//EN"
  "http://www.w3.org/Graphics/SVG/1.1/DTD/svg11.dtd">
<!-- Created with matplotlib (https://matplotlib.org/) -->
<svg height="288pt" version="1.1" viewBox="0 0 432 288" width="432pt" xmlns="http://www.w3.org/2000/svg" xmlns:xlink="http://www.w3.org/1999/xlink">
 <metadata>
  <rdf:RDF xmlns:cc="http://creativecommons.org/ns#" xmlns:dc="http://purl.org/dc/elements/1.1/" xmlns:rdf="http://www.w3.org/1999/02/22-rdf-syntax-ns#">
   <cc:Work>
    <dc:type rdf:resource="http://purl.org/dc/dcmitype/StillImage"/>
    <dc:date>2021-05-18T11:01:23.620028</dc:date>
    <dc:format>image/svg+xml</dc:format>
    <dc:creator>
     <cc:Agent>
      <dc:title>Matplotlib v3.3.2, https://matplotlib.org/</dc:title>
     </cc:Agent>
    </dc:creator>
   </cc:Work>
  </rdf:RDF>
 </metadata>
 <defs>
  <style type="text/css">*{stroke-linecap:butt;stroke-linejoin:round;}</style>
 </defs>
 <g id="figure_1">
  <g id="patch_1">
   <path d="M 0 288 
L 432 288 
L 432 0 
L 0 0 
z
" style="fill:#ffffff;"/>
  </g>
  <g id="axes_1">
   <g id="patch_2">
    <path d="M 54 252 
L 388.8 252 
L 388.8 34.56 
L 54 34.56 
z
" style="fill:#ffffff;"/>
   </g>
   <g id="PolyCollection_1">
    <defs>
     <path d="M 54 -90.17632 
L 54 -45.883636 
L 57.893023 -48.658514 
L 61.786047 -50.417823 
L 65.67907 -51.731412 
L 69.572093 -52.860256 
L 73.465116 -53.888342 
L 77.35814 -54.866388 
L 81.251163 -55.893131 
L 85.144186 -57.007469 
L 89.037209 -58.120034 
L 92.930233 -59.138319 
L 96.823256 -60.077857 
L 100.716279 -60.96377 
L 104.609302 -61.792246 
L 108.502326 -62.613742 
L 112.395349 -63.433541 
L 116.288372 -64.248219 
L 120.181395 -65.094373 
L 124.074419 -66.014518 
L 127.967442 -67.063656 
L 131.860465 -68.28921 
L 135.753488 -69.575718 
L 139.646512 -70.877172 
L 143.539535 -72.092455 
L 147.432558 -73.219139 
L 151.325581 -74.256165 
L 155.218605 -75.181202 
L 159.111628 -76.054706 
L 163.004651 -76.951611 
L 166.897674 -77.91719 
L 170.790698 -78.97229 
L 174.683721 -80.176702 
L 178.576744 -81.48354 
L 182.469767 -82.82058 
L 186.362791 -84.117107 
L 190.255814 -85.262567 
L 194.148837 -86.219338 
L 198.04186 -87.043881 
L 201.934884 -87.805345 
L 205.827907 -88.545695 
L 209.72093 -89.329988 
L 213.613953 -90.213484 
L 217.506977 -91.189208 
L 221.4 -92.186001 
L 225.293023 -93.161715 
L 229.186047 -94.133255 
L 233.07907 -95.033772 
L 236.972093 -95.862351 
L 240.865116 -96.647844 
L 244.75814 -97.436423 
L 248.651163 -98.260143 
L 252.544186 -99.143707 
L 256.437209 -100.15695 
L 260.330233 -101.300032 
L 264.223256 -102.493161 
L 268.116279 -103.638712 
L 272.009302 -104.683861 
L 275.902326 -105.628823 
L 279.795349 -106.525099 
L 283.688372 -107.412538 
L 287.581395 -108.300846 
L 291.474419 -109.169069 
L 295.367442 -110.093615 
L 299.260465 -111.028758 
L 303.153488 -112.060177 
L 307.046512 -113.158756 
L 310.939535 -114.296214 
L 314.832558 -115.467291 
L 318.725581 -116.56882 
L 322.618605 -117.618175 
L 326.511628 -118.567744 
L 330.404651 -119.565063 
L 334.297674 -120.384153 
L 338.190698 -121.226724 
L 342.083721 -122.374927 
L 345.976744 -123.432524 
L 349.869767 -124.639211 
L 353.762791 -125.858381 
L 357.655814 -127.100437 
L 361.548837 -128.340367 
L 365.44186 -129.559777 
L 369.334884 -130.50091 
L 373.227907 -131.543692 
L 377.12093 -132.411241 
L 381.013953 -133.453005 
L 384.906977 -134.359638 
L 388.8 -135.650781 
L 388.8 -216.146105 
L 388.8 -216.146105 
L 384.906977 -214.43458 
L 381.013953 -212.864257 
L 377.12093 -211.234833 
L 373.227907 -209.689476 
L 369.334884 -207.947201 
L 365.44186 -206.260665 
L 361.548837 -204.440243 
L 357.655814 -202.41673 
L 353.762791 -200.450716 
L 349.869767 -198.585643 
L 345.976744 -196.786896 
L 342.083721 -195.171944 
L 338.190698 -193.573271 
L 334.297674 -192.110861 
L 330.404651 -190.632516 
L 326.511628 -189.105564 
L 322.618605 -187.511052 
L 318.725581 -185.881262 
L 314.832558 -184.167314 
L 310.939535 -182.418774 
L 307.046512 -180.771425 
L 303.153488 -179.194998 
L 299.260465 -177.692806 
L 295.367442 -176.301043 
L 291.474419 -174.907291 
L 287.581395 -173.581397 
L 283.688372 -172.221653 
L 279.795349 -170.860424 
L 275.902326 -169.476046 
L 272.009302 -168.030795 
L 268.116279 -166.48042 
L 264.223256 -164.846012 
L 260.330233 -163.193427 
L 256.437209 -161.620681 
L 252.544186 -160.196681 
L 248.651163 -158.899525 
L 244.75814 -157.659904 
L 240.865116 -156.44829 
L 236.972093 -155.226228 
L 233.07907 -153.94343 
L 229.186047 -152.559475 
L 225.293023 -151.112178 
L 221.4 -149.66743 
L 217.506977 -148.218292 
L 213.613953 -146.826324 
L 209.72093 -145.578026 
L 205.827907 -144.442763 
L 201.934884 -143.338 
L 198.04186 -142.193717 
L 194.148837 -140.975908 
L 190.255814 -139.618553 
L 186.362791 -138.077244 
L 182.469767 -136.428718 
L 178.576744 -134.799076 
L 174.683721 -133.255377 
L 170.790698 -131.855235 
L 166.897674 -130.612104 
L 163.004651 -129.465959 
L 159.111628 -128.380846 
L 155.218605 -127.285936 
L 151.325581 -126.110435 
L 147.432558 -124.818732 
L 143.539535 -123.447991 
L 139.646512 -122.004855 
L 135.753488 -120.515147 
L 131.860465 -119.050074 
L 127.967442 -117.683483 
L 124.074419 -116.499065 
L 120.181395 -115.430219 
L 116.288372 -114.406002 
L 112.395349 -113.391753 
L 108.502326 -112.379402 
L 104.609302 -111.374572 
L 100.716279 -110.367902 
L 96.823256 -109.321634 
L 92.930233 -108.248707 
L 89.037209 -107.112747 
L 85.144186 -105.886101 
L 81.251163 -104.641164 
L 77.35814 -103.422314 
L 73.465116 -102.144866 
L 69.572093 -100.666955 
L 65.67907 -98.897335 
L 61.786047 -96.719759 
L 57.893023 -93.913988 
L 54 -90.17632 
z
" id="m2c97b21485" style="stroke:#ff0000;stroke-opacity:0.1;"/>
    </defs>
    <g clip-path="url(#pae0a537a4f)">
     <use style="fill:#ff0000;fill-opacity:0.1;stroke:#ff0000;stroke-opacity:0.1;" x="0" xlink:href="#m2c97b21485" y="288"/>
    </g>
   </g>
   <g id="PolyCollection_2">
    <defs>
     <path d="M 54 -90.17632 
L 54 -45.883636 
L 57.893023 -48.670666 
L 61.786047 -50.528509 
L 65.67907 -51.957624 
L 69.572093 -53.196342 
L 73.465116 -54.325272 
L 77.35814 -55.394323 
L 81.251163 -56.490239 
L 85.144186 -57.660328 
L 89.037209 -58.828228 
L 92.930233 -59.909802 
L 96.823256 -60.926446 
L 100.716279 -61.905063 
L 104.609302 -62.846276 
L 108.502326 -63.802819 
L 112.395349 -64.78179 
L 116.288372 -65.779783 
L 120.181395 -66.836352 
L 124.074419 -67.985001 
L 127.967442 -69.272463 
L 131.860465 -70.741365 
L 135.753488 -72.272456 
L 139.646512 -73.802494 
L 143.539535 -75.25641 
L 147.432558 -76.633541 
L 151.325581 -77.929771 
L 155.218605 -79.119527 
L 159.111628 -80.264393 
L 163.004651 -81.435459 
L 166.897674 -82.674817 
L 170.790698 -84.003718 
L 174.683721 -85.482681 
L 178.576744 -87.063372 
L 182.469767 -88.678427 
L 186.362791 -90.250796 
L 190.255814 -91.67587 
L 194.148837 -92.922407 
L 198.04186 -94.053223 
L 201.934884 -95.110592 
L 205.827907 -96.124235 
L 209.72093 -97.159827 
L 213.613953 -98.286699 
L 217.506977 -99.523005 
L 221.4 -100.773165 
L 225.293023 -101.990701 
L 229.186047 -103.196039 
L 233.07907 -104.325609 
L 236.972093 -105.369534 
L 240.865116 -106.373014 
L 244.75814 -107.395608 
L 248.651163 -108.449044 
L 252.544186 -109.582832 
L 256.437209 -110.806346 
L 260.330233 -112.172263 
L 264.223256 -113.562425 
L 268.116279 -114.942963 
L 272.009302 -116.197182 
L 275.902326 -117.349557 
L 279.795349 -118.456333 
L 283.688372 -119.513713 
L 287.581395 -120.64749 
L 291.474419 -121.686762 
L 295.367442 -122.715403 
L 299.260465 -123.882377 
L 303.153488 -125.14182 
L 307.046512 -126.521146 
L 310.939535 -127.945134 
L 314.832558 -129.33732 
L 318.725581 -130.803468 
L 322.618605 -131.991521 
L 326.511628 -133.252176 
L 330.404651 -134.493318 
L 334.297674 -135.574281 
L 338.190698 -136.843693 
L 342.083721 -137.931012 
L 345.976744 -139.462308 
L 349.869767 -140.984904 
L 353.762791 -142.357691 
L 357.655814 -144.102184 
L 361.548837 -145.689792 
L 365.44186 -146.94536 
L 369.334884 -148.286344 
L 373.227907 -148.430004 
L 377.12093 -149.523267 
L 381.013953 -150.553429 
L 384.906977 -152.021268 
L 388.8 -153.289685 
L 388.8 -243.556364 
L 388.8 -243.556364 
L 384.906977 -241.304563 
L 381.013953 -239.372341 
L 377.12093 -237.450065 
L 373.227907 -235.595006 
L 369.334884 -233.504869 
L 365.44186 -231.389538 
L 361.548837 -229.268811 
L 357.655814 -226.931365 
L 353.762791 -224.579447 
L 349.869767 -222.349617 
L 345.976744 -220.173493 
L 342.083721 -218.053429 
L 338.190698 -216.216843 
L 334.297674 -214.241936 
L 330.404651 -212.398492 
L 326.511628 -210.437668 
L 322.618605 -208.323251 
L 318.725581 -206.300927 
L 314.832558 -204.155896 
L 310.939535 -201.993741 
L 307.046512 -199.893202 
L 303.153488 -197.852587 
L 299.260465 -195.974367 
L 295.367442 -194.194985 
L 291.474419 -192.438671 
L 287.581395 -190.676573 
L 283.688372 -188.970787 
L 279.795349 -187.225242 
L 275.902326 -185.482554 
L 272.009302 -183.643865 
L 268.116279 -181.732929 
L 264.223256 -179.714057 
L 260.330233 -177.735766 
L 256.437209 -175.815982 
L 252.544186 -174.067704 
L 248.651163 -172.413325 
L 244.75814 -170.836052 
L 240.865116 -169.275149 
L 236.972093 -167.716143 
L 233.07907 -166.099728 
L 229.186047 -164.387928 
L 225.293023 -162.607471 
L 221.4 -160.824374 
L 217.506977 -159.028153 
L 213.613953 -157.279258 
L 209.72093 -155.658316 
L 205.827907 -154.132862 
L 201.934884 -152.631322 
L 198.04186 -151.097946 
L 194.148837 -149.4943 
L 190.255814 -147.747314 
L 186.362791 -145.809262 
L 182.469767 -143.749842 
L 178.576744 -141.700025 
L 174.683721 -139.750141 
L 170.790698 -137.970782 
L 166.897674 -136.374818 
L 163.004651 -134.879508 
L 159.111628 -133.438224 
L 155.218605 -131.985851 
L 151.325581 -130.455779 
L 147.432558 -128.813814 
L 143.539535 -127.098814 
L 139.646512 -125.319054 
L 135.753488 -123.503571 
L 131.860465 -121.725972 
L 127.967442 -120.052445 
L 124.074419 -118.569642 
L 120.181395 -117.214723 
L 116.288372 -115.92262 
L 112.395349 -114.670138 
L 108.502326 -113.449322 
L 104.609302 -112.265681 
L 100.716279 -111.108253 
L 96.823256 -109.936969 
L 92.930233 -108.761422 
L 89.037209 -107.543063 
L 85.144186 -106.250011 
L 81.251163 -104.949586 
L 77.35814 -103.678357 
L 73.465116 -102.341922 
L 69.572093 -100.807083 
L 65.67907 -98.985564 
L 61.786047 -96.76329 
L 57.893023 -93.923304 
L 54 -90.17632 
z
" id="m09f55643e1" style="stroke:#0000ff;stroke-opacity:0.1;"/>
    </defs>
    <g clip-path="url(#pae0a537a4f)">
     <use style="fill:#0000ff;fill-opacity:0.1;stroke:#0000ff;stroke-opacity:0.1;" x="0" xlink:href="#m09f55643e1" y="288"/>
    </g>
   </g>
   <g id="matplotlib.axis_1">
    <g id="xtick_1">
     <g id="line2d_1">
      <defs>
       <path d="M 0 0 
L 0 3.5 
" id="mfc3efc0a01" style="stroke:#000000;stroke-width:0.8;"/>
      </defs>
      <g>
       <use style="stroke:#000000;stroke-width:0.8;" x="77.35814" xlink:href="#mfc3efc0a01" y="252"/>
      </g>
     </g>
     <g id="text_1">
      <!-- 2020 -->
      <g transform="translate(64.63314 266.598437)scale(0.1 -0.1)">
       <defs>
        <path d="M 19.1875 8.296875 
L 53.609375 8.296875 
L 53.609375 0 
L 7.328125 0 
L 7.328125 8.296875 
Q 12.9375 14.109375 22.625 23.890625 
Q 32.328125 33.6875 34.8125 36.53125 
Q 39.546875 41.84375 41.421875 45.53125 
Q 43.3125 49.21875 43.3125 52.78125 
Q 43.3125 58.59375 39.234375 62.25 
Q 35.15625 65.921875 28.609375 65.921875 
Q 23.96875 65.921875 18.8125 64.3125 
Q 13.671875 62.703125 7.8125 59.421875 
L 7.8125 69.390625 
Q 13.765625 71.78125 18.9375 73 
Q 24.125 74.21875 28.421875 74.21875 
Q 39.75 74.21875 46.484375 68.546875 
Q 53.21875 62.890625 53.21875 53.421875 
Q 53.21875 48.921875 51.53125 44.890625 
Q 49.859375 40.875 45.40625 35.40625 
Q 44.1875 33.984375 37.640625 27.21875 
Q 31.109375 20.453125 19.1875 8.296875 
z
" id="DejaVuSans-50"/>
        <path d="M 31.78125 66.40625 
Q 24.171875 66.40625 20.328125 58.90625 
Q 16.5 51.421875 16.5 36.375 
Q 16.5 21.390625 20.328125 13.890625 
Q 24.171875 6.390625 31.78125 6.390625 
Q 39.453125 6.390625 43.28125 13.890625 
Q 47.125 21.390625 47.125 36.375 
Q 47.125 51.421875 43.28125 58.90625 
Q 39.453125 66.40625 31.78125 66.40625 
z
M 31.78125 74.21875 
Q 44.046875 74.21875 50.515625 64.515625 
Q 56.984375 54.828125 56.984375 36.375 
Q 56.984375 17.96875 50.515625 8.265625 
Q 44.046875 -1.421875 31.78125 -1.421875 
Q 19.53125 -1.421875 13.0625 8.265625 
Q 6.59375 17.96875 6.59375 36.375 
Q 6.59375 54.828125 13.0625 64.515625 
Q 19.53125 74.21875 31.78125 74.21875 
z
" id="DejaVuSans-48"/>
       </defs>
       <use xlink:href="#DejaVuSans-50"/>
       <use x="63.623047" xlink:href="#DejaVuSans-48"/>
       <use x="127.246094" xlink:href="#DejaVuSans-50"/>
       <use x="190.869141" xlink:href="#DejaVuSans-48"/>
      </g>
     </g>
    </g>
    <g id="xtick_2">
     <g id="line2d_2">
      <g>
       <use style="stroke:#000000;stroke-width:0.8;" x="116.288372" xlink:href="#mfc3efc0a01" y="252"/>
      </g>
     </g>
     <g id="text_2">
      <!-- 2030 -->
      <g transform="translate(103.563372 266.598437)scale(0.1 -0.1)">
       <defs>
        <path d="M 40.578125 39.3125 
Q 47.65625 37.796875 51.625 33 
Q 55.609375 28.21875 55.609375 21.1875 
Q 55.609375 10.40625 48.1875 4.484375 
Q 40.765625 -1.421875 27.09375 -1.421875 
Q 22.515625 -1.421875 17.65625 -0.515625 
Q 12.796875 0.390625 7.625 2.203125 
L 7.625 11.71875 
Q 11.71875 9.328125 16.59375 8.109375 
Q 21.484375 6.890625 26.8125 6.890625 
Q 36.078125 6.890625 40.9375 10.546875 
Q 45.796875 14.203125 45.796875 21.1875 
Q 45.796875 27.640625 41.28125 31.265625 
Q 36.765625 34.90625 28.71875 34.90625 
L 20.21875 34.90625 
L 20.21875 43.015625 
L 29.109375 43.015625 
Q 36.375 43.015625 40.234375 45.921875 
Q 44.09375 48.828125 44.09375 54.296875 
Q 44.09375 59.90625 40.109375 62.90625 
Q 36.140625 65.921875 28.71875 65.921875 
Q 24.65625 65.921875 20.015625 65.03125 
Q 15.375 64.15625 9.8125 62.3125 
L 9.8125 71.09375 
Q 15.4375 72.65625 20.34375 73.4375 
Q 25.25 74.21875 29.59375 74.21875 
Q 40.828125 74.21875 47.359375 69.109375 
Q 53.90625 64.015625 53.90625 55.328125 
Q 53.90625 49.265625 50.4375 45.09375 
Q 46.96875 40.921875 40.578125 39.3125 
z
" id="DejaVuSans-51"/>
       </defs>
       <use xlink:href="#DejaVuSans-50"/>
       <use x="63.623047" xlink:href="#DejaVuSans-48"/>
       <use x="127.246094" xlink:href="#DejaVuSans-51"/>
       <use x="190.869141" xlink:href="#DejaVuSans-48"/>
      </g>
     </g>
    </g>
    <g id="xtick_3">
     <g id="line2d_3">
      <g>
       <use style="stroke:#000000;stroke-width:0.8;" x="155.218605" xlink:href="#mfc3efc0a01" y="252"/>
      </g>
     </g>
     <g id="text_3">
      <!-- 2040 -->
      <g transform="translate(142.493605 266.598437)scale(0.1 -0.1)">
       <defs>
        <path d="M 37.796875 64.3125 
L 12.890625 25.390625 
L 37.796875 25.390625 
z
M 35.203125 72.90625 
L 47.609375 72.90625 
L 47.609375 25.390625 
L 58.015625 25.390625 
L 58.015625 17.1875 
L 47.609375 17.1875 
L 47.609375 0 
L 37.796875 0 
L 37.796875 17.1875 
L 4.890625 17.1875 
L 4.890625 26.703125 
z
" id="DejaVuSans-52"/>
       </defs>
       <use xlink:href="#DejaVuSans-50"/>
       <use x="63.623047" xlink:href="#DejaVuSans-48"/>
       <use x="127.246094" xlink:href="#DejaVuSans-52"/>
       <use x="190.869141" xlink:href="#DejaVuSans-48"/>
      </g>
     </g>
    </g>
    <g id="xtick_4">
     <g id="line2d_4">
      <g>
       <use style="stroke:#000000;stroke-width:0.8;" x="194.148837" xlink:href="#mfc3efc0a01" y="252"/>
      </g>
     </g>
     <g id="text_4">
      <!-- 2050 -->
      <g transform="translate(181.423837 266.598437)scale(0.1 -0.1)">
       <defs>
        <path d="M 10.796875 72.90625 
L 49.515625 72.90625 
L 49.515625 64.59375 
L 19.828125 64.59375 
L 19.828125 46.734375 
Q 21.96875 47.46875 24.109375 47.828125 
Q 26.265625 48.1875 28.421875 48.1875 
Q 40.625 48.1875 47.75 41.5 
Q 54.890625 34.8125 54.890625 23.390625 
Q 54.890625 11.625 47.5625 5.09375 
Q 40.234375 -1.421875 26.90625 -1.421875 
Q 22.3125 -1.421875 17.546875 -0.640625 
Q 12.796875 0.140625 7.71875 1.703125 
L 7.71875 11.625 
Q 12.109375 9.234375 16.796875 8.0625 
Q 21.484375 6.890625 26.703125 6.890625 
Q 35.15625 6.890625 40.078125 11.328125 
Q 45.015625 15.765625 45.015625 23.390625 
Q 45.015625 31 40.078125 35.4375 
Q 35.15625 39.890625 26.703125 39.890625 
Q 22.75 39.890625 18.8125 39.015625 
Q 14.890625 38.140625 10.796875 36.28125 
z
" id="DejaVuSans-53"/>
       </defs>
       <use xlink:href="#DejaVuSans-50"/>
       <use x="63.623047" xlink:href="#DejaVuSans-48"/>
       <use x="127.246094" xlink:href="#DejaVuSans-53"/>
       <use x="190.869141" xlink:href="#DejaVuSans-48"/>
      </g>
     </g>
    </g>
    <g id="xtick_5">
     <g id="line2d_5">
      <g>
       <use style="stroke:#000000;stroke-width:0.8;" x="233.07907" xlink:href="#mfc3efc0a01" y="252"/>
      </g>
     </g>
     <g id="text_5">
      <!-- 2060 -->
      <g transform="translate(220.35407 266.598437)scale(0.1 -0.1)">
       <defs>
        <path d="M 33.015625 40.375 
Q 26.375 40.375 22.484375 35.828125 
Q 18.609375 31.296875 18.609375 23.390625 
Q 18.609375 15.53125 22.484375 10.953125 
Q 26.375 6.390625 33.015625 6.390625 
Q 39.65625 6.390625 43.53125 10.953125 
Q 47.40625 15.53125 47.40625 23.390625 
Q 47.40625 31.296875 43.53125 35.828125 
Q 39.65625 40.375 33.015625 40.375 
z
M 52.59375 71.296875 
L 52.59375 62.3125 
Q 48.875 64.0625 45.09375 64.984375 
Q 41.3125 65.921875 37.59375 65.921875 
Q 27.828125 65.921875 22.671875 59.328125 
Q 17.53125 52.734375 16.796875 39.40625 
Q 19.671875 43.65625 24.015625 45.921875 
Q 28.375 48.1875 33.59375 48.1875 
Q 44.578125 48.1875 50.953125 41.515625 
Q 57.328125 34.859375 57.328125 23.390625 
Q 57.328125 12.15625 50.6875 5.359375 
Q 44.046875 -1.421875 33.015625 -1.421875 
Q 20.359375 -1.421875 13.671875 8.265625 
Q 6.984375 17.96875 6.984375 36.375 
Q 6.984375 53.65625 15.1875 63.9375 
Q 23.390625 74.21875 37.203125 74.21875 
Q 40.921875 74.21875 44.703125 73.484375 
Q 48.484375 72.75 52.59375 71.296875 
z
" id="DejaVuSans-54"/>
       </defs>
       <use xlink:href="#DejaVuSans-50"/>
       <use x="63.623047" xlink:href="#DejaVuSans-48"/>
       <use x="127.246094" xlink:href="#DejaVuSans-54"/>
       <use x="190.869141" xlink:href="#DejaVuSans-48"/>
      </g>
     </g>
    </g>
    <g id="xtick_6">
     <g id="line2d_6">
      <g>
       <use style="stroke:#000000;stroke-width:0.8;" x="272.009302" xlink:href="#mfc3efc0a01" y="252"/>
      </g>
     </g>
     <g id="text_6">
      <!-- 2070 -->
      <g transform="translate(259.284302 266.598437)scale(0.1 -0.1)">
       <defs>
        <path d="M 8.203125 72.90625 
L 55.078125 72.90625 
L 55.078125 68.703125 
L 28.609375 0 
L 18.3125 0 
L 43.21875 64.59375 
L 8.203125 64.59375 
z
" id="DejaVuSans-55"/>
       </defs>
       <use xlink:href="#DejaVuSans-50"/>
       <use x="63.623047" xlink:href="#DejaVuSans-48"/>
       <use x="127.246094" xlink:href="#DejaVuSans-55"/>
       <use x="190.869141" xlink:href="#DejaVuSans-48"/>
      </g>
     </g>
    </g>
    <g id="xtick_7">
     <g id="line2d_7">
      <g>
       <use style="stroke:#000000;stroke-width:0.8;" x="310.939535" xlink:href="#mfc3efc0a01" y="252"/>
      </g>
     </g>
     <g id="text_7">
      <!-- 2080 -->
      <g transform="translate(298.214535 266.598437)scale(0.1 -0.1)">
       <defs>
        <path d="M 31.78125 34.625 
Q 24.75 34.625 20.71875 30.859375 
Q 16.703125 27.09375 16.703125 20.515625 
Q 16.703125 13.921875 20.71875 10.15625 
Q 24.75 6.390625 31.78125 6.390625 
Q 38.8125 6.390625 42.859375 10.171875 
Q 46.921875 13.96875 46.921875 20.515625 
Q 46.921875 27.09375 42.890625 30.859375 
Q 38.875 34.625 31.78125 34.625 
z
M 21.921875 38.8125 
Q 15.578125 40.375 12.03125 44.71875 
Q 8.5 49.078125 8.5 55.328125 
Q 8.5 64.0625 14.71875 69.140625 
Q 20.953125 74.21875 31.78125 74.21875 
Q 42.671875 74.21875 48.875 69.140625 
Q 55.078125 64.0625 55.078125 55.328125 
Q 55.078125 49.078125 51.53125 44.71875 
Q 48 40.375 41.703125 38.8125 
Q 48.828125 37.15625 52.796875 32.3125 
Q 56.78125 27.484375 56.78125 20.515625 
Q 56.78125 9.90625 50.3125 4.234375 
Q 43.84375 -1.421875 31.78125 -1.421875 
Q 19.734375 -1.421875 13.25 4.234375 
Q 6.78125 9.90625 6.78125 20.515625 
Q 6.78125 27.484375 10.78125 32.3125 
Q 14.796875 37.15625 21.921875 38.8125 
z
M 18.3125 54.390625 
Q 18.3125 48.734375 21.84375 45.5625 
Q 25.390625 42.390625 31.78125 42.390625 
Q 38.140625 42.390625 41.71875 45.5625 
Q 45.3125 48.734375 45.3125 54.390625 
Q 45.3125 60.0625 41.71875 63.234375 
Q 38.140625 66.40625 31.78125 66.40625 
Q 25.390625 66.40625 21.84375 63.234375 
Q 18.3125 60.0625 18.3125 54.390625 
z
" id="DejaVuSans-56"/>
       </defs>
       <use xlink:href="#DejaVuSans-50"/>
       <use x="63.623047" xlink:href="#DejaVuSans-48"/>
       <use x="127.246094" xlink:href="#DejaVuSans-56"/>
       <use x="190.869141" xlink:href="#DejaVuSans-48"/>
      </g>
     </g>
    </g>
    <g id="xtick_8">
     <g id="line2d_8">
      <g>
       <use style="stroke:#000000;stroke-width:0.8;" x="349.869767" xlink:href="#mfc3efc0a01" y="252"/>
      </g>
     </g>
     <g id="text_8">
      <!-- 2090 -->
      <g transform="translate(337.144767 266.598437)scale(0.1 -0.1)">
       <defs>
        <path d="M 10.984375 1.515625 
L 10.984375 10.5 
Q 14.703125 8.734375 18.5 7.8125 
Q 22.3125 6.890625 25.984375 6.890625 
Q 35.75 6.890625 40.890625 13.453125 
Q 46.046875 20.015625 46.78125 33.40625 
Q 43.953125 29.203125 39.59375 26.953125 
Q 35.25 24.703125 29.984375 24.703125 
Q 19.046875 24.703125 12.671875 31.3125 
Q 6.296875 37.9375 6.296875 49.421875 
Q 6.296875 60.640625 12.9375 67.421875 
Q 19.578125 74.21875 30.609375 74.21875 
Q 43.265625 74.21875 49.921875 64.515625 
Q 56.59375 54.828125 56.59375 36.375 
Q 56.59375 19.140625 48.40625 8.859375 
Q 40.234375 -1.421875 26.421875 -1.421875 
Q 22.703125 -1.421875 18.890625 -0.6875 
Q 15.09375 0.046875 10.984375 1.515625 
z
M 30.609375 32.421875 
Q 37.25 32.421875 41.125 36.953125 
Q 45.015625 41.5 45.015625 49.421875 
Q 45.015625 57.28125 41.125 61.84375 
Q 37.25 66.40625 30.609375 66.40625 
Q 23.96875 66.40625 20.09375 61.84375 
Q 16.21875 57.28125 16.21875 49.421875 
Q 16.21875 41.5 20.09375 36.953125 
Q 23.96875 32.421875 30.609375 32.421875 
z
" id="DejaVuSans-57"/>
       </defs>
       <use xlink:href="#DejaVuSans-50"/>
       <use x="63.623047" xlink:href="#DejaVuSans-48"/>
       <use x="127.246094" xlink:href="#DejaVuSans-57"/>
       <use x="190.869141" xlink:href="#DejaVuSans-48"/>
      </g>
     </g>
    </g>
    <g id="xtick_9">
     <g id="line2d_9">
      <g>
       <use style="stroke:#000000;stroke-width:0.8;" x="388.8" xlink:href="#mfc3efc0a01" y="252"/>
      </g>
     </g>
     <g id="text_9">
      <!-- 2100 -->
      <g transform="translate(376.075 266.598437)scale(0.1 -0.1)">
       <defs>
        <path d="M 12.40625 8.296875 
L 28.515625 8.296875 
L 28.515625 63.921875 
L 10.984375 60.40625 
L 10.984375 69.390625 
L 28.421875 72.90625 
L 38.28125 72.90625 
L 38.28125 8.296875 
L 54.390625 8.296875 
L 54.390625 0 
L 12.40625 0 
z
" id="DejaVuSans-49"/>
       </defs>
       <use xlink:href="#DejaVuSans-50"/>
       <use x="63.623047" xlink:href="#DejaVuSans-49"/>
       <use x="127.246094" xlink:href="#DejaVuSans-48"/>
       <use x="190.869141" xlink:href="#DejaVuSans-48"/>
      </g>
     </g>
    </g>
    <g id="text_10">
     <!-- year -->
     <g transform="translate(210.244531 280.276563)scale(0.1 -0.1)">
      <defs>
       <path d="M 32.171875 -5.078125 
Q 28.375 -14.84375 24.75 -17.8125 
Q 21.140625 -20.796875 15.09375 -20.796875 
L 7.90625 -20.796875 
L 7.90625 -13.28125 
L 13.1875 -13.28125 
Q 16.890625 -13.28125 18.9375 -11.515625 
Q 21 -9.765625 23.484375 -3.21875 
L 25.09375 0.875 
L 2.984375 54.6875 
L 12.5 54.6875 
L 29.59375 11.921875 
L 46.6875 54.6875 
L 56.203125 54.6875 
z
" id="DejaVuSans-121"/>
       <path d="M 56.203125 29.59375 
L 56.203125 25.203125 
L 14.890625 25.203125 
Q 15.484375 15.921875 20.484375 11.0625 
Q 25.484375 6.203125 34.421875 6.203125 
Q 39.59375 6.203125 44.453125 7.46875 
Q 49.3125 8.734375 54.109375 11.28125 
L 54.109375 2.78125 
Q 49.265625 0.734375 44.1875 -0.34375 
Q 39.109375 -1.421875 33.890625 -1.421875 
Q 20.796875 -1.421875 13.15625 6.1875 
Q 5.515625 13.8125 5.515625 26.8125 
Q 5.515625 40.234375 12.765625 48.109375 
Q 20.015625 56 32.328125 56 
Q 43.359375 56 49.78125 48.890625 
Q 56.203125 41.796875 56.203125 29.59375 
z
M 47.21875 32.234375 
Q 47.125 39.59375 43.09375 43.984375 
Q 39.0625 48.390625 32.421875 48.390625 
Q 24.90625 48.390625 20.390625 44.140625 
Q 15.875 39.890625 15.1875 32.171875 
z
" id="DejaVuSans-101"/>
       <path d="M 34.28125 27.484375 
Q 23.390625 27.484375 19.1875 25 
Q 14.984375 22.515625 14.984375 16.5 
Q 14.984375 11.71875 18.140625 8.90625 
Q 21.296875 6.109375 26.703125 6.109375 
Q 34.1875 6.109375 38.703125 11.40625 
Q 43.21875 16.703125 43.21875 25.484375 
L 43.21875 27.484375 
z
M 52.203125 31.203125 
L 52.203125 0 
L 43.21875 0 
L 43.21875 8.296875 
Q 40.140625 3.328125 35.546875 0.953125 
Q 30.953125 -1.421875 24.3125 -1.421875 
Q 15.921875 -1.421875 10.953125 3.296875 
Q 6 8.015625 6 15.921875 
Q 6 25.140625 12.171875 29.828125 
Q 18.359375 34.515625 30.609375 34.515625 
L 43.21875 34.515625 
L 43.21875 35.40625 
Q 43.21875 41.609375 39.140625 45 
Q 35.0625 48.390625 27.6875 48.390625 
Q 23 48.390625 18.546875 47.265625 
Q 14.109375 46.140625 10.015625 43.890625 
L 10.015625 52.203125 
Q 14.9375 54.109375 19.578125 55.046875 
Q 24.21875 56 28.609375 56 
Q 40.484375 56 46.34375 49.84375 
Q 52.203125 43.703125 52.203125 31.203125 
z
" id="DejaVuSans-97"/>
       <path d="M 41.109375 46.296875 
Q 39.59375 47.171875 37.8125 47.578125 
Q 36.03125 48 33.890625 48 
Q 26.265625 48 22.1875 43.046875 
Q 18.109375 38.09375 18.109375 28.8125 
L 18.109375 0 
L 9.078125 0 
L 9.078125 54.6875 
L 18.109375 54.6875 
L 18.109375 46.1875 
Q 20.953125 51.171875 25.484375 53.578125 
Q 30.03125 56 36.53125 56 
Q 37.453125 56 38.578125 55.875 
Q 39.703125 55.765625 41.0625 55.515625 
z
" id="DejaVuSans-114"/>
      </defs>
      <use xlink:href="#DejaVuSans-121"/>
      <use x="59.179688" xlink:href="#DejaVuSans-101"/>
      <use x="120.703125" xlink:href="#DejaVuSans-97"/>
      <use x="181.982422" xlink:href="#DejaVuSans-114"/>
     </g>
    </g>
   </g>
   <g id="matplotlib.axis_2">
    <g id="ytick_1">
     <g id="line2d_10">
      <defs>
       <path d="M 0 0 
L -3.5 0 
" id="m43d06e16be" style="stroke:#000000;stroke-width:0.8;"/>
      </defs>
      <g>
       <use style="stroke:#000000;stroke-width:0.8;" x="54" xlink:href="#m43d06e16be" y="208.392988"/>
      </g>
     </g>
     <g id="text_11">
      <!-- 2 -->
      <g transform="translate(40.6375 212.192206)scale(0.1 -0.1)">
       <use xlink:href="#DejaVuSans-50"/>
      </g>
     </g>
    </g>
    <g id="ytick_2">
     <g id="line2d_11">
      <g>
       <use style="stroke:#000000;stroke-width:0.8;" x="54" xlink:href="#m43d06e16be" y="160.445778"/>
      </g>
     </g>
     <g id="text_12">
      <!-- 3 -->
      <g transform="translate(40.6375 164.244996)scale(0.1 -0.1)">
       <use xlink:href="#DejaVuSans-51"/>
      </g>
     </g>
    </g>
    <g id="ytick_3">
     <g id="line2d_12">
      <g>
       <use style="stroke:#000000;stroke-width:0.8;" x="54" xlink:href="#m43d06e16be" y="112.498568"/>
      </g>
     </g>
     <g id="text_13">
      <!-- 4 -->
      <g transform="translate(40.6375 116.297786)scale(0.1 -0.1)">
       <use xlink:href="#DejaVuSans-52"/>
      </g>
     </g>
    </g>
    <g id="ytick_4">
     <g id="line2d_13">
      <g>
       <use style="stroke:#000000;stroke-width:0.8;" x="54" xlink:href="#m43d06e16be" y="64.551358"/>
      </g>
     </g>
     <g id="text_14">
      <!-- 5 -->
      <g transform="translate(40.6375 68.350576)scale(0.1 -0.1)">
       <use xlink:href="#DejaVuSans-53"/>
      </g>
     </g>
    </g>
    <g id="text_15">
     <!-- D_Tg/K -->
     <g transform="translate(34.279688 160.821406)rotate(-90)scale(0.1 -0.1)">
      <defs>
       <path d="M 19.671875 64.796875 
L 19.671875 8.109375 
L 31.59375 8.109375 
Q 46.6875 8.109375 53.6875 14.9375 
Q 60.6875 21.78125 60.6875 36.53125 
Q 60.6875 51.171875 53.6875 57.984375 
Q 46.6875 64.796875 31.59375 64.796875 
z
M 9.8125 72.90625 
L 30.078125 72.90625 
Q 51.265625 72.90625 61.171875 64.09375 
Q 71.09375 55.28125 71.09375 36.53125 
Q 71.09375 17.671875 61.125 8.828125 
Q 51.171875 0 30.078125 0 
L 9.8125 0 
z
" id="DejaVuSans-68"/>
       <path d="M 50.984375 -16.609375 
L 50.984375 -23.578125 
L -0.984375 -23.578125 
L -0.984375 -16.609375 
z
" id="DejaVuSans-95"/>
       <path d="M -0.296875 72.90625 
L 61.375 72.90625 
L 61.375 64.59375 
L 35.5 64.59375 
L 35.5 0 
L 25.59375 0 
L 25.59375 64.59375 
L -0.296875 64.59375 
z
" id="DejaVuSans-84"/>
       <path d="M 45.40625 27.984375 
Q 45.40625 37.75 41.375 43.109375 
Q 37.359375 48.484375 30.078125 48.484375 
Q 22.859375 48.484375 18.828125 43.109375 
Q 14.796875 37.75 14.796875 27.984375 
Q 14.796875 18.265625 18.828125 12.890625 
Q 22.859375 7.515625 30.078125 7.515625 
Q 37.359375 7.515625 41.375 12.890625 
Q 45.40625 18.265625 45.40625 27.984375 
z
M 54.390625 6.78125 
Q 54.390625 -7.171875 48.1875 -13.984375 
Q 42 -20.796875 29.203125 -20.796875 
Q 24.46875 -20.796875 20.265625 -20.09375 
Q 16.0625 -19.390625 12.109375 -17.921875 
L 12.109375 -9.1875 
Q 16.0625 -11.328125 19.921875 -12.34375 
Q 23.78125 -13.375 27.78125 -13.375 
Q 36.625 -13.375 41.015625 -8.765625 
Q 45.40625 -4.15625 45.40625 5.171875 
L 45.40625 9.625 
Q 42.625 4.78125 38.28125 2.390625 
Q 33.9375 0 27.875 0 
Q 17.828125 0 11.671875 7.65625 
Q 5.515625 15.328125 5.515625 27.984375 
Q 5.515625 40.671875 11.671875 48.328125 
Q 17.828125 56 27.875 56 
Q 33.9375 56 38.28125 53.609375 
Q 42.625 51.21875 45.40625 46.390625 
L 45.40625 54.6875 
L 54.390625 54.6875 
z
" id="DejaVuSans-103"/>
       <path d="M 25.390625 72.90625 
L 33.6875 72.90625 
L 8.296875 -9.28125 
L 0 -9.28125 
z
" id="DejaVuSans-47"/>
       <path d="M 9.8125 72.90625 
L 19.671875 72.90625 
L 19.671875 42.09375 
L 52.390625 72.90625 
L 65.09375 72.90625 
L 28.90625 38.921875 
L 67.671875 0 
L 54.6875 0 
L 19.671875 35.109375 
L 19.671875 0 
L 9.8125 0 
z
" id="DejaVuSans-75"/>
      </defs>
      <use xlink:href="#DejaVuSans-68"/>
      <use x="77.001953" xlink:href="#DejaVuSans-95"/>
      <use x="127.001953" xlink:href="#DejaVuSans-84"/>
      <use x="188.085938" xlink:href="#DejaVuSans-103"/>
      <use x="251.5625" xlink:href="#DejaVuSans-47"/>
      <use x="285.253906" xlink:href="#DejaVuSans-75"/>
     </g>
    </g>
   </g>
   <g id="line2d_14">
    <path clip-path="url(#pae0a537a4f)" d="M 54 219.970022 
L 57.893023 216.713752 
L 61.786047 214.431212 
L 65.67907 212.685626 
L 69.572093 211.236397 
L 73.465116 209.983396 
L 77.35814 208.855649 
L 81.251163 207.732852 
L 85.144186 206.553212 
L 89.037209 205.383609 
L 92.930233 204.306487 
L 96.823256 203.300252 
L 100.716279 202.334164 
L 104.609302 201.416591 
L 108.502326 200.503431 
L 112.395349 199.587356 
L 116.288372 198.672893 
L 120.181395 197.737704 
L 124.074419 196.743209 
L 127.967442 195.626431 
L 131.860465 194.330361 
L 135.753488 192.954568 
L 139.646512 191.558987 
L 143.539535 190.229777 
L 147.432558 188.981068 
L 151.325581 187.8167 
L 155.218605 186.766431 
L 159.111628 185.782224 
L 163.004651 184.791215 
L 166.897674 183.735356 
L 170.790698 182.586238 
L 174.683721 181.283961 
L 178.576744 179.858692 
L 182.469767 178.375351 
L 186.362791 176.902825 
L 190.255814 175.55944 
L 194.148837 174.402377 
L 198.04186 173.381201 
L 201.934884 172.428328 
L 205.827907 171.505771 
L 209.72093 170.545993 
L 213.613953 169.480096 
L 217.506977 168.29625 
L 221.4 167.073284 
L 225.293023 165.863054 
L 229.186047 164.653635 
L 233.07907 163.511399 
L 236.972093 162.455711 
L 240.865116 161.451933 
L 244.75814 160.451836 
L 248.651163 159.420166 
L 252.544186 158.329806 
L 256.437209 157.111184 
L 260.330233 155.75327 
L 264.223256 154.330414 
L 268.116279 152.940434 
L 272.009302 151.642672 
L 275.902326 150.447565 
L 279.795349 149.307239 
L 283.688372 148.182904 
L 287.581395 147.058879 
L 291.474419 145.96182 
L 295.367442 144.802665 
L 299.260465 143.639212 
L 303.153488 142.372407 
L 307.046512 141.034909 
L 310.939535 139.642506 
L 314.832558 138.182692 
L 318.725581 136.774959 
L 322.618605 135.435392 
L 326.511628 134.16334 
L 330.404651 132.90121 
L 334.297674 131.752493 
L 338.190698 130.600002 
L 342.083721 129.226564 
L 345.976744 127.89029 
L 349.869767 126.387573 
L 353.762791 124.845451 
L 357.655814 123.241416 
L 361.548837 121.609695 
L 365.44186 120.089785 
L 369.334884 118.77595 
L 373.227907 117.383421 
L 377.12093 116.176963 
L 381.013953 114.841363 
L 384.906977 113.602885 
L 388.8 112.101551 
" style="fill:none;stroke:#ff0000;stroke-dasharray:5.55,2.4;stroke-dashoffset:0;stroke-width:1.5;"/>
   </g>
   <g id="line2d_15">
    <path clip-path="url(#pae0a537a4f)" d="M 54 219.970022 
L 57.893023 216.703012 
L 61.786047 214.3541 
L 65.67907 212.528409 
L 69.572093 210.998291 
L 73.465116 209.6664 
L 77.35814 208.463657 
L 81.251163 207.280085 
L 85.144186 206.04483 
L 89.037209 204.814355 
L 92.930233 203.664391 
L 96.823256 202.568292 
L 100.716279 201.493342 
L 104.609302 200.444021 
L 108.502326 199.37393 
L 112.395349 198.274036 
L 116.288372 197.148798 
L 120.181395 195.974463 
L 124.074419 194.722679 
L 127.967442 193.337546 
L 131.860465 191.766331 
L 135.753488 190.111987 
L 139.646512 188.439226 
L 143.539535 186.822388 
L 147.432558 185.276322 
L 151.325581 183.807225 
L 155.218605 182.447311 
L 159.111628 181.148692 
L 163.004651 179.842516 
L 166.897674 178.475182 
L 170.790698 177.01275 
L 174.683721 175.383589 
L 178.576744 173.618302 
L 182.469767 171.785865 
L 186.362791 169.969971 
L 190.255814 168.288408 
L 194.148837 166.791646 
L 198.04186 165.424415 
L 201.934884 164.129043 
L 205.827907 162.871452 
L 209.72093 161.590929 
L 213.613953 160.217022 
L 217.506977 158.724421 
L 221.4 157.20123 
L 225.293023 155.700914 
L 229.186047 154.208016 
L 233.07907 152.787332 
L 236.972093 151.457162 
L 240.865116 150.175919 
L 244.75814 148.88417 
L 248.651163 147.568815 
L 252.544186 146.174732 
L 256.437209 144.688842 
L 260.330233 143.045986 
L 264.223256 141.361759 
L 268.116279 139.662054 
L 272.009302 138.079477 
L 275.902326 136.583938 
L 279.795349 135.159207 
L 283.688372 133.75775 
L 287.581395 132.337969 
L 291.474419 130.937289 
L 295.367442 129.544806 
L 299.260465 128.071628 
L 303.153488 126.502802 
L 307.046512 124.79282 
L 310.939535 123.030562 
L 314.832558 121.253398 
L 318.725581 119.447803 
L 322.618605 117.842614 
L 326.511628 116.155083 
L 330.404651 114.554101 
L 334.297674 113.091897 
L 338.190698 111.469732 
L 342.083721 110.00778 
L 345.976744 108.1821 
L 349.869767 106.332734 
L 353.762791 104.531425 
L 357.655814 102.48322 
L 361.548837 100.520705 
L 365.44186 98.832545 
L 369.334884 97.104399 
L 373.227907 95.987495 
L 377.12093 94.513334 
L 381.013953 93.037115 
L 384.906977 91.33709 
L 388.8 89.576981 
" style="fill:none;stroke:#0000ff;stroke-linecap:square;stroke-width:1.5;"/>
   </g>
   <g id="patch_3">
    <path d="M 54 252 
L 54 34.56 
" style="fill:none;stroke:#000000;stroke-linecap:square;stroke-linejoin:miter;stroke-width:0.8;"/>
   </g>
   <g id="patch_4">
    <path d="M 388.8 252 
L 388.8 34.56 
" style="fill:none;stroke:#000000;stroke-linecap:square;stroke-linejoin:miter;stroke-width:0.8;"/>
   </g>
   <g id="patch_5">
    <path d="M 54 252 
L 388.8 252 
" style="fill:none;stroke:#000000;stroke-linecap:square;stroke-linejoin:miter;stroke-width:0.8;"/>
   </g>
   <g id="patch_6">
    <path d="M 54 34.56 
L 388.8 34.56 
" style="fill:none;stroke:#000000;stroke-linecap:square;stroke-linejoin:miter;stroke-width:0.8;"/>
   </g>
   <g id="legend_1">
    <g id="patch_7">
     <path d="M 61 72.194375 
L 165.542188 72.194375 
Q 167.542188 72.194375 167.542188 70.194375 
L 167.542188 41.56 
Q 167.542188 39.56 165.542188 39.56 
L 61 39.56 
Q 59 39.56 59 41.56 
L 59 70.194375 
Q 59 72.194375 61 72.194375 
z
" style="fill:#ffffff;opacity:0.8;stroke:#cccccc;stroke-linejoin:miter;"/>
    </g>
    <g id="line2d_16">
     <path d="M 63 47.658437 
L 83 47.658437 
" style="fill:none;stroke:#ff0000;stroke-dasharray:5.55,2.4;stroke-dashoffset:0;stroke-width:1.5;"/>
    </g>
    <g id="line2d_17"/>
    <g id="text_16">
     <!-- CD-LINKS NDC -->
     <g transform="translate(91 51.158437)scale(0.1 -0.1)">
      <defs>
       <path d="M 64.40625 67.28125 
L 64.40625 56.890625 
Q 59.421875 61.53125 53.78125 63.8125 
Q 48.140625 66.109375 41.796875 66.109375 
Q 29.296875 66.109375 22.65625 58.46875 
Q 16.015625 50.828125 16.015625 36.375 
Q 16.015625 21.96875 22.65625 14.328125 
Q 29.296875 6.6875 41.796875 6.6875 
Q 48.140625 6.6875 53.78125 8.984375 
Q 59.421875 11.28125 64.40625 15.921875 
L 64.40625 5.609375 
Q 59.234375 2.09375 53.4375 0.328125 
Q 47.65625 -1.421875 41.21875 -1.421875 
Q 24.65625 -1.421875 15.125 8.703125 
Q 5.609375 18.84375 5.609375 36.375 
Q 5.609375 53.953125 15.125 64.078125 
Q 24.65625 74.21875 41.21875 74.21875 
Q 47.75 74.21875 53.53125 72.484375 
Q 59.328125 70.75 64.40625 67.28125 
z
" id="DejaVuSans-67"/>
       <path d="M 4.890625 31.390625 
L 31.203125 31.390625 
L 31.203125 23.390625 
L 4.890625 23.390625 
z
" id="DejaVuSans-45"/>
       <path d="M 9.8125 72.90625 
L 19.671875 72.90625 
L 19.671875 8.296875 
L 55.171875 8.296875 
L 55.171875 0 
L 9.8125 0 
z
" id="DejaVuSans-76"/>
       <path d="M 9.8125 72.90625 
L 19.671875 72.90625 
L 19.671875 0 
L 9.8125 0 
z
" id="DejaVuSans-73"/>
       <path d="M 9.8125 72.90625 
L 23.09375 72.90625 
L 55.421875 11.921875 
L 55.421875 72.90625 
L 64.984375 72.90625 
L 64.984375 0 
L 51.703125 0 
L 19.390625 60.984375 
L 19.390625 0 
L 9.8125 0 
z
" id="DejaVuSans-78"/>
       <path d="M 53.515625 70.515625 
L 53.515625 60.890625 
Q 47.90625 63.578125 42.921875 64.890625 
Q 37.9375 66.21875 33.296875 66.21875 
Q 25.25 66.21875 20.875 63.09375 
Q 16.5 59.96875 16.5 54.203125 
Q 16.5 49.359375 19.40625 46.890625 
Q 22.3125 44.4375 30.421875 42.921875 
L 36.375 41.703125 
Q 47.40625 39.59375 52.65625 34.296875 
Q 57.90625 29 57.90625 20.125 
Q 57.90625 9.515625 50.796875 4.046875 
Q 43.703125 -1.421875 29.984375 -1.421875 
Q 24.8125 -1.421875 18.96875 -0.25 
Q 13.140625 0.921875 6.890625 3.21875 
L 6.890625 13.375 
Q 12.890625 10.015625 18.65625 8.296875 
Q 24.421875 6.59375 29.984375 6.59375 
Q 38.421875 6.59375 43.015625 9.90625 
Q 47.609375 13.234375 47.609375 19.390625 
Q 47.609375 24.75 44.3125 27.78125 
Q 41.015625 30.8125 33.5 32.328125 
L 27.484375 33.5 
Q 16.453125 35.6875 11.515625 40.375 
Q 6.59375 45.0625 6.59375 53.421875 
Q 6.59375 63.09375 13.40625 68.65625 
Q 20.21875 74.21875 32.171875 74.21875 
Q 37.3125 74.21875 42.625 73.28125 
Q 47.953125 72.359375 53.515625 70.515625 
z
" id="DejaVuSans-83"/>
       <path id="DejaVuSans-32"/>
      </defs>
      <use xlink:href="#DejaVuSans-67"/>
      <use x="69.824219" xlink:href="#DejaVuSans-68"/>
      <use x="146.826172" xlink:href="#DejaVuSans-45"/>
      <use x="182.910156" xlink:href="#DejaVuSans-76"/>
      <use x="238.623047" xlink:href="#DejaVuSans-73"/>
      <use x="268.115234" xlink:href="#DejaVuSans-78"/>
      <use x="342.919922" xlink:href="#DejaVuSans-75"/>
      <use x="408.496094" xlink:href="#DejaVuSans-83"/>
      <use x="471.972656" xlink:href="#DejaVuSans-32"/>
      <use x="503.759766" xlink:href="#DejaVuSans-78"/>
      <use x="578.564453" xlink:href="#DejaVuSans-68"/>
      <use x="655.566406" xlink:href="#DejaVuSans-67"/>
     </g>
    </g>
    <g id="line2d_18">
     <path d="M 63 62.336562 
L 83 62.336562 
" style="fill:none;stroke:#0000ff;stroke-linecap:square;stroke-width:1.5;"/>
    </g>
    <g id="line2d_19"/>
    <g id="text_17">
     <!-- CD_NP -->
     <g transform="translate(91 65.836562)scale(0.1 -0.1)">
      <defs>
       <path d="M 19.671875 64.796875 
L 19.671875 37.40625 
L 32.078125 37.40625 
Q 38.96875 37.40625 42.71875 40.96875 
Q 46.484375 44.53125 46.484375 51.125 
Q 46.484375 57.671875 42.71875 61.234375 
Q 38.96875 64.796875 32.078125 64.796875 
z
M 9.8125 72.90625 
L 32.078125 72.90625 
Q 44.34375 72.90625 50.609375 67.359375 
Q 56.890625 61.8125 56.890625 51.125 
Q 56.890625 40.328125 50.609375 34.8125 
Q 44.34375 29.296875 32.078125 29.296875 
L 19.671875 29.296875 
L 19.671875 0 
L 9.8125 0 
z
" id="DejaVuSans-80"/>
      </defs>
      <use xlink:href="#DejaVuSans-67"/>
      <use x="69.824219" xlink:href="#DejaVuSans-68"/>
      <use x="146.826172" xlink:href="#DejaVuSans-95"/>
      <use x="196.826172" xlink:href="#DejaVuSans-78"/>
      <use x="271.630859" xlink:href="#DejaVuSans-80"/>
     </g>
    </g>
   </g>
  </g>
 </g>
 <defs>
  <clipPath id="pae0a537a4f">
   <rect height="217.44" width="334.8" x="54" y="34.56"/>
  </clipPath>
 </defs>
</svg>
