<?xml version="1.0" encoding="utf-8" standalone="no"?>
<!DOCTYPE svg PUBLIC "-//W3C//DTD SVG 1.1//EN"
  "http://www.w3.org/Graphics/SVG/1.1/DTD/svg11.dtd">
<!-- Created with matplotlib (https://matplotlib.org/) -->
<svg height="288pt" version="1.1" viewBox="0 0 432 288" width="432pt" xmlns="http://www.w3.org/2000/svg" xmlns:xlink="http://www.w3.org/1999/xlink">
 <metadata>
  <rdf:RDF xmlns:cc="http://creativecommons.org/ns#" xmlns:dc="http://purl.org/dc/elements/1.1/" xmlns:rdf="http://www.w3.org/1999/02/22-rdf-syntax-ns#">
   <cc:Work>
    <dc:type rdf:resource="http://purl.org/dc/dcmitype/StillImage"/>
    <dc:date>2021-05-18T19:29:05.073145</dc:date>
    <dc:format>image/svg+xml</dc:format>
    <dc:creator>
     <cc:Agent>
      <dc:title>Matplotlib v3.3.2, https://matplotlib.org/</dc:title>
     </cc:Agent>
    </dc:creator>
   </cc:Work>
  </rdf:RDF>
 </metadata>
 <defs>
  <style type="text/css">*{stroke-linecap:butt;stroke-linejoin:round;}</style>
 </defs>
 <g id="figure_1">
  <g id="patch_1">
   <path d="M 0 288 
L 432 288 
L 432 0 
L 0 0 
z
" style="fill:#ffffff;"/>
  </g>
  <g id="axes_1">
   <g id="patch_2">
    <path d="M 54 252 
L 388.8 252 
L 388.8 34.56 
L 54 34.56 
z
" style="fill:#ffffff;"/>
   </g>
   <g id="PolyCollection_1">
    <defs>
     <path d="M 54 -92.786136 
L 54 -45.883636 
L 57.893023 -47.982692 
L 61.786047 -49.253271 
L 65.67907 -50.217465 
L 69.572093 -51.092002 
L 73.465116 -51.931319 
L 77.35814 -52.767828 
L 81.251163 -53.730532 
L 85.144186 -54.869698 
L 89.037209 -56.06778 
L 92.930233 -57.212073 
L 96.823256 -58.307225 
L 100.716279 -59.37442 
L 104.609302 -60.408066 
L 108.502326 -61.458986 
L 112.395349 -62.530721 
L 116.288372 -63.617908 
L 120.181395 -64.683378 
L 124.074419 -65.738281 
L 127.967442 -66.873108 
L 131.860465 -68.1565 
L 135.753488 -69.478398 
L 139.646512 -70.798238 
L 143.539535 -72.010192 
L 147.432558 -73.112183 
L 151.325581 -74.10414 
L 155.218605 -74.963679 
L 159.111628 -75.738403 
L 163.004651 -76.501822 
L 166.897674 -77.310562 
L 170.790698 -78.193524 
L 174.683721 -79.165568 
L 178.576744 -80.235456 
L 182.469767 -81.388791 
L 186.362791 -82.530609 
L 190.255814 -83.535717 
L 194.148837 -84.363317 
L 198.04186 -85.107524 
L 201.934884 -85.842581 
L 205.827907 -86.57265 
L 209.72093 -87.353609 
L 213.613953 -88.250837 
L 217.506977 -89.260182 
L 221.4 -90.300044 
L 225.293023 -91.323334 
L 229.186047 -92.345535 
L 233.07907 -93.294621 
L 236.972093 -94.173147 
L 240.865116 -95.01382 
L 244.75814 -95.863718 
L 248.651163 -96.755208 
L 252.544186 -97.715346 
L 256.437209 -98.812731 
L 260.330233 -100.050136 
L 264.223256 -101.33923 
L 268.116279 -102.593315 
L 272.009302 -103.72428 
L 275.902326 -104.79409 
L 279.795349 -105.786149 
L 283.688372 -106.797625 
L 287.581395 -107.780848 
L 291.474419 -108.781925 
L 295.367442 -109.803049 
L 299.260465 -110.880739 
L 303.153488 -112.036084 
L 307.046512 -113.3306 
L 310.939535 -114.695302 
L 314.832558 -115.951191 
L 318.725581 -117.327066 
L 322.618605 -118.491041 
L 326.511628 -119.59638 
L 330.404651 -120.956736 
L 334.297674 -122.106863 
L 338.190698 -123.101319 
L 342.083721 -124.185438 
L 345.976744 -125.322382 
L 349.869767 -126.775318 
L 353.762791 -128.239415 
L 357.655814 -129.737805 
L 361.548837 -131.161652 
L 365.44186 -131.309987 
L 369.334884 -132.447429 
L 373.227907 -133.66181 
L 377.12093 -134.823303 
L 381.013953 -135.782643 
L 384.906977 -137.207047 
L 388.8 -138.624793 
L 388.8 -225.074071 
L 388.8 -225.074071 
L 384.906977 -223.160307 
L 381.013953 -221.168926 
L 377.12093 -219.208461 
L 373.227907 -217.477411 
L 369.334884 -215.567327 
L 365.44186 -213.611486 
L 361.548837 -212.063465 
L 357.655814 -209.7896 
L 353.762791 -207.551856 
L 349.869767 -205.256056 
L 345.976744 -203.121762 
L 342.083721 -201.249616 
L 338.190698 -199.405892 
L 334.297674 -197.634412 
L 330.404651 -195.915636 
L 326.511628 -194.124134 
L 322.618605 -192.372312 
L 318.725581 -190.484598 
L 314.832558 -188.428673 
L 310.939535 -186.508154 
L 307.046512 -184.540111 
L 303.153488 -182.663377 
L 299.260465 -180.988144 
L 295.367442 -179.388604 
L 291.474419 -177.856331 
L 287.581395 -176.34212 
L 283.688372 -174.847482 
L 279.795349 -173.308637 
L 275.902326 -171.787683 
L 272.009302 -170.16961 
L 268.116279 -168.499896 
L 264.223256 -166.713551 
L 260.330233 -164.92292 
L 256.437209 -163.209979 
L 252.544186 -161.659598 
L 248.651163 -160.247698 
L 244.75814 -158.904277 
L 240.865116 -157.596832 
L 236.972093 -156.28641 
L 233.07907 -154.921551 
L 229.186047 -153.456135 
L 225.293023 -151.925303 
L 221.4 -150.399846 
L 217.506977 -148.875684 
L 213.613953 -147.420242 
L 209.72093 -146.138 
L 205.827907 -144.987256 
L 201.934884 -143.881469 
L 198.04186 -142.755952 
L 194.148837 -141.580247 
L 190.255814 -140.274158 
L 186.362791 -138.777389 
L 182.469767 -137.168649 
L 178.576744 -135.59758 
L 174.683721 -134.166083 
L 170.790698 -132.879894 
L 166.897674 -131.708608 
L 163.004651 -130.613655 
L 159.111628 -129.550176 
L 155.218605 -128.450043 
L 151.325581 -127.243966 
L 147.432558 -125.896163 
L 143.539535 -124.444256 
L 139.646512 -122.892809 
L 135.753488 -121.265839 
L 131.860465 -119.650441 
L 127.967442 -118.137852 
L 124.074419 -116.817212 
L 120.181395 -115.618738 
L 116.288372 -114.469627 
L 112.395349 -113.347293 
L 108.502326 -112.253818 
L 104.609302 -111.19558 
L 100.716279 -110.162981 
L 96.823256 -109.115892 
L 92.930233 -108.07212 
L 89.037209 -106.999683 
L 85.144186 -105.872773 
L 81.251163 -104.77442 
L 77.35814 -103.759688 
L 73.465116 -102.73469 
L 69.572093 -101.546686 
L 65.67907 -100.113773 
L 61.786047 -98.332075 
L 57.893023 -95.993012 
L 54 -92.786136 
z
" id="m9583b084bd" style="stroke:#ff0000;stroke-opacity:0.1;"/>
    </defs>
    <g clip-path="url(#p9b64ac6662)">
     <use style="fill:#ff0000;fill-opacity:0.1;stroke:#ff0000;stroke-opacity:0.1;" x="0" xlink:href="#m9583b084bd" y="288"/>
    </g>
   </g>
   <g id="PolyCollection_2">
    <defs>
     <path d="M 54 -92.786136 
L 54 -45.883636 
L 57.893023 -47.97299 
L 61.786047 -49.333945 
L 65.67907 -50.412338 
L 69.572093 -51.400039 
L 73.465116 -52.34734 
L 77.35814 -53.285259 
L 81.251163 -54.323439 
L 85.144186 -55.514826 
L 89.037209 -56.755893 
L 92.930233 -57.943043 
L 96.823256 -59.087391 
L 100.716279 -60.227592 
L 104.609302 -61.367296 
L 108.502326 -62.550047 
L 112.395349 -63.775564 
L 116.288372 -65.035049 
L 120.181395 -66.279221 
L 124.074419 -67.505743 
L 127.967442 -68.804666 
L 131.860465 -70.244576 
L 135.753488 -71.714641 
L 139.646512 -73.162008 
L 143.539535 -74.51366 
L 147.432558 -75.770113 
L 151.325581 -76.928623 
L 155.218605 -77.96351 
L 159.111628 -78.922056 
L 163.004651 -79.874671 
L 166.897674 -80.87731 
L 170.790698 -81.957554 
L 174.683721 -83.147507 
L 178.576744 -84.431904 
L 182.469767 -85.787987 
L 186.362791 -87.132788 
L 190.255814 -88.335161 
L 194.148837 -89.361962 
L 198.04186 -90.302816 
L 201.934884 -91.215745 
L 205.827907 -92.11175 
L 209.72093 -93.050741 
L 213.613953 -94.09835 
L 217.506977 -95.270521 
L 221.4 -96.460135 
L 225.293023 -97.617597 
L 229.186047 -98.757932 
L 233.07907 -99.815237 
L 236.972093 -100.78104 
L 240.865116 -101.72543 
L 244.75814 -102.687202 
L 248.651163 -103.714221 
L 252.544186 -104.790362 
L 256.437209 -106.039424 
L 260.330233 -107.38891 
L 264.223256 -108.784334 
L 268.116279 -110.132791 
L 272.009302 -111.426654 
L 275.902326 -112.57666 
L 279.795349 -113.715856 
L 283.688372 -114.820638 
L 287.581395 -115.966988 
L 291.474419 -117.100447 
L 295.367442 -118.342621 
L 299.260465 -119.476854 
L 303.153488 -120.740806 
L 307.046512 -122.11984 
L 310.939535 -123.68476 
L 314.832558 -125.109394 
L 318.725581 -126.602022 
L 322.618605 -127.846314 
L 326.511628 -129.406707 
L 330.404651 -130.739282 
L 334.297674 -131.78654 
L 338.190698 -133.169399 
L 342.083721 -134.427843 
L 345.976744 -135.69137 
L 349.869767 -137.335687 
L 353.762791 -137.628908 
L 357.655814 -139.414843 
L 361.548837 -141.114528 
L 365.44186 -142.486856 
L 369.334884 -144.096734 
L 373.227907 -145.485404 
L 377.12093 -146.667246 
L 381.013953 -148.285598 
L 384.906977 -149.639139 
L 388.8 -151.121877 
L 388.8 -243.556364 
L 388.8 -243.556364 
L 384.906977 -241.079641 
L 381.013953 -238.889906 
L 377.12093 -236.663493 
L 373.227907 -234.683732 
L 369.334884 -232.579507 
L 365.44186 -230.171735 
L 361.548837 -227.944111 
L 357.655814 -225.481794 
L 353.762791 -223.105786 
L 349.869767 -220.691453 
L 345.976744 -218.466178 
L 342.083721 -216.406596 
L 338.190698 -214.486151 
L 334.297674 -212.460197 
L 330.404651 -210.498255 
L 326.511628 -208.468694 
L 322.618605 -206.294938 
L 318.725581 -204.185314 
L 314.832558 -201.97638 
L 310.939535 -199.71629 
L 307.046512 -197.585313 
L 303.153488 -195.539798 
L 299.260465 -193.560159 
L 295.367442 -191.728685 
L 291.474419 -189.918032 
L 287.581395 -188.10583 
L 283.688372 -186.383278 
L 279.795349 -184.663728 
L 275.902326 -182.928369 
L 272.009302 -181.164878 
L 268.116279 -179.258983 
L 264.223256 -177.317062 
L 260.330233 -175.362698 
L 256.437209 -173.482405 
L 252.544186 -171.717619 
L 248.651163 -170.136575 
L 244.75814 -168.607583 
L 240.865116 -167.141247 
L 236.972093 -165.674717 
L 233.07907 -164.166365 
L 229.186047 -162.555809 
L 225.293023 -160.870746 
L 221.4 -159.178481 
L 217.506977 -157.473191 
L 213.613953 -155.817956 
L 209.72093 -154.303986 
L 205.827907 -152.90096 
L 201.934884 -151.539732 
L 198.04186 -150.157393 
L 194.148837 -148.718657 
L 190.255814 -147.139889 
L 186.362791 -145.364777 
L 182.469767 -143.463384 
L 178.576744 -141.581675 
L 174.683721 -139.804505 
L 170.790698 -138.158965 
L 166.897674 -136.649765 
L 163.004651 -135.236014 
L 159.111628 -133.877522 
L 155.218605 -132.499892 
L 151.325581 -131.028036 
L 147.432558 -129.424429 
L 143.539535 -127.727878 
L 139.646512 -125.944777 
L 135.753488 -124.10305 
L 131.860465 -122.283295 
L 127.967442 -120.558745 
L 124.074419 -119.018714 
L 120.181395 -117.593644 
L 116.288372 -116.212322 
L 112.395349 -114.869095 
L 108.502326 -113.577314 
L 104.609302 -112.346603 
L 100.716279 -111.170535 
L 96.823256 -110.012878 
L 92.930233 -108.881393 
L 89.037209 -107.729195 
L 85.144186 -106.525237 
L 81.251163 -105.346312 
L 77.35814 -104.238225 
L 73.465116 -103.106159 
L 69.572093 -101.81692 
L 65.67907 -100.29202 
L 61.786047 -98.430005 
L 57.893023 -96.026228 
L 54 -92.786136 
z
" id="m5e81d8d3c8" style="stroke:#0000ff;stroke-opacity:0.1;"/>
    </defs>
    <g clip-path="url(#p9b64ac6662)">
     <use style="fill:#0000ff;fill-opacity:0.1;stroke:#0000ff;stroke-opacity:0.1;" x="0" xlink:href="#m5e81d8d3c8" y="288"/>
    </g>
   </g>
   <g id="matplotlib.axis_1">
    <g id="xtick_1">
     <g id="line2d_1">
      <defs>
       <path d="M 0 0 
L 0 3.5 
" id="m99ed46c050" style="stroke:#000000;stroke-width:0.8;"/>
      </defs>
      <g>
       <use style="stroke:#000000;stroke-width:0.8;" x="77.35814" xlink:href="#m99ed46c050" y="252"/>
      </g>
     </g>
     <g id="text_1">
      <!-- 2020 -->
      <g transform="translate(64.63314 266.598437)scale(0.1 -0.1)">
       <defs>
        <path d="M 19.1875 8.296875 
L 53.609375 8.296875 
L 53.609375 0 
L 7.328125 0 
L 7.328125 8.296875 
Q 12.9375 14.109375 22.625 23.890625 
Q 32.328125 33.6875 34.8125 36.53125 
Q 39.546875 41.84375 41.421875 45.53125 
Q 43.3125 49.21875 43.3125 52.78125 
Q 43.3125 58.59375 39.234375 62.25 
Q 35.15625 65.921875 28.609375 65.921875 
Q 23.96875 65.921875 18.8125 64.3125 
Q 13.671875 62.703125 7.8125 59.421875 
L 7.8125 69.390625 
Q 13.765625 71.78125 18.9375 73 
Q 24.125 74.21875 28.421875 74.21875 
Q 39.75 74.21875 46.484375 68.546875 
Q 53.21875 62.890625 53.21875 53.421875 
Q 53.21875 48.921875 51.53125 44.890625 
Q 49.859375 40.875 45.40625 35.40625 
Q 44.1875 33.984375 37.640625 27.21875 
Q 31.109375 20.453125 19.1875 8.296875 
z
" id="DejaVuSans-50"/>
        <path d="M 31.78125 66.40625 
Q 24.171875 66.40625 20.328125 58.90625 
Q 16.5 51.421875 16.5 36.375 
Q 16.5 21.390625 20.328125 13.890625 
Q 24.171875 6.390625 31.78125 6.390625 
Q 39.453125 6.390625 43.28125 13.890625 
Q 47.125 21.390625 47.125 36.375 
Q 47.125 51.421875 43.28125 58.90625 
Q 39.453125 66.40625 31.78125 66.40625 
z
M 31.78125 74.21875 
Q 44.046875 74.21875 50.515625 64.515625 
Q 56.984375 54.828125 56.984375 36.375 
Q 56.984375 17.96875 50.515625 8.265625 
Q 44.046875 -1.421875 31.78125 -1.421875 
Q 19.53125 -1.421875 13.0625 8.265625 
Q 6.59375 17.96875 6.59375 36.375 
Q 6.59375 54.828125 13.0625 64.515625 
Q 19.53125 74.21875 31.78125 74.21875 
z
" id="DejaVuSans-48"/>
       </defs>
       <use xlink:href="#DejaVuSans-50"/>
       <use x="63.623047" xlink:href="#DejaVuSans-48"/>
       <use x="127.246094" xlink:href="#DejaVuSans-50"/>
       <use x="190.869141" xlink:href="#DejaVuSans-48"/>
      </g>
     </g>
    </g>
    <g id="xtick_2">
     <g id="line2d_2">
      <g>
       <use style="stroke:#000000;stroke-width:0.8;" x="116.288372" xlink:href="#m99ed46c050" y="252"/>
      </g>
     </g>
     <g id="text_2">
      <!-- 2030 -->
      <g transform="translate(103.563372 266.598437)scale(0.1 -0.1)">
       <defs>
        <path d="M 40.578125 39.3125 
Q 47.65625 37.796875 51.625 33 
Q 55.609375 28.21875 55.609375 21.1875 
Q 55.609375 10.40625 48.1875 4.484375 
Q 40.765625 -1.421875 27.09375 -1.421875 
Q 22.515625 -1.421875 17.65625 -0.515625 
Q 12.796875 0.390625 7.625 2.203125 
L 7.625 11.71875 
Q 11.71875 9.328125 16.59375 8.109375 
Q 21.484375 6.890625 26.8125 6.890625 
Q 36.078125 6.890625 40.9375 10.546875 
Q 45.796875 14.203125 45.796875 21.1875 
Q 45.796875 27.640625 41.28125 31.265625 
Q 36.765625 34.90625 28.71875 34.90625 
L 20.21875 34.90625 
L 20.21875 43.015625 
L 29.109375 43.015625 
Q 36.375 43.015625 40.234375 45.921875 
Q 44.09375 48.828125 44.09375 54.296875 
Q 44.09375 59.90625 40.109375 62.90625 
Q 36.140625 65.921875 28.71875 65.921875 
Q 24.65625 65.921875 20.015625 65.03125 
Q 15.375 64.15625 9.8125 62.3125 
L 9.8125 71.09375 
Q 15.4375 72.65625 20.34375 73.4375 
Q 25.25 74.21875 29.59375 74.21875 
Q 40.828125 74.21875 47.359375 69.109375 
Q 53.90625 64.015625 53.90625 55.328125 
Q 53.90625 49.265625 50.4375 45.09375 
Q 46.96875 40.921875 40.578125 39.3125 
z
" id="DejaVuSans-51"/>
       </defs>
       <use xlink:href="#DejaVuSans-50"/>
       <use x="63.623047" xlink:href="#DejaVuSans-48"/>
       <use x="127.246094" xlink:href="#DejaVuSans-51"/>
       <use x="190.869141" xlink:href="#DejaVuSans-48"/>
      </g>
     </g>
    </g>
    <g id="xtick_3">
     <g id="line2d_3">
      <g>
       <use style="stroke:#000000;stroke-width:0.8;" x="155.218605" xlink:href="#m99ed46c050" y="252"/>
      </g>
     </g>
     <g id="text_3">
      <!-- 2040 -->
      <g transform="translate(142.493605 266.598437)scale(0.1 -0.1)">
       <defs>
        <path d="M 37.796875 64.3125 
L 12.890625 25.390625 
L 37.796875 25.390625 
z
M 35.203125 72.90625 
L 47.609375 72.90625 
L 47.609375 25.390625 
L 58.015625 25.390625 
L 58.015625 17.1875 
L 47.609375 17.1875 
L 47.609375 0 
L 37.796875 0 
L 37.796875 17.1875 
L 4.890625 17.1875 
L 4.890625 26.703125 
z
" id="DejaVuSans-52"/>
       </defs>
       <use xlink:href="#DejaVuSans-50"/>
       <use x="63.623047" xlink:href="#DejaVuSans-48"/>
       <use x="127.246094" xlink:href="#DejaVuSans-52"/>
       <use x="190.869141" xlink:href="#DejaVuSans-48"/>
      </g>
     </g>
    </g>
    <g id="xtick_4">
     <g id="line2d_4">
      <g>
       <use style="stroke:#000000;stroke-width:0.8;" x="194.148837" xlink:href="#m99ed46c050" y="252"/>
      </g>
     </g>
     <g id="text_4">
      <!-- 2050 -->
      <g transform="translate(181.423837 266.598437)scale(0.1 -0.1)">
       <defs>
        <path d="M 10.796875 72.90625 
L 49.515625 72.90625 
L 49.515625 64.59375 
L 19.828125 64.59375 
L 19.828125 46.734375 
Q 21.96875 47.46875 24.109375 47.828125 
Q 26.265625 48.1875 28.421875 48.1875 
Q 40.625 48.1875 47.75 41.5 
Q 54.890625 34.8125 54.890625 23.390625 
Q 54.890625 11.625 47.5625 5.09375 
Q 40.234375 -1.421875 26.90625 -1.421875 
Q 22.3125 -1.421875 17.546875 -0.640625 
Q 12.796875 0.140625 7.71875 1.703125 
L 7.71875 11.625 
Q 12.109375 9.234375 16.796875 8.0625 
Q 21.484375 6.890625 26.703125 6.890625 
Q 35.15625 6.890625 40.078125 11.328125 
Q 45.015625 15.765625 45.015625 23.390625 
Q 45.015625 31 40.078125 35.4375 
Q 35.15625 39.890625 26.703125 39.890625 
Q 22.75 39.890625 18.8125 39.015625 
Q 14.890625 38.140625 10.796875 36.28125 
z
" id="DejaVuSans-53"/>
       </defs>
       <use xlink:href="#DejaVuSans-50"/>
       <use x="63.623047" xlink:href="#DejaVuSans-48"/>
       <use x="127.246094" xlink:href="#DejaVuSans-53"/>
       <use x="190.869141" xlink:href="#DejaVuSans-48"/>
      </g>
     </g>
    </g>
    <g id="xtick_5">
     <g id="line2d_5">
      <g>
       <use style="stroke:#000000;stroke-width:0.8;" x="233.07907" xlink:href="#m99ed46c050" y="252"/>
      </g>
     </g>
     <g id="text_5">
      <!-- 2060 -->
      <g transform="translate(220.35407 266.598437)scale(0.1 -0.1)">
       <defs>
        <path d="M 33.015625 40.375 
Q 26.375 40.375 22.484375 35.828125 
Q 18.609375 31.296875 18.609375 23.390625 
Q 18.609375 15.53125 22.484375 10.953125 
Q 26.375 6.390625 33.015625 6.390625 
Q 39.65625 6.390625 43.53125 10.953125 
Q 47.40625 15.53125 47.40625 23.390625 
Q 47.40625 31.296875 43.53125 35.828125 
Q 39.65625 40.375 33.015625 40.375 
z
M 52.59375 71.296875 
L 52.59375 62.3125 
Q 48.875 64.0625 45.09375 64.984375 
Q 41.3125 65.921875 37.59375 65.921875 
Q 27.828125 65.921875 22.671875 59.328125 
Q 17.53125 52.734375 16.796875 39.40625 
Q 19.671875 43.65625 24.015625 45.921875 
Q 28.375 48.1875 33.59375 48.1875 
Q 44.578125 48.1875 50.953125 41.515625 
Q 57.328125 34.859375 57.328125 23.390625 
Q 57.328125 12.15625 50.6875 5.359375 
Q 44.046875 -1.421875 33.015625 -1.421875 
Q 20.359375 -1.421875 13.671875 8.265625 
Q 6.984375 17.96875 6.984375 36.375 
Q 6.984375 53.65625 15.1875 63.9375 
Q 23.390625 74.21875 37.203125 74.21875 
Q 40.921875 74.21875 44.703125 73.484375 
Q 48.484375 72.75 52.59375 71.296875 
z
" id="DejaVuSans-54"/>
       </defs>
       <use xlink:href="#DejaVuSans-50"/>
       <use x="63.623047" xlink:href="#DejaVuSans-48"/>
       <use x="127.246094" xlink:href="#DejaVuSans-54"/>
       <use x="190.869141" xlink:href="#DejaVuSans-48"/>
      </g>
     </g>
    </g>
    <g id="xtick_6">
     <g id="line2d_6">
      <g>
       <use style="stroke:#000000;stroke-width:0.8;" x="272.009302" xlink:href="#m99ed46c050" y="252"/>
      </g>
     </g>
     <g id="text_6">
      <!-- 2070 -->
      <g transform="translate(259.284302 266.598437)scale(0.1 -0.1)">
       <defs>
        <path d="M 8.203125 72.90625 
L 55.078125 72.90625 
L 55.078125 68.703125 
L 28.609375 0 
L 18.3125 0 
L 43.21875 64.59375 
L 8.203125 64.59375 
z
" id="DejaVuSans-55"/>
       </defs>
       <use xlink:href="#DejaVuSans-50"/>
       <use x="63.623047" xlink:href="#DejaVuSans-48"/>
       <use x="127.246094" xlink:href="#DejaVuSans-55"/>
       <use x="190.869141" xlink:href="#DejaVuSans-48"/>
      </g>
     </g>
    </g>
    <g id="xtick_7">
     <g id="line2d_7">
      <g>
       <use style="stroke:#000000;stroke-width:0.8;" x="310.939535" xlink:href="#m99ed46c050" y="252"/>
      </g>
     </g>
     <g id="text_7">
      <!-- 2080 -->
      <g transform="translate(298.214535 266.598437)scale(0.1 -0.1)">
       <defs>
        <path d="M 31.78125 34.625 
Q 24.75 34.625 20.71875 30.859375 
Q 16.703125 27.09375 16.703125 20.515625 
Q 16.703125 13.921875 20.71875 10.15625 
Q 24.75 6.390625 31.78125 6.390625 
Q 38.8125 6.390625 42.859375 10.171875 
Q 46.921875 13.96875 46.921875 20.515625 
Q 46.921875 27.09375 42.890625 30.859375 
Q 38.875 34.625 31.78125 34.625 
z
M 21.921875 38.8125 
Q 15.578125 40.375 12.03125 44.71875 
Q 8.5 49.078125 8.5 55.328125 
Q 8.5 64.0625 14.71875 69.140625 
Q 20.953125 74.21875 31.78125 74.21875 
Q 42.671875 74.21875 48.875 69.140625 
Q 55.078125 64.0625 55.078125 55.328125 
Q 55.078125 49.078125 51.53125 44.71875 
Q 48 40.375 41.703125 38.8125 
Q 48.828125 37.15625 52.796875 32.3125 
Q 56.78125 27.484375 56.78125 20.515625 
Q 56.78125 9.90625 50.3125 4.234375 
Q 43.84375 -1.421875 31.78125 -1.421875 
Q 19.734375 -1.421875 13.25 4.234375 
Q 6.78125 9.90625 6.78125 20.515625 
Q 6.78125 27.484375 10.78125 32.3125 
Q 14.796875 37.15625 21.921875 38.8125 
z
M 18.3125 54.390625 
Q 18.3125 48.734375 21.84375 45.5625 
Q 25.390625 42.390625 31.78125 42.390625 
Q 38.140625 42.390625 41.71875 45.5625 
Q 45.3125 48.734375 45.3125 54.390625 
Q 45.3125 60.0625 41.71875 63.234375 
Q 38.140625 66.40625 31.78125 66.40625 
Q 25.390625 66.40625 21.84375 63.234375 
Q 18.3125 60.0625 18.3125 54.390625 
z
" id="DejaVuSans-56"/>
       </defs>
       <use xlink:href="#DejaVuSans-50"/>
       <use x="63.623047" xlink:href="#DejaVuSans-48"/>
       <use x="127.246094" xlink:href="#DejaVuSans-56"/>
       <use x="190.869141" xlink:href="#DejaVuSans-48"/>
      </g>
     </g>
    </g>
    <g id="xtick_8">
     <g id="line2d_8">
      <g>
       <use style="stroke:#000000;stroke-width:0.8;" x="349.869767" xlink:href="#m99ed46c050" y="252"/>
      </g>
     </g>
     <g id="text_8">
      <!-- 2090 -->
      <g transform="translate(337.144767 266.598437)scale(0.1 -0.1)">
       <defs>
        <path d="M 10.984375 1.515625 
L 10.984375 10.5 
Q 14.703125 8.734375 18.5 7.8125 
Q 22.3125 6.890625 25.984375 6.890625 
Q 35.75 6.890625 40.890625 13.453125 
Q 46.046875 20.015625 46.78125 33.40625 
Q 43.953125 29.203125 39.59375 26.953125 
Q 35.25 24.703125 29.984375 24.703125 
Q 19.046875 24.703125 12.671875 31.3125 
Q 6.296875 37.9375 6.296875 49.421875 
Q 6.296875 60.640625 12.9375 67.421875 
Q 19.578125 74.21875 30.609375 74.21875 
Q 43.265625 74.21875 49.921875 64.515625 
Q 56.59375 54.828125 56.59375 36.375 
Q 56.59375 19.140625 48.40625 8.859375 
Q 40.234375 -1.421875 26.421875 -1.421875 
Q 22.703125 -1.421875 18.890625 -0.6875 
Q 15.09375 0.046875 10.984375 1.515625 
z
M 30.609375 32.421875 
Q 37.25 32.421875 41.125 36.953125 
Q 45.015625 41.5 45.015625 49.421875 
Q 45.015625 57.28125 41.125 61.84375 
Q 37.25 66.40625 30.609375 66.40625 
Q 23.96875 66.40625 20.09375 61.84375 
Q 16.21875 57.28125 16.21875 49.421875 
Q 16.21875 41.5 20.09375 36.953125 
Q 23.96875 32.421875 30.609375 32.421875 
z
" id="DejaVuSans-57"/>
       </defs>
       <use xlink:href="#DejaVuSans-50"/>
       <use x="63.623047" xlink:href="#DejaVuSans-48"/>
       <use x="127.246094" xlink:href="#DejaVuSans-57"/>
       <use x="190.869141" xlink:href="#DejaVuSans-48"/>
      </g>
     </g>
    </g>
    <g id="xtick_9">
     <g id="line2d_9">
      <g>
       <use style="stroke:#000000;stroke-width:0.8;" x="388.8" xlink:href="#m99ed46c050" y="252"/>
      </g>
     </g>
     <g id="text_9">
      <!-- 2100 -->
      <g transform="translate(376.075 266.598437)scale(0.1 -0.1)">
       <defs>
        <path d="M 12.40625 8.296875 
L 28.515625 8.296875 
L 28.515625 63.921875 
L 10.984375 60.40625 
L 10.984375 69.390625 
L 28.421875 72.90625 
L 38.28125 72.90625 
L 38.28125 8.296875 
L 54.390625 8.296875 
L 54.390625 0 
L 12.40625 0 
z
" id="DejaVuSans-49"/>
       </defs>
       <use xlink:href="#DejaVuSans-50"/>
       <use x="63.623047" xlink:href="#DejaVuSans-49"/>
       <use x="127.246094" xlink:href="#DejaVuSans-48"/>
       <use x="190.869141" xlink:href="#DejaVuSans-48"/>
      </g>
     </g>
    </g>
    <g id="text_10">
     <!-- year -->
     <g transform="translate(210.244531 280.276563)scale(0.1 -0.1)">
      <defs>
       <path d="M 32.171875 -5.078125 
Q 28.375 -14.84375 24.75 -17.8125 
Q 21.140625 -20.796875 15.09375 -20.796875 
L 7.90625 -20.796875 
L 7.90625 -13.28125 
L 13.1875 -13.28125 
Q 16.890625 -13.28125 18.9375 -11.515625 
Q 21 -9.765625 23.484375 -3.21875 
L 25.09375 0.875 
L 2.984375 54.6875 
L 12.5 54.6875 
L 29.59375 11.921875 
L 46.6875 54.6875 
L 56.203125 54.6875 
z
" id="DejaVuSans-121"/>
       <path d="M 56.203125 29.59375 
L 56.203125 25.203125 
L 14.890625 25.203125 
Q 15.484375 15.921875 20.484375 11.0625 
Q 25.484375 6.203125 34.421875 6.203125 
Q 39.59375 6.203125 44.453125 7.46875 
Q 49.3125 8.734375 54.109375 11.28125 
L 54.109375 2.78125 
Q 49.265625 0.734375 44.1875 -0.34375 
Q 39.109375 -1.421875 33.890625 -1.421875 
Q 20.796875 -1.421875 13.15625 6.1875 
Q 5.515625 13.8125 5.515625 26.8125 
Q 5.515625 40.234375 12.765625 48.109375 
Q 20.015625 56 32.328125 56 
Q 43.359375 56 49.78125 48.890625 
Q 56.203125 41.796875 56.203125 29.59375 
z
M 47.21875 32.234375 
Q 47.125 39.59375 43.09375 43.984375 
Q 39.0625 48.390625 32.421875 48.390625 
Q 24.90625 48.390625 20.390625 44.140625 
Q 15.875 39.890625 15.1875 32.171875 
z
" id="DejaVuSans-101"/>
       <path d="M 34.28125 27.484375 
Q 23.390625 27.484375 19.1875 25 
Q 14.984375 22.515625 14.984375 16.5 
Q 14.984375 11.71875 18.140625 8.90625 
Q 21.296875 6.109375 26.703125 6.109375 
Q 34.1875 6.109375 38.703125 11.40625 
Q 43.21875 16.703125 43.21875 25.484375 
L 43.21875 27.484375 
z
M 52.203125 31.203125 
L 52.203125 0 
L 43.21875 0 
L 43.21875 8.296875 
Q 40.140625 3.328125 35.546875 0.953125 
Q 30.953125 -1.421875 24.3125 -1.421875 
Q 15.921875 -1.421875 10.953125 3.296875 
Q 6 8.015625 6 15.921875 
Q 6 25.140625 12.171875 29.828125 
Q 18.359375 34.515625 30.609375 34.515625 
L 43.21875 34.515625 
L 43.21875 35.40625 
Q 43.21875 41.609375 39.140625 45 
Q 35.0625 48.390625 27.6875 48.390625 
Q 23 48.390625 18.546875 47.265625 
Q 14.109375 46.140625 10.015625 43.890625 
L 10.015625 52.203125 
Q 14.9375 54.109375 19.578125 55.046875 
Q 24.21875 56 28.609375 56 
Q 40.484375 56 46.34375 49.84375 
Q 52.203125 43.703125 52.203125 31.203125 
z
" id="DejaVuSans-97"/>
       <path d="M 41.109375 46.296875 
Q 39.59375 47.171875 37.8125 47.578125 
Q 36.03125 48 33.890625 48 
Q 26.265625 48 22.1875 43.046875 
Q 18.109375 38.09375 18.109375 28.8125 
L 18.109375 0 
L 9.078125 0 
L 9.078125 54.6875 
L 18.109375 54.6875 
L 18.109375 46.1875 
Q 20.953125 51.171875 25.484375 53.578125 
Q 30.03125 56 36.53125 56 
Q 37.453125 56 38.578125 55.875 
Q 39.703125 55.765625 41.0625 55.515625 
z
" id="DejaVuSans-114"/>
      </defs>
      <use xlink:href="#DejaVuSans-121"/>
      <use x="59.179688" xlink:href="#DejaVuSans-101"/>
      <use x="120.703125" xlink:href="#DejaVuSans-97"/>
      <use x="181.982422" xlink:href="#DejaVuSans-114"/>
     </g>
    </g>
   </g>
   <g id="matplotlib.axis_2">
    <g id="ytick_1">
     <g id="line2d_10">
      <defs>
       <path d="M 0 0 
L -3.5 0 
" id="mea03803bd1" style="stroke:#000000;stroke-width:0.8;"/>
      </defs>
      <g>
       <use style="stroke:#000000;stroke-width:0.8;" x="54" xlink:href="#mea03803bd1" y="231.792116"/>
      </g>
     </g>
     <g id="text_11">
      <!-- 1.5 -->
      <g transform="translate(31.096875 235.591335)scale(0.1 -0.1)">
       <defs>
        <path d="M 10.6875 12.40625 
L 21 12.40625 
L 21 0 
L 10.6875 0 
z
" id="DejaVuSans-46"/>
       </defs>
       <use xlink:href="#DejaVuSans-49"/>
       <use x="63.623047" xlink:href="#DejaVuSans-46"/>
       <use x="95.410156" xlink:href="#DejaVuSans-53"/>
      </g>
     </g>
    </g>
    <g id="ytick_2">
     <g id="line2d_11">
      <g>
       <use style="stroke:#000000;stroke-width:0.8;" x="54" xlink:href="#mea03803bd1" y="206.405937"/>
      </g>
     </g>
     <g id="text_12">
      <!-- 2.0 -->
      <g transform="translate(31.096875 210.205156)scale(0.1 -0.1)">
       <use xlink:href="#DejaVuSans-50"/>
       <use x="63.623047" xlink:href="#DejaVuSans-46"/>
       <use x="95.410156" xlink:href="#DejaVuSans-48"/>
      </g>
     </g>
    </g>
    <g id="ytick_3">
     <g id="line2d_12">
      <g>
       <use style="stroke:#000000;stroke-width:0.8;" x="54" xlink:href="#mea03803bd1" y="181.019758"/>
      </g>
     </g>
     <g id="text_13">
      <!-- 2.5 -->
      <g transform="translate(31.096875 184.818976)scale(0.1 -0.1)">
       <use xlink:href="#DejaVuSans-50"/>
       <use x="63.623047" xlink:href="#DejaVuSans-46"/>
       <use x="95.410156" xlink:href="#DejaVuSans-53"/>
      </g>
     </g>
    </g>
    <g id="ytick_4">
     <g id="line2d_13">
      <g>
       <use style="stroke:#000000;stroke-width:0.8;" x="54" xlink:href="#mea03803bd1" y="155.633579"/>
      </g>
     </g>
     <g id="text_14">
      <!-- 3.0 -->
      <g transform="translate(31.096875 159.432797)scale(0.1 -0.1)">
       <use xlink:href="#DejaVuSans-51"/>
       <use x="63.623047" xlink:href="#DejaVuSans-46"/>
       <use x="95.410156" xlink:href="#DejaVuSans-48"/>
      </g>
     </g>
    </g>
    <g id="ytick_5">
     <g id="line2d_14">
      <g>
       <use style="stroke:#000000;stroke-width:0.8;" x="54" xlink:href="#mea03803bd1" y="130.247399"/>
      </g>
     </g>
     <g id="text_15">
      <!-- 3.5 -->
      <g transform="translate(31.096875 134.046618)scale(0.1 -0.1)">
       <use xlink:href="#DejaVuSans-51"/>
       <use x="63.623047" xlink:href="#DejaVuSans-46"/>
       <use x="95.410156" xlink:href="#DejaVuSans-53"/>
      </g>
     </g>
    </g>
    <g id="ytick_6">
     <g id="line2d_15">
      <g>
       <use style="stroke:#000000;stroke-width:0.8;" x="54" xlink:href="#mea03803bd1" y="104.86122"/>
      </g>
     </g>
     <g id="text_16">
      <!-- 4.0 -->
      <g transform="translate(31.096875 108.660439)scale(0.1 -0.1)">
       <use xlink:href="#DejaVuSans-52"/>
       <use x="63.623047" xlink:href="#DejaVuSans-46"/>
       <use x="95.410156" xlink:href="#DejaVuSans-48"/>
      </g>
     </g>
    </g>
    <g id="ytick_7">
     <g id="line2d_16">
      <g>
       <use style="stroke:#000000;stroke-width:0.8;" x="54" xlink:href="#mea03803bd1" y="79.475041"/>
      </g>
     </g>
     <g id="text_17">
      <!-- 4.5 -->
      <g transform="translate(31.096875 83.27426)scale(0.1 -0.1)">
       <use xlink:href="#DejaVuSans-52"/>
       <use x="63.623047" xlink:href="#DejaVuSans-46"/>
       <use x="95.410156" xlink:href="#DejaVuSans-53"/>
      </g>
     </g>
    </g>
    <g id="ytick_8">
     <g id="line2d_17">
      <g>
       <use style="stroke:#000000;stroke-width:0.8;" x="54" xlink:href="#mea03803bd1" y="54.088862"/>
      </g>
     </g>
     <g id="text_18">
      <!-- 5.0 -->
      <g transform="translate(31.096875 57.888081)scale(0.1 -0.1)">
       <use xlink:href="#DejaVuSans-53"/>
       <use x="63.623047" xlink:href="#DejaVuSans-46"/>
       <use x="95.410156" xlink:href="#DejaVuSans-48"/>
      </g>
     </g>
    </g>
    <g id="text_19">
     <!-- D_Tg/K -->
     <g transform="translate(24.739062 160.821406)rotate(-90)scale(0.1 -0.1)">
      <defs>
       <path d="M 19.671875 64.796875 
L 19.671875 8.109375 
L 31.59375 8.109375 
Q 46.6875 8.109375 53.6875 14.9375 
Q 60.6875 21.78125 60.6875 36.53125 
Q 60.6875 51.171875 53.6875 57.984375 
Q 46.6875 64.796875 31.59375 64.796875 
z
M 9.8125 72.90625 
L 30.078125 72.90625 
Q 51.265625 72.90625 61.171875 64.09375 
Q 71.09375 55.28125 71.09375 36.53125 
Q 71.09375 17.671875 61.125 8.828125 
Q 51.171875 0 30.078125 0 
L 9.8125 0 
z
" id="DejaVuSans-68"/>
       <path d="M 50.984375 -16.609375 
L 50.984375 -23.578125 
L -0.984375 -23.578125 
L -0.984375 -16.609375 
z
" id="DejaVuSans-95"/>
       <path d="M -0.296875 72.90625 
L 61.375 72.90625 
L 61.375 64.59375 
L 35.5 64.59375 
L 35.5 0 
L 25.59375 0 
L 25.59375 64.59375 
L -0.296875 64.59375 
z
" id="DejaVuSans-84"/>
       <path d="M 45.40625 27.984375 
Q 45.40625 37.75 41.375 43.109375 
Q 37.359375 48.484375 30.078125 48.484375 
Q 22.859375 48.484375 18.828125 43.109375 
Q 14.796875 37.75 14.796875 27.984375 
Q 14.796875 18.265625 18.828125 12.890625 
Q 22.859375 7.515625 30.078125 7.515625 
Q 37.359375 7.515625 41.375 12.890625 
Q 45.40625 18.265625 45.40625 27.984375 
z
M 54.390625 6.78125 
Q 54.390625 -7.171875 48.1875 -13.984375 
Q 42 -20.796875 29.203125 -20.796875 
Q 24.46875 -20.796875 20.265625 -20.09375 
Q 16.0625 -19.390625 12.109375 -17.921875 
L 12.109375 -9.1875 
Q 16.0625 -11.328125 19.921875 -12.34375 
Q 23.78125 -13.375 27.78125 -13.375 
Q 36.625 -13.375 41.015625 -8.765625 
Q 45.40625 -4.15625 45.40625 5.171875 
L 45.40625 9.625 
Q 42.625 4.78125 38.28125 2.390625 
Q 33.9375 0 27.875 0 
Q 17.828125 0 11.671875 7.65625 
Q 5.515625 15.328125 5.515625 27.984375 
Q 5.515625 40.671875 11.671875 48.328125 
Q 17.828125 56 27.875 56 
Q 33.9375 56 38.28125 53.609375 
Q 42.625 51.21875 45.40625 46.390625 
L 45.40625 54.6875 
L 54.390625 54.6875 
z
" id="DejaVuSans-103"/>
       <path d="M 25.390625 72.90625 
L 33.6875 72.90625 
L 8.296875 -9.28125 
L 0 -9.28125 
z
" id="DejaVuSans-47"/>
       <path d="M 9.8125 72.90625 
L 19.671875 72.90625 
L 19.671875 42.09375 
L 52.390625 72.90625 
L 65.09375 72.90625 
L 28.90625 38.921875 
L 67.671875 0 
L 54.6875 0 
L 19.671875 35.109375 
L 19.671875 0 
L 9.8125 0 
z
" id="DejaVuSans-75"/>
      </defs>
      <use xlink:href="#DejaVuSans-68"/>
      <use x="77.001953" xlink:href="#DejaVuSans-95"/>
      <use x="127.001953" xlink:href="#DejaVuSans-84"/>
      <use x="188.085938" xlink:href="#DejaVuSans-103"/>
      <use x="251.5625" xlink:href="#DejaVuSans-47"/>
      <use x="285.253906" xlink:href="#DejaVuSans-75"/>
     </g>
    </g>
   </g>
   <g id="line2d_18">
    <path clip-path="url(#p9b64ac6662)" d="M 54 218.665114 
L 57.893023 216.012148 
L 61.786047 214.20733 
L 65.67907 212.834385 
L 69.572093 211.680656 
L 73.465116 210.666995 
L 77.35814 209.736242 
L 81.251163 208.747524 
L 85.144186 207.628767 
L 89.037209 206.466268 
L 92.930233 205.357904 
L 96.823256 204.288445 
L 100.716279 203.231297 
L 104.609302 202.198177 
L 108.502326 201.143595 
L 112.395349 200.06099 
L 116.288372 198.956232 
L 120.181395 197.848945 
L 124.074419 196.722253 
L 127.967442 195.49452 
L 131.860465 194.09653 
L 135.753488 192.627882 
L 139.646512 191.154476 
L 143.539535 189.772779 
L 147.432558 188.495827 
L 151.325581 187.325944 
L 155.218605 186.293139 
L 159.111628 185.35571 
L 163.004651 184.442261 
L 166.897674 183.490415 
L 170.790698 182.463288 
L 174.683721 181.334175 
L 178.576744 180.083479 
L 182.469767 178.721283 
L 186.362791 177.346001 
L 190.255814 176.095063 
L 194.148837 175.028218 
L 198.04186 174.068262 
L 201.934884 173.137975 
L 205.827907 172.220047 
L 209.72093 171.254195 
L 213.613953 170.16446 
L 217.506977 168.932067 
L 221.4 167.650055 
L 225.293023 166.375681 
L 229.186047 165.099165 
L 233.07907 163.891914 
L 236.972093 162.770221 
L 240.865116 161.694674 
L 244.75814 160.616003 
L 248.651163 159.498547 
L 252.544186 158.312528 
L 256.437209 156.988645 
L 260.330233 155.513472 
L 264.223256 153.97361 
L 268.116279 152.453394 
L 272.009302 151.053055 
L 275.902326 149.709113 
L 279.795349 148.452607 
L 283.688372 147.177446 
L 287.581395 145.938516 
L 291.474419 144.680872 
L 295.367442 143.404174 
L 299.260465 142.065559 
L 303.153488 140.65027 
L 307.046512 139.06465 
L 310.939535 137.398266 
L 314.832558 135.810068 
L 318.725581 134.094162 
L 322.618605 132.568317 
L 326.511628 131.139737 
L 330.404651 129.563814 
L 334.297674 128.129363 
L 338.190698 126.746394 
L 342.083721 125.282467 
L 345.976744 123.777928 
L 349.869767 121.984307 
L 353.762791 120.104365 
L 357.655814 118.236298 
L 361.548837 116.387441 
L 365.44186 115.539263 
L 369.334884 113.992622 
L 373.227907 112.43039 
L 377.12093 110.984124 
L 381.013953 109.524216 
L 384.906977 107.816323 
L 388.8 106.150568 
" style="fill:none;stroke:#ff0000;stroke-dasharray:5.55,2.4;stroke-dashoffset:0;stroke-width:1.5;"/>
   </g>
   <g id="line2d_19">
    <path clip-path="url(#p9b64ac6662)" d="M 54 218.665114 
L 57.893023 216.000394 
L 61.786047 214.118025 
L 65.67907 212.647821 
L 69.572093 211.39152 
L 73.465116 210.273254 
L 77.35814 209.238258 
L 81.251163 208.165125 
L 85.144186 206.979971 
L 89.037209 205.757456 
L 92.930233 204.587779 
L 96.823256 203.449866 
L 100.716279 202.300937 
L 104.609302 201.14305 
L 108.502326 199.93632 
L 112.395349 198.677671 
L 116.288372 197.376315 
L 120.181395 196.063568 
L 124.074419 194.737772 
L 127.967442 193.318294 
L 131.860465 191.736065 
L 135.753488 190.091155 
L 139.646512 188.446608 
L 143.539535 186.879231 
L 147.432558 185.402726 
L 151.325581 184.021671 
L 155.218605 182.768299 
L 159.111628 181.600208 
L 163.004651 180.444658 
L 166.897674 179.236462 
L 170.790698 177.94174 
L 174.683721 176.523994 
L 178.576744 174.993211 
L 182.469767 173.374314 
L 186.362791 171.751218 
L 190.255814 170.262475 
L 194.148837 168.959691 
L 198.04186 167.769895 
L 201.934884 166.622262 
L 205.827907 165.493645 
L 209.72093 164.322637 
L 213.613953 163.041847 
L 217.506977 161.628144 
L 221.4 160.180692 
L 225.293023 158.755828 
L 229.186047 157.34313 
L 233.07907 156.009199 
L 236.972093 154.772121 
L 240.865116 153.566661 
L 244.75814 152.352607 
L 248.651163 151.074602 
L 252.544186 149.74601 
L 256.437209 148.239085 
L 260.330233 146.624196 
L 264.223256 144.949302 
L 268.116279 143.304113 
L 272.009302 141.704234 
L 275.902326 140.247485 
L 279.795349 138.810202 
L 283.688372 137.398048 
L 287.581395 135.963585 
L 291.474419 134.49076 
L 295.367442 132.964347 
L 299.260465 131.481487 
L 303.153488 129.859698 
L 307.046512 128.147423 
L 310.939535 126.299475 
L 314.832558 124.457107 
L 318.725581 122.606326 
L 322.618605 120.929374 
L 326.511628 119.062299 
L 330.404651 117.381232 
L 334.297674 115.876631 
L 338.190698 114.172225 
L 342.083721 112.58278 
L 345.976744 110.921226 
L 349.869767 108.986436 
L 353.762791 107.632653 
L 357.655814 105.551682 
L 361.548837 103.470686 
L 365.44186 101.67071 
L 369.334884 99.661873 
L 373.227907 97.915426 
L 377.12093 96.334624 
L 381.013953 94.412242 
L 384.906977 92.640616 
L 388.8 90.66088 
" style="fill:none;stroke:#0000ff;stroke-linecap:square;stroke-width:1.5;"/>
   </g>
   <g id="patch_3">
    <path d="M 54 252 
L 54 34.56 
" style="fill:none;stroke:#000000;stroke-linecap:square;stroke-linejoin:miter;stroke-width:0.8;"/>
   </g>
   <g id="patch_4">
    <path d="M 388.8 252 
L 388.8 34.56 
" style="fill:none;stroke:#000000;stroke-linecap:square;stroke-linejoin:miter;stroke-width:0.8;"/>
   </g>
   <g id="patch_5">
    <path d="M 54 252 
L 388.8 252 
" style="fill:none;stroke:#000000;stroke-linecap:square;stroke-linejoin:miter;stroke-width:0.8;"/>
   </g>
   <g id="patch_6">
    <path d="M 54 34.56 
L 388.8 34.56 
" style="fill:none;stroke:#000000;stroke-linecap:square;stroke-linejoin:miter;stroke-width:0.8;"/>
   </g>
   <g id="legend_1">
    <g id="patch_7">
     <path d="M 61 72.194375 
L 165.542188 72.194375 
Q 167.542188 72.194375 167.542188 70.194375 
L 167.542188 41.56 
Q 167.542188 39.56 165.542188 39.56 
L 61 39.56 
Q 59 39.56 59 41.56 
L 59 70.194375 
Q 59 72.194375 61 72.194375 
z
" style="fill:#ffffff;opacity:0.8;stroke:#cccccc;stroke-linejoin:miter;"/>
    </g>
    <g id="line2d_20">
     <path d="M 63 47.658437 
L 83 47.658437 
" style="fill:none;stroke:#ff0000;stroke-dasharray:5.55,2.4;stroke-dashoffset:0;stroke-width:1.5;"/>
    </g>
    <g id="line2d_21"/>
    <g id="text_20">
     <!-- CD-LINKS NDC -->
     <g transform="translate(91 51.158437)scale(0.1 -0.1)">
      <defs>
       <path d="M 64.40625 67.28125 
L 64.40625 56.890625 
Q 59.421875 61.53125 53.78125 63.8125 
Q 48.140625 66.109375 41.796875 66.109375 
Q 29.296875 66.109375 22.65625 58.46875 
Q 16.015625 50.828125 16.015625 36.375 
Q 16.015625 21.96875 22.65625 14.328125 
Q 29.296875 6.6875 41.796875 6.6875 
Q 48.140625 6.6875 53.78125 8.984375 
Q 59.421875 11.28125 64.40625 15.921875 
L 64.40625 5.609375 
Q 59.234375 2.09375 53.4375 0.328125 
Q 47.65625 -1.421875 41.21875 -1.421875 
Q 24.65625 -1.421875 15.125 8.703125 
Q 5.609375 18.84375 5.609375 36.375 
Q 5.609375 53.953125 15.125 64.078125 
Q 24.65625 74.21875 41.21875 74.21875 
Q 47.75 74.21875 53.53125 72.484375 
Q 59.328125 70.75 64.40625 67.28125 
z
" id="DejaVuSans-67"/>
       <path d="M 4.890625 31.390625 
L 31.203125 31.390625 
L 31.203125 23.390625 
L 4.890625 23.390625 
z
" id="DejaVuSans-45"/>
       <path d="M 9.8125 72.90625 
L 19.671875 72.90625 
L 19.671875 8.296875 
L 55.171875 8.296875 
L 55.171875 0 
L 9.8125 0 
z
" id="DejaVuSans-76"/>
       <path d="M 9.8125 72.90625 
L 19.671875 72.90625 
L 19.671875 0 
L 9.8125 0 
z
" id="DejaVuSans-73"/>
       <path d="M 9.8125 72.90625 
L 23.09375 72.90625 
L 55.421875 11.921875 
L 55.421875 72.90625 
L 64.984375 72.90625 
L 64.984375 0 
L 51.703125 0 
L 19.390625 60.984375 
L 19.390625 0 
L 9.8125 0 
z
" id="DejaVuSans-78"/>
       <path d="M 53.515625 70.515625 
L 53.515625 60.890625 
Q 47.90625 63.578125 42.921875 64.890625 
Q 37.9375 66.21875 33.296875 66.21875 
Q 25.25 66.21875 20.875 63.09375 
Q 16.5 59.96875 16.5 54.203125 
Q 16.5 49.359375 19.40625 46.890625 
Q 22.3125 44.4375 30.421875 42.921875 
L 36.375 41.703125 
Q 47.40625 39.59375 52.65625 34.296875 
Q 57.90625 29 57.90625 20.125 
Q 57.90625 9.515625 50.796875 4.046875 
Q 43.703125 -1.421875 29.984375 -1.421875 
Q 24.8125 -1.421875 18.96875 -0.25 
Q 13.140625 0.921875 6.890625 3.21875 
L 6.890625 13.375 
Q 12.890625 10.015625 18.65625 8.296875 
Q 24.421875 6.59375 29.984375 6.59375 
Q 38.421875 6.59375 43.015625 9.90625 
Q 47.609375 13.234375 47.609375 19.390625 
Q 47.609375 24.75 44.3125 27.78125 
Q 41.015625 30.8125 33.5 32.328125 
L 27.484375 33.5 
Q 16.453125 35.6875 11.515625 40.375 
Q 6.59375 45.0625 6.59375 53.421875 
Q 6.59375 63.09375 13.40625 68.65625 
Q 20.21875 74.21875 32.171875 74.21875 
Q 37.3125 74.21875 42.625 73.28125 
Q 47.953125 72.359375 53.515625 70.515625 
z
" id="DejaVuSans-83"/>
       <path id="DejaVuSans-32"/>
      </defs>
      <use xlink:href="#DejaVuSans-67"/>
      <use x="69.824219" xlink:href="#DejaVuSans-68"/>
      <use x="146.826172" xlink:href="#DejaVuSans-45"/>
      <use x="182.910156" xlink:href="#DejaVuSans-76"/>
      <use x="238.623047" xlink:href="#DejaVuSans-73"/>
      <use x="268.115234" xlink:href="#DejaVuSans-78"/>
      <use x="342.919922" xlink:href="#DejaVuSans-75"/>
      <use x="408.496094" xlink:href="#DejaVuSans-83"/>
      <use x="471.972656" xlink:href="#DejaVuSans-32"/>
      <use x="503.759766" xlink:href="#DejaVuSans-78"/>
      <use x="578.564453" xlink:href="#DejaVuSans-68"/>
      <use x="655.566406" xlink:href="#DejaVuSans-67"/>
     </g>
    </g>
    <g id="line2d_22">
     <path d="M 63 62.336562 
L 83 62.336562 
" style="fill:none;stroke:#0000ff;stroke-linecap:square;stroke-width:1.5;"/>
    </g>
    <g id="line2d_23"/>
    <g id="text_21">
     <!-- CD-LINKS_NP -->
     <g transform="translate(91 65.836562)scale(0.1 -0.1)">
      <defs>
       <path d="M 19.671875 64.796875 
L 19.671875 37.40625 
L 32.078125 37.40625 
Q 38.96875 37.40625 42.71875 40.96875 
Q 46.484375 44.53125 46.484375 51.125 
Q 46.484375 57.671875 42.71875 61.234375 
Q 38.96875 64.796875 32.078125 64.796875 
z
M 9.8125 72.90625 
L 32.078125 72.90625 
Q 44.34375 72.90625 50.609375 67.359375 
Q 56.890625 61.8125 56.890625 51.125 
Q 56.890625 40.328125 50.609375 34.8125 
Q 44.34375 29.296875 32.078125 29.296875 
L 19.671875 29.296875 
L 19.671875 0 
L 9.8125 0 
z
" id="DejaVuSans-80"/>
      </defs>
      <use xlink:href="#DejaVuSans-67"/>
      <use x="69.824219" xlink:href="#DejaVuSans-68"/>
      <use x="146.826172" xlink:href="#DejaVuSans-45"/>
      <use x="182.910156" xlink:href="#DejaVuSans-76"/>
      <use x="238.623047" xlink:href="#DejaVuSans-73"/>
      <use x="268.115234" xlink:href="#DejaVuSans-78"/>
      <use x="342.919922" xlink:href="#DejaVuSans-75"/>
      <use x="408.496094" xlink:href="#DejaVuSans-83"/>
      <use x="471.972656" xlink:href="#DejaVuSans-95"/>
      <use x="521.972656" xlink:href="#DejaVuSans-78"/>
      <use x="596.777344" xlink:href="#DejaVuSans-80"/>
     </g>
    </g>
   </g>
  </g>
 </g>
 <defs>
  <clipPath id="p9b64ac6662">
   <rect height="217.44" width="334.8" x="54" y="34.56"/>
  </clipPath>
 </defs>
</svg>
