<?xml version="1.0" encoding="utf-8" standalone="no"?>
<!DOCTYPE svg PUBLIC "-//W3C//DTD SVG 1.1//EN"
  "http://www.w3.org/Graphics/SVG/1.1/DTD/svg11.dtd">
<!-- Created with matplotlib (https://matplotlib.org/) -->
<svg height="288pt" version="1.1" viewBox="0 0 432 288" width="432pt" xmlns="http://www.w3.org/2000/svg" xmlns:xlink="http://www.w3.org/1999/xlink">
 <metadata>
  <rdf:RDF xmlns:cc="http://creativecommons.org/ns#" xmlns:dc="http://purl.org/dc/elements/1.1/" xmlns:rdf="http://www.w3.org/1999/02/22-rdf-syntax-ns#">
   <cc:Work>
    <dc:type rdf:resource="http://purl.org/dc/dcmitype/StillImage"/>
    <dc:date>2021-05-03T22:30:15.314591</dc:date>
    <dc:format>image/svg+xml</dc:format>
    <dc:creator>
     <cc:Agent>
      <dc:title>Matplotlib v3.3.2, https://matplotlib.org/</dc:title>
     </cc:Agent>
    </dc:creator>
   </cc:Work>
  </rdf:RDF>
 </metadata>
 <defs>
  <style type="text/css">*{stroke-linecap:butt;stroke-linejoin:round;}</style>
 </defs>
 <g id="figure_1">
  <g id="patch_1">
   <path d="M 0 288 
L 432 288 
L 432 0 
L 0 0 
z
" style="fill:#ffffff;"/>
  </g>
  <g id="axes_1">
   <g id="patch_2">
    <path d="M 54 252 
L 388.8 252 
L 388.8 34.56 
L 54 34.56 
z
" style="fill:#ffffff;"/>
   </g>
   <g id="PolyCollection_1">
    <defs>
     <path d="M 54 -86.29922 
L 54 -45.883636 
L 57.893023 -47.182352 
L 61.786047 -48.066213 
L 65.67907 -48.779447 
L 69.572093 -49.443883 
L 73.465116 -50.078563 
L 77.35814 -50.696975 
L 81.251163 -51.37837 
L 85.144186 -52.16518 
L 89.037209 -52.972415 
L 92.930233 -53.70953 
L 96.823256 -54.380573 
L 100.716279 -55.008516 
L 104.609302 -55.590476 
L 108.502326 -56.172376 
L 112.395349 -56.758808 
L 116.288372 -57.346112 
L 120.181395 -57.937579 
L 124.074419 -58.554909 
L 127.967442 -59.263891 
L 131.860465 -60.118808 
L 135.753488 -61.011864 
L 139.646512 -61.920077 
L 143.539535 -62.755009 
L 147.432558 -63.510942 
L 151.325581 -64.186727 
L 155.218605 -64.760393 
L 159.111628 -65.261274 
L 163.004651 -65.746383 
L 166.897674 -66.2708 
L 170.790698 -66.862551 
L 174.683721 -67.581921 
L 178.576744 -68.410688 
L 182.469767 -69.295175 
L 186.362791 -70.16046 
L 190.255814 -70.894855 
L 194.148837 -71.456365 
L 198.04186 -71.909625 
L 201.934884 -72.321294 
L 205.827907 -72.716209 
L 209.72093 -73.151553 
L 213.613953 -73.689152 
L 217.506977 -74.321944 
L 221.4 -74.984707 
L 225.293023 -75.633867 
L 229.186047 -76.283027 
L 233.07907 -76.866153 
L 236.972093 -77.384259 
L 240.865116 -77.857829 
L 244.75814 -78.333963 
L 248.651163 -78.841831 
L 252.544186 -79.401738 
L 256.437209 -80.074028 
L 260.330233 -80.861374 
L 264.223256 -81.696051 
L 268.116279 -82.488345 
L 272.009302 -83.188562 
L 275.902326 -83.802251 
L 279.795349 -84.369842 
L 283.688372 -84.944063 
L 287.581395 -85.516141 
L 291.474419 -86.093548 
L 295.367442 -86.697821 
L 299.260465 -87.37578 
L 303.153488 -88.161864 
L 307.046512 -88.992885 
L 310.939535 -89.866819 
L 314.832558 -90.722181 
L 318.725581 -91.566184 
L 322.618605 -92.44091 
L 326.511628 -93.161502 
L 330.404651 -93.828031 
L 334.297674 -94.495162 
L 338.190698 -95.150211 
L 342.083721 -95.849958 
L 345.976744 -96.626826 
L 349.869767 -97.560352 
L 353.762791 -98.551847 
L 357.655814 -99.57167 
L 361.548837 -100.538143 
L 365.44186 -101.381975 
L 369.334884 -102.1103 
L 373.227907 -102.77694 
L 377.12093 -103.402019 
L 381.013953 -104.038417 
L 384.906977 -104.742009 
L 388.8 -105.517415 
L 388.8 -178.998136 
L 388.8 -178.998136 
L 384.906977 -177.743451 
L 381.013953 -176.420309 
L 377.12093 -175.230695 
L 373.227907 -174.004339 
L 369.334884 -172.639646 
L 365.44186 -171.214149 
L 361.548837 -169.733337 
L 357.655814 -168.140534 
L 353.762791 -166.645318 
L 349.869767 -165.290262 
L 345.976744 -163.942598 
L 342.083721 -162.584235 
L 338.190698 -161.269047 
L 334.297674 -160.076739 
L 330.404651 -158.946316 
L 326.511628 -157.812748 
L 322.618605 -156.479869 
L 318.725581 -155.276382 
L 314.832558 -153.95324 
L 310.939535 -152.471066 
L 307.046512 -151.003758 
L 303.153488 -149.670278 
L 299.260465 -148.56597 
L 295.367442 -147.459118 
L 291.474419 -146.301258 
L 287.581395 -145.161189 
L 283.688372 -144.04422 
L 279.795349 -142.926028 
L 275.902326 -141.809559 
L 272.009302 -140.660555 
L 268.116279 -139.427247 
L 264.223256 -138.122636 
L 260.330233 -136.811845 
L 256.437209 -135.571204 
L 252.544186 -134.464813 
L 248.651163 -133.482584 
L 244.75814 -132.552534 
L 240.865116 -131.656602 
L 236.972093 -130.756443 
L 233.07907 -129.816056 
L 229.186047 -128.78923 
L 225.293023 -127.710897 
L 221.4 -126.639415 
L 217.506977 -125.565248 
L 213.613953 -124.539104 
L 209.72093 -123.641409 
L 205.827907 -122.841282 
L 201.934884 -122.069522 
L 198.04186 -121.274172 
L 194.148837 -120.426984 
L 190.255814 -119.462085 
L 186.362791 -118.333335 
L 182.469767 -117.098434 
L 178.576744 -115.873009 
L 174.683721 -114.730165 
L 170.790698 -113.717374 
L 166.897674 -112.840655 
L 163.004651 -112.037942 
L 159.111628 -111.277362 
L 155.218605 -110.503239 
L 151.325581 -109.660688 
L 147.432558 -108.721372 
L 143.539535 -107.715433 
L 139.646512 -106.646165 
L 135.753488 -105.531419 
L 131.860465 -104.434023 
L 127.967442 -103.413007 
L 124.074419 -102.557575 
L 120.181395 -101.809015 
L 116.288372 -101.10402 
L 112.395349 -100.412778 
L 108.502326 -99.726936 
L 104.609302 -99.050259 
L 100.716279 -98.374103 
L 96.823256 -97.659842 
L 92.930233 -96.918054 
L 89.037209 -96.125419 
L 85.144186 -95.266671 
L 81.251163 -94.41798 
L 77.35814 -93.635282 
L 73.465116 -92.861318 
L 69.572093 -92.001128 
L 65.67907 -91.012127 
L 61.786047 -89.839913 
L 57.893023 -88.339238 
L 54 -86.29922 
z
" id="ma8929b9e92" style="stroke:#0000ff;stroke-opacity:0.1;"/>
    </defs>
    <g clip-path="url(#p7bdc371c55)">
     <use style="fill:#0000ff;fill-opacity:0.1;stroke:#0000ff;stroke-opacity:0.1;" x="0" xlink:href="#ma8929b9e92" y="288"/>
    </g>
   </g>
   <g id="PolyCollection_2">
    <defs>
     <path d="M 54 -86.29922 
L 54 -45.883636 
L 57.893023 -47.153743 
L 61.786047 -48.048828 
L 65.67907 -48.761456 
L 69.572093 -49.410676 
L 73.465116 -50.025632 
L 77.35814 -50.627712 
L 81.251163 -51.313409 
L 85.144186 -52.135034 
L 89.037209 -53.002186 
L 92.930233 -53.821677 
L 96.823256 -54.59574 
L 100.716279 -55.343809 
L 104.609302 -56.064677 
L 108.502326 -56.803365 
L 112.395349 -57.564416 
L 116.288372 -58.343563 
L 120.181395 -59.145534 
L 124.074419 -59.988049 
L 127.967442 -60.929769 
L 131.860465 -62.020654 
L 135.753488 -63.151758 
L 139.646512 -64.272253 
L 143.539535 -65.322108 
L 147.432558 -66.298953 
L 151.325581 -67.200199 
L 155.218605 -68.001253 
L 159.111628 -68.744108 
L 163.004651 -69.490755 
L 166.897674 -70.291984 
L 170.790698 -71.172109 
L 174.683721 -72.19046 
L 178.576744 -73.322615 
L 182.469767 -74.517108 
L 186.362791 -75.700721 
L 190.255814 -76.760984 
L 194.148837 -77.654281 
L 198.04186 -78.445353 
L 201.934884 -79.194774 
L 205.827907 -79.925734 
L 209.72093 -80.69558 
L 213.613953 -81.563444 
L 217.506977 -82.548788 
L 221.4 -83.557152 
L 225.293023 -84.541205 
L 229.186047 -85.511043 
L 233.07907 -86.406584 
L 236.972093 -87.213784 
L 240.865116 -87.968334 
L 244.75814 -88.728263 
L 248.651163 -89.51024 
L 252.544186 -90.34137 
L 256.437209 -91.285064 
L 260.330233 -92.3355 
L 264.223256 -93.428278 
L 268.116279 -94.522799 
L 272.009302 -95.472292 
L 275.902326 -96.358397 
L 279.795349 -97.162772 
L 283.688372 -98.073269 
L 287.581395 -98.871043 
L 291.474419 -99.681057 
L 295.367442 -100.522957 
L 299.260465 -101.384139 
L 303.153488 -102.344771 
L 307.046512 -103.380933 
L 310.939535 -104.486122 
L 314.832558 -105.559317 
L 318.725581 -106.571287 
L 322.618605 -107.562251 
L 326.511628 -108.465996 
L 330.404651 -109.324824 
L 334.297674 -110.136131 
L 338.190698 -110.981336 
L 342.083721 -111.870887 
L 345.976744 -112.819959 
L 349.869767 -113.852525 
L 353.762791 -115.000357 
L 357.655814 -116.18393 
L 361.548837 -117.305327 
L 365.44186 -118.299888 
L 369.334884 -119.21389 
L 373.227907 -120.059616 
L 377.12093 -120.942255 
L 381.013953 -121.799661 
L 384.906977 -122.833488 
L 388.8 -123.850447 
L 388.8 -204.188481 
L 388.8 -204.188481 
L 384.906977 -202.38646 
L 381.013953 -201.359966 
L 377.12093 -199.836962 
L 373.227907 -198.389708 
L 369.334884 -196.862657 
L 365.44186 -195.177456 
L 361.548837 -193.482178 
L 357.655814 -191.732827 
L 353.762791 -190.164907 
L 349.869767 -188.336882 
L 345.976744 -186.618985 
L 342.083721 -185.015063 
L 338.190698 -183.494703 
L 334.297674 -182.118591 
L 330.404651 -180.692994 
L 326.511628 -179.188662 
L 322.618605 -177.653057 
L 318.725581 -176.225316 
L 314.832558 -174.582407 
L 310.939535 -173.014106 
L 307.046512 -171.499557 
L 303.153488 -169.834711 
L 299.260465 -168.287385 
L 295.367442 -166.796557 
L 291.474419 -165.401331 
L 287.581395 -163.946665 
L 283.688372 -162.483062 
L 279.795349 -161.293689 
L 275.902326 -159.821993 
L 272.009302 -158.393581 
L 268.116279 -156.74954 
L 264.223256 -155.173496 
L 260.330233 -153.435515 
L 256.437209 -151.769867 
L 252.544186 -150.250209 
L 248.651163 -148.836362 
L 244.75814 -147.473953 
L 240.865116 -146.157132 
L 236.972093 -144.825575 
L 233.07907 -143.459099 
L 229.186047 -141.989978 
L 225.293023 -140.467435 
L 221.4 -138.953236 
L 217.506977 -137.432837 
L 213.613953 -135.963365 
L 209.72093 -134.617063 
L 205.827907 -133.378055 
L 201.934884 -132.16996 
L 198.04186 -130.943543 
L 194.148837 -129.66652 
L 190.255814 -128.280721 
L 186.362791 -126.742802 
L 182.469767 -125.106654 
L 178.576744 -123.490061 
L 174.683721 -121.966276 
L 170.790698 -120.580236 
L 166.897674 -119.339876 
L 163.004651 -118.183499 
L 159.111628 -117.078379 
L 155.218605 -115.968362 
L 151.325581 -114.793904 
L 147.432558 -113.521799 
L 143.539535 -112.183782 
L 139.646512 -110.783127 
L 135.753488 -109.338197 
L 131.860465 -107.909725 
L 127.967442 -106.556311 
L 124.074419 -105.366808 
L 120.181395 -104.283746 
L 116.288372 -103.247474 
L 112.395349 -102.240413 
L 108.502326 -101.259085 
L 104.609302 -100.307989 
L 100.716279 -99.379923 
L 96.823256 -98.437451 
L 92.930233 -97.491544 
L 89.037209 -96.522528 
L 85.144186 -95.518561 
L 81.251163 -94.560153 
L 77.35814 -93.708767 
L 73.465116 -92.894155 
L 69.572093 -92.009562 
L 65.67907 -91.009152 
L 61.786047 -89.833031 
L 57.893023 -88.331795 
L 54 -86.29922 
z
" id="m46cf21ad08" style="stroke:#ff0000;stroke-opacity:0.1;"/>
    </defs>
    <g clip-path="url(#p7bdc371c55)">
     <use style="fill:#ff0000;fill-opacity:0.1;stroke:#ff0000;stroke-opacity:0.1;" x="0" xlink:href="#m46cf21ad08" y="288"/>
    </g>
   </g>
   <g id="PolyCollection_3">
    <defs>
     <path d="M 54 -86.29922 
L 54 -45.883636 
L 57.893023 -47.172009 
L 61.786047 -48.066924 
L 65.67907 -48.818263 
L 69.572093 -49.554212 
L 73.465116 -50.299516 
L 77.35814 -51.052343 
L 81.251163 -51.895664 
L 85.144186 -52.827988 
L 89.037209 -53.75879 
L 92.930233 -54.603088 
L 96.823256 -55.369764 
L 100.716279 -56.083739 
L 104.609302 -56.746117 
L 108.502326 -57.404132 
L 112.395349 -58.06396 
L 116.288372 -58.721303 
L 120.181395 -59.34219 
L 124.074419 -59.940933 
L 127.967442 -60.596349 
L 131.860465 -61.370683 
L 135.753488 -62.158409 
L 139.646512 -62.912919 
L 143.539535 -63.578407 
L 147.432558 -64.155984 
L 151.325581 -64.645351 
L 155.218605 -65.024785 
L 159.111628 -65.36116 
L 163.004651 -65.723439 
L 166.897674 -66.150214 
L 170.790698 -66.661217 
L 174.683721 -67.310958 
L 178.576744 -68.073532 
L 182.469767 -68.895487 
L 186.362791 -69.700984 
L 190.255814 -70.37732 
L 194.148837 -70.883576 
L 198.04186 -71.288708 
L 201.934884 -71.655886 
L 205.827907 -72.008844 
L 209.72093 -72.401821 
L 213.613953 -72.893827 
L 217.506977 -73.499623 
L 221.4 -74.127902 
L 225.293023 -74.727768 
L 229.186047 -75.31395 
L 233.07907 -75.822309 
L 236.972093 -76.263438 
L 240.865116 -76.70045 
L 244.75814 -77.167288 
L 248.651163 -77.67726 
L 252.544186 -78.246954 
L 256.437209 -78.930973 
L 260.330233 -79.729649 
L 264.223256 -80.571628 
L 268.116279 -81.365345 
L 272.009302 -82.06426 
L 275.902326 -82.645434 
L 279.795349 -83.14651 
L 283.688372 -83.630277 
L 287.581395 -84.085896 
L 291.474419 -84.528202 
L 295.367442 -85.013482 
L 299.260465 -85.63256 
L 303.153488 -86.180768 
L 307.046512 -86.80252 
L 310.939535 -87.463701 
L 314.832558 -88.080746 
L 318.725581 -88.629604 
L 322.618605 -89.095901 
L 326.511628 -89.484546 
L 330.404651 -89.794776 
L 334.297674 -90.070137 
L 338.190698 -90.306401 
L 342.083721 -90.560635 
L 345.976744 -90.871577 
L 349.869767 -91.262345 
L 353.762791 -91.738789 
L 357.655814 -92.238053 
L 361.548837 -92.694052 
L 365.44186 -92.980041 
L 369.334884 -93.177078 
L 373.227907 -93.28366 
L 377.12093 -93.373354 
L 381.013953 -93.536172 
L 384.906977 -93.688873 
L 388.8 -93.93255 
L 388.8 -165.79256 
L 388.8 -165.79256 
L 384.906977 -165.088076 
L 381.013953 -164.55258 
L 377.12093 -164.117416 
L 373.227907 -163.627719 
L 369.334884 -162.979371 
L 365.44186 -162.338155 
L 361.548837 -161.477363 
L 357.655814 -160.591529 
L 353.762791 -159.577084 
L 349.869767 -158.70905 
L 345.976744 -157.809312 
L 342.083721 -157.013742 
L 338.190698 -156.256107 
L 334.297674 -155.524256 
L 330.404651 -154.896352 
L 326.511628 -154.076671 
L 322.618605 -153.22225 
L 318.725581 -152.249587 
L 314.832558 -151.193522 
L 310.939535 -150.09239 
L 307.046512 -148.985267 
L 303.153488 -147.926567 
L 299.260465 -146.948385 
L 295.367442 -146.320471 
L 291.474419 -145.568315 
L 287.581395 -144.697637 
L 283.688372 -143.815268 
L 279.795349 -142.918836 
L 275.902326 -141.981173 
L 272.009302 -140.977016 
L 268.116279 -139.870645 
L 264.223256 -138.676042 
L 260.330233 -137.45816 
L 256.437209 -136.304358 
L 252.544186 -135.280718 
L 248.651163 -134.374609 
L 244.75814 -133.519387 
L 240.865116 -132.708901 
L 236.972093 -131.902523 
L 233.07907 -131.069238 
L 229.186047 -130.155646 
L 225.293023 -129.173868 
L 221.4 -128.18644 
L 217.506977 -127.185839 
L 213.613953 -126.222252 
L 209.72093 -125.378609 
L 205.827907 -124.63019 
L 201.934884 -123.904589 
L 198.04186 -123.151792 
L 194.148837 -122.345895 
L 190.255814 -121.42453 
L 186.362791 -120.333785 
L 182.469767 -119.135897 
L 178.576744 -117.946554 
L 174.683721 -116.840032 
L 170.790698 -115.86229 
L 166.897674 -115.024208 
L 163.004651 -114.264289 
L 159.111628 -113.554595 
L 155.218605 -112.844081 
L 151.325581 -112.067523 
L 147.432558 -111.178153 
L 143.539535 -110.2054 
L 139.646512 -109.151388 
L 135.753488 -108.033296 
L 131.860465 -106.910256 
L 127.967442 -105.837011 
L 124.074419 -104.898797 
L 120.181395 -104.033077 
L 116.288372 -103.172717 
L 112.395349 -102.307738 
L 108.502326 -101.447487 
L 104.609302 -100.597564 
L 100.716279 -99.749554 
L 96.823256 -98.866154 
L 92.930233 -97.958112 
L 89.037209 -97.0035 
L 85.144186 -95.987843 
L 81.251163 -94.987413 
L 77.35814 -94.057483 
L 73.465116 -93.126111 
L 69.572093 -92.141147 
L 65.67907 -91.070657 
L 61.786047 -89.852074 
L 57.893023 -88.333408 
L 54 -86.29922 
z
" id="mcad38354cb" style="stroke:#008000;stroke-opacity:0.1;"/>
    </defs>
    <g clip-path="url(#p7bdc371c55)">
     <use style="fill:#008000;fill-opacity:0.1;stroke:#008000;stroke-opacity:0.1;" x="0" xlink:href="#mcad38354cb" y="288"/>
    </g>
   </g>
   <g id="PolyCollection_4">
    <defs>
     <path d="M 54 -86.29922 
L 54 -45.883636 
L 57.893023 -47.163785 
L 61.786047 -48.048087 
L 65.67907 -48.779167 
L 69.572093 -49.486546 
L 73.465116 -50.198202 
L 77.35814 -50.932974 
L 81.251163 -51.783092 
L 85.144186 -52.78529 
L 89.037209 -53.849034 
L 92.930233 -54.881088 
L 96.823256 -55.883732 
L 100.716279 -56.876585 
L 104.609302 -57.857211 
L 108.502326 -58.870564 
L 112.395349 -59.920288 
L 116.288372 -61.001627 
L 120.181395 -62.131834 
L 124.074419 -63.330769 
L 127.967442 -64.652653 
L 131.860465 -66.144784 
L 135.753488 -67.686079 
L 139.646512 -69.218379 
L 143.539535 -70.68112 
L 147.432558 -72.072188 
L 151.325581 -73.389169 
L 155.218605 -74.608173 
L 159.111628 -75.777928 
L 163.004651 -76.949516 
L 166.897674 -78.172707 
L 170.790698 -79.472499 
L 174.683721 -80.907252 
L 178.576744 -82.451442 
L 182.469767 -84.055053 
L 186.362791 -85.645022 
L 190.255814 -87.107872 
L 194.148837 -88.403758 
L 198.04186 -89.598581 
L 201.934884 -90.760317 
L 205.827907 -91.905825 
L 209.72093 -93.090971 
L 213.613953 -94.380956 
L 217.506977 -95.784476 
L 221.4 -97.203642 
L 225.293023 -98.595111 
L 229.186047 -99.97481 
L 233.07907 -101.273219 
L 236.972093 -102.481585 
L 240.865116 -103.639585 
L 244.75814 -104.783861 
L 248.651163 -105.950696 
L 252.544186 -107.16397 
L 256.437209 -108.573079 
L 260.330233 -110.051376 
L 264.223256 -111.504631 
L 268.116279 -112.906888 
L 272.009302 -114.20652 
L 275.902326 -115.391956 
L 279.795349 -116.525624 
L 283.688372 -117.651319 
L 287.581395 -118.773297 
L 291.474419 -119.902638 
L 295.367442 -121.023464 
L 299.260465 -122.184308 
L 303.153488 -123.429798 
L 307.046512 -124.771281 
L 310.939535 -126.168209 
L 314.832558 -127.557214 
L 318.725581 -128.920154 
L 322.618605 -130.241202 
L 326.511628 -131.501697 
L 330.404651 -132.669524 
L 334.297674 -133.824749 
L 338.190698 -134.980495 
L 342.083721 -136.253932 
L 345.976744 -137.467486 
L 349.869767 -138.89133 
L 353.762791 -140.381829 
L 357.655814 -141.988305 
L 361.548837 -143.417148 
L 365.44186 -144.697346 
L 369.334884 -145.890616 
L 373.227907 -146.999312 
L 377.12093 -148.089816 
L 381.013953 -149.222282 
L 384.906977 -150.3617 
L 388.8 -151.611777 
L 388.8 -243.556364 
L 388.8 -243.556364 
L 384.906977 -241.523228 
L 381.013953 -239.451526 
L 377.12093 -237.63458 
L 373.227907 -235.984279 
L 369.334884 -233.931609 
L 365.44186 -232.035007 
L 361.548837 -229.745693 
L 357.655814 -227.42765 
L 353.762791 -225.41549 
L 349.869767 -223.196657 
L 345.976744 -221.306165 
L 342.083721 -219.259466 
L 338.190698 -217.531131 
L 334.297674 -215.481988 
L 330.404651 -213.465501 
L 326.511628 -211.466043 
L 322.618605 -209.607325 
L 318.725581 -207.558142 
L 314.832558 -205.548707 
L 310.939535 -203.476524 
L 307.046512 -201.505735 
L 303.153488 -199.382946 
L 299.260465 -197.56059 
L 295.367442 -195.757588 
L 291.474419 -193.949737 
L 287.581395 -192.170455 
L 283.688372 -190.254159 
L 279.795349 -188.410788 
L 275.902326 -186.503587 
L 272.009302 -184.547323 
L 268.116279 -182.41069 
L 264.223256 -180.136943 
L 260.330233 -177.832463 
L 256.437209 -175.862135 
L 252.544186 -173.960083 
L 248.651163 -172.012053 
L 244.75814 -170.041805 
L 240.865116 -168.096519 
L 236.972093 -166.152916 
L 233.07907 -164.143 
L 229.186047 -162.040636 
L 225.293023 -159.891662 
L 221.4 -157.732982 
L 217.506977 -155.577136 
L 213.613953 -153.473259 
L 209.72093 -151.503091 
L 205.827907 -149.632373 
L 201.934884 -147.800632 
L 198.04186 -145.956369 
L 194.148837 -144.066217 
L 190.255814 -142.075464 
L 186.362791 -139.924717 
L 182.469767 -137.675382 
L 178.576744 -135.440731 
L 174.683721 -133.298539 
L 170.790698 -131.297178 
L 166.897674 -129.446003 
L 163.004651 -127.682829 
L 159.111628 -125.977173 
L 155.218605 -124.277387 
L 151.325581 -122.52447 
L 147.432558 -120.683473 
L 143.539535 -118.787341 
L 139.646512 -116.841254 
L 135.753488 -114.864915 
L 131.860465 -112.921092 
L 127.967442 -111.073173 
L 124.074419 -109.416481 
L 120.181395 -107.894569 
L 116.288372 -106.448727 
L 112.395349 -105.059933 
L 108.502326 -103.718279 
L 104.609302 -102.428715 
L 100.716279 -101.184387 
L 96.823256 -99.948304 
L 92.930233 -98.732706 
L 89.037209 -97.51833 
L 85.144186 -96.293827 
L 81.251163 -95.139814 
L 77.35814 -94.116865 
L 73.465116 -93.159508 
L 69.572093 -92.164527 
L 65.67907 -91.084621 
L 61.786047 -89.857994 
L 57.893023 -88.333478 
L 54 -86.29922 
z
" id="m1ebba7e722" style="stroke:#ffa500;stroke-opacity:0.1;"/>
    </defs>
    <g clip-path="url(#p7bdc371c55)">
     <use style="fill:#ffa500;fill-opacity:0.1;stroke:#ffa500;stroke-opacity:0.1;" x="0" xlink:href="#m1ebba7e722" y="288"/>
    </g>
   </g>
   <g id="matplotlib.axis_1">
    <g id="xtick_1">
     <g id="line2d_1">
      <defs>
       <path d="M 0 0 
L 0 3.5 
" id="md7ab2b4551" style="stroke:#000000;stroke-width:0.8;"/>
      </defs>
      <g>
       <use style="stroke:#000000;stroke-width:0.8;" x="77.35814" xlink:href="#md7ab2b4551" y="252"/>
      </g>
     </g>
     <g id="text_1">
      <!-- 2020 -->
      <g transform="translate(64.63314 266.598437)scale(0.1 -0.1)">
       <defs>
        <path d="M 19.1875 8.296875 
L 53.609375 8.296875 
L 53.609375 0 
L 7.328125 0 
L 7.328125 8.296875 
Q 12.9375 14.109375 22.625 23.890625 
Q 32.328125 33.6875 34.8125 36.53125 
Q 39.546875 41.84375 41.421875 45.53125 
Q 43.3125 49.21875 43.3125 52.78125 
Q 43.3125 58.59375 39.234375 62.25 
Q 35.15625 65.921875 28.609375 65.921875 
Q 23.96875 65.921875 18.8125 64.3125 
Q 13.671875 62.703125 7.8125 59.421875 
L 7.8125 69.390625 
Q 13.765625 71.78125 18.9375 73 
Q 24.125 74.21875 28.421875 74.21875 
Q 39.75 74.21875 46.484375 68.546875 
Q 53.21875 62.890625 53.21875 53.421875 
Q 53.21875 48.921875 51.53125 44.890625 
Q 49.859375 40.875 45.40625 35.40625 
Q 44.1875 33.984375 37.640625 27.21875 
Q 31.109375 20.453125 19.1875 8.296875 
z
" id="DejaVuSans-50"/>
        <path d="M 31.78125 66.40625 
Q 24.171875 66.40625 20.328125 58.90625 
Q 16.5 51.421875 16.5 36.375 
Q 16.5 21.390625 20.328125 13.890625 
Q 24.171875 6.390625 31.78125 6.390625 
Q 39.453125 6.390625 43.28125 13.890625 
Q 47.125 21.390625 47.125 36.375 
Q 47.125 51.421875 43.28125 58.90625 
Q 39.453125 66.40625 31.78125 66.40625 
z
M 31.78125 74.21875 
Q 44.046875 74.21875 50.515625 64.515625 
Q 56.984375 54.828125 56.984375 36.375 
Q 56.984375 17.96875 50.515625 8.265625 
Q 44.046875 -1.421875 31.78125 -1.421875 
Q 19.53125 -1.421875 13.0625 8.265625 
Q 6.59375 17.96875 6.59375 36.375 
Q 6.59375 54.828125 13.0625 64.515625 
Q 19.53125 74.21875 31.78125 74.21875 
z
" id="DejaVuSans-48"/>
       </defs>
       <use xlink:href="#DejaVuSans-50"/>
       <use x="63.623047" xlink:href="#DejaVuSans-48"/>
       <use x="127.246094" xlink:href="#DejaVuSans-50"/>
       <use x="190.869141" xlink:href="#DejaVuSans-48"/>
      </g>
     </g>
    </g>
    <g id="xtick_2">
     <g id="line2d_2">
      <g>
       <use style="stroke:#000000;stroke-width:0.8;" x="116.288372" xlink:href="#md7ab2b4551" y="252"/>
      </g>
     </g>
     <g id="text_2">
      <!-- 2030 -->
      <g transform="translate(103.563372 266.598437)scale(0.1 -0.1)">
       <defs>
        <path d="M 40.578125 39.3125 
Q 47.65625 37.796875 51.625 33 
Q 55.609375 28.21875 55.609375 21.1875 
Q 55.609375 10.40625 48.1875 4.484375 
Q 40.765625 -1.421875 27.09375 -1.421875 
Q 22.515625 -1.421875 17.65625 -0.515625 
Q 12.796875 0.390625 7.625 2.203125 
L 7.625 11.71875 
Q 11.71875 9.328125 16.59375 8.109375 
Q 21.484375 6.890625 26.8125 6.890625 
Q 36.078125 6.890625 40.9375 10.546875 
Q 45.796875 14.203125 45.796875 21.1875 
Q 45.796875 27.640625 41.28125 31.265625 
Q 36.765625 34.90625 28.71875 34.90625 
L 20.21875 34.90625 
L 20.21875 43.015625 
L 29.109375 43.015625 
Q 36.375 43.015625 40.234375 45.921875 
Q 44.09375 48.828125 44.09375 54.296875 
Q 44.09375 59.90625 40.109375 62.90625 
Q 36.140625 65.921875 28.71875 65.921875 
Q 24.65625 65.921875 20.015625 65.03125 
Q 15.375 64.15625 9.8125 62.3125 
L 9.8125 71.09375 
Q 15.4375 72.65625 20.34375 73.4375 
Q 25.25 74.21875 29.59375 74.21875 
Q 40.828125 74.21875 47.359375 69.109375 
Q 53.90625 64.015625 53.90625 55.328125 
Q 53.90625 49.265625 50.4375 45.09375 
Q 46.96875 40.921875 40.578125 39.3125 
z
" id="DejaVuSans-51"/>
       </defs>
       <use xlink:href="#DejaVuSans-50"/>
       <use x="63.623047" xlink:href="#DejaVuSans-48"/>
       <use x="127.246094" xlink:href="#DejaVuSans-51"/>
       <use x="190.869141" xlink:href="#DejaVuSans-48"/>
      </g>
     </g>
    </g>
    <g id="xtick_3">
     <g id="line2d_3">
      <g>
       <use style="stroke:#000000;stroke-width:0.8;" x="155.218605" xlink:href="#md7ab2b4551" y="252"/>
      </g>
     </g>
     <g id="text_3">
      <!-- 2040 -->
      <g transform="translate(142.493605 266.598437)scale(0.1 -0.1)">
       <defs>
        <path d="M 37.796875 64.3125 
L 12.890625 25.390625 
L 37.796875 25.390625 
z
M 35.203125 72.90625 
L 47.609375 72.90625 
L 47.609375 25.390625 
L 58.015625 25.390625 
L 58.015625 17.1875 
L 47.609375 17.1875 
L 47.609375 0 
L 37.796875 0 
L 37.796875 17.1875 
L 4.890625 17.1875 
L 4.890625 26.703125 
z
" id="DejaVuSans-52"/>
       </defs>
       <use xlink:href="#DejaVuSans-50"/>
       <use x="63.623047" xlink:href="#DejaVuSans-48"/>
       <use x="127.246094" xlink:href="#DejaVuSans-52"/>
       <use x="190.869141" xlink:href="#DejaVuSans-48"/>
      </g>
     </g>
    </g>
    <g id="xtick_4">
     <g id="line2d_4">
      <g>
       <use style="stroke:#000000;stroke-width:0.8;" x="194.148837" xlink:href="#md7ab2b4551" y="252"/>
      </g>
     </g>
     <g id="text_4">
      <!-- 2050 -->
      <g transform="translate(181.423837 266.598437)scale(0.1 -0.1)">
       <defs>
        <path d="M 10.796875 72.90625 
L 49.515625 72.90625 
L 49.515625 64.59375 
L 19.828125 64.59375 
L 19.828125 46.734375 
Q 21.96875 47.46875 24.109375 47.828125 
Q 26.265625 48.1875 28.421875 48.1875 
Q 40.625 48.1875 47.75 41.5 
Q 54.890625 34.8125 54.890625 23.390625 
Q 54.890625 11.625 47.5625 5.09375 
Q 40.234375 -1.421875 26.90625 -1.421875 
Q 22.3125 -1.421875 17.546875 -0.640625 
Q 12.796875 0.140625 7.71875 1.703125 
L 7.71875 11.625 
Q 12.109375 9.234375 16.796875 8.0625 
Q 21.484375 6.890625 26.703125 6.890625 
Q 35.15625 6.890625 40.078125 11.328125 
Q 45.015625 15.765625 45.015625 23.390625 
Q 45.015625 31 40.078125 35.4375 
Q 35.15625 39.890625 26.703125 39.890625 
Q 22.75 39.890625 18.8125 39.015625 
Q 14.890625 38.140625 10.796875 36.28125 
z
" id="DejaVuSans-53"/>
       </defs>
       <use xlink:href="#DejaVuSans-50"/>
       <use x="63.623047" xlink:href="#DejaVuSans-48"/>
       <use x="127.246094" xlink:href="#DejaVuSans-53"/>
       <use x="190.869141" xlink:href="#DejaVuSans-48"/>
      </g>
     </g>
    </g>
    <g id="xtick_5">
     <g id="line2d_5">
      <g>
       <use style="stroke:#000000;stroke-width:0.8;" x="233.07907" xlink:href="#md7ab2b4551" y="252"/>
      </g>
     </g>
     <g id="text_5">
      <!-- 2060 -->
      <g transform="translate(220.35407 266.598437)scale(0.1 -0.1)">
       <defs>
        <path d="M 33.015625 40.375 
Q 26.375 40.375 22.484375 35.828125 
Q 18.609375 31.296875 18.609375 23.390625 
Q 18.609375 15.53125 22.484375 10.953125 
Q 26.375 6.390625 33.015625 6.390625 
Q 39.65625 6.390625 43.53125 10.953125 
Q 47.40625 15.53125 47.40625 23.390625 
Q 47.40625 31.296875 43.53125 35.828125 
Q 39.65625 40.375 33.015625 40.375 
z
M 52.59375 71.296875 
L 52.59375 62.3125 
Q 48.875 64.0625 45.09375 64.984375 
Q 41.3125 65.921875 37.59375 65.921875 
Q 27.828125 65.921875 22.671875 59.328125 
Q 17.53125 52.734375 16.796875 39.40625 
Q 19.671875 43.65625 24.015625 45.921875 
Q 28.375 48.1875 33.59375 48.1875 
Q 44.578125 48.1875 50.953125 41.515625 
Q 57.328125 34.859375 57.328125 23.390625 
Q 57.328125 12.15625 50.6875 5.359375 
Q 44.046875 -1.421875 33.015625 -1.421875 
Q 20.359375 -1.421875 13.671875 8.265625 
Q 6.984375 17.96875 6.984375 36.375 
Q 6.984375 53.65625 15.1875 63.9375 
Q 23.390625 74.21875 37.203125 74.21875 
Q 40.921875 74.21875 44.703125 73.484375 
Q 48.484375 72.75 52.59375 71.296875 
z
" id="DejaVuSans-54"/>
       </defs>
       <use xlink:href="#DejaVuSans-50"/>
       <use x="63.623047" xlink:href="#DejaVuSans-48"/>
       <use x="127.246094" xlink:href="#DejaVuSans-54"/>
       <use x="190.869141" xlink:href="#DejaVuSans-48"/>
      </g>
     </g>
    </g>
    <g id="xtick_6">
     <g id="line2d_6">
      <g>
       <use style="stroke:#000000;stroke-width:0.8;" x="272.009302" xlink:href="#md7ab2b4551" y="252"/>
      </g>
     </g>
     <g id="text_6">
      <!-- 2070 -->
      <g transform="translate(259.284302 266.598437)scale(0.1 -0.1)">
       <defs>
        <path d="M 8.203125 72.90625 
L 55.078125 72.90625 
L 55.078125 68.703125 
L 28.609375 0 
L 18.3125 0 
L 43.21875 64.59375 
L 8.203125 64.59375 
z
" id="DejaVuSans-55"/>
       </defs>
       <use xlink:href="#DejaVuSans-50"/>
       <use x="63.623047" xlink:href="#DejaVuSans-48"/>
       <use x="127.246094" xlink:href="#DejaVuSans-55"/>
       <use x="190.869141" xlink:href="#DejaVuSans-48"/>
      </g>
     </g>
    </g>
    <g id="xtick_7">
     <g id="line2d_7">
      <g>
       <use style="stroke:#000000;stroke-width:0.8;" x="310.939535" xlink:href="#md7ab2b4551" y="252"/>
      </g>
     </g>
     <g id="text_7">
      <!-- 2080 -->
      <g transform="translate(298.214535 266.598437)scale(0.1 -0.1)">
       <defs>
        <path d="M 31.78125 34.625 
Q 24.75 34.625 20.71875 30.859375 
Q 16.703125 27.09375 16.703125 20.515625 
Q 16.703125 13.921875 20.71875 10.15625 
Q 24.75 6.390625 31.78125 6.390625 
Q 38.8125 6.390625 42.859375 10.171875 
Q 46.921875 13.96875 46.921875 20.515625 
Q 46.921875 27.09375 42.890625 30.859375 
Q 38.875 34.625 31.78125 34.625 
z
M 21.921875 38.8125 
Q 15.578125 40.375 12.03125 44.71875 
Q 8.5 49.078125 8.5 55.328125 
Q 8.5 64.0625 14.71875 69.140625 
Q 20.953125 74.21875 31.78125 74.21875 
Q 42.671875 74.21875 48.875 69.140625 
Q 55.078125 64.0625 55.078125 55.328125 
Q 55.078125 49.078125 51.53125 44.71875 
Q 48 40.375 41.703125 38.8125 
Q 48.828125 37.15625 52.796875 32.3125 
Q 56.78125 27.484375 56.78125 20.515625 
Q 56.78125 9.90625 50.3125 4.234375 
Q 43.84375 -1.421875 31.78125 -1.421875 
Q 19.734375 -1.421875 13.25 4.234375 
Q 6.78125 9.90625 6.78125 20.515625 
Q 6.78125 27.484375 10.78125 32.3125 
Q 14.796875 37.15625 21.921875 38.8125 
z
M 18.3125 54.390625 
Q 18.3125 48.734375 21.84375 45.5625 
Q 25.390625 42.390625 31.78125 42.390625 
Q 38.140625 42.390625 41.71875 45.5625 
Q 45.3125 48.734375 45.3125 54.390625 
Q 45.3125 60.0625 41.71875 63.234375 
Q 38.140625 66.40625 31.78125 66.40625 
Q 25.390625 66.40625 21.84375 63.234375 
Q 18.3125 60.0625 18.3125 54.390625 
z
" id="DejaVuSans-56"/>
       </defs>
       <use xlink:href="#DejaVuSans-50"/>
       <use x="63.623047" xlink:href="#DejaVuSans-48"/>
       <use x="127.246094" xlink:href="#DejaVuSans-56"/>
       <use x="190.869141" xlink:href="#DejaVuSans-48"/>
      </g>
     </g>
    </g>
    <g id="xtick_8">
     <g id="line2d_8">
      <g>
       <use style="stroke:#000000;stroke-width:0.8;" x="349.869767" xlink:href="#md7ab2b4551" y="252"/>
      </g>
     </g>
     <g id="text_8">
      <!-- 2090 -->
      <g transform="translate(337.144767 266.598437)scale(0.1 -0.1)">
       <defs>
        <path d="M 10.984375 1.515625 
L 10.984375 10.5 
Q 14.703125 8.734375 18.5 7.8125 
Q 22.3125 6.890625 25.984375 6.890625 
Q 35.75 6.890625 40.890625 13.453125 
Q 46.046875 20.015625 46.78125 33.40625 
Q 43.953125 29.203125 39.59375 26.953125 
Q 35.25 24.703125 29.984375 24.703125 
Q 19.046875 24.703125 12.671875 31.3125 
Q 6.296875 37.9375 6.296875 49.421875 
Q 6.296875 60.640625 12.9375 67.421875 
Q 19.578125 74.21875 30.609375 74.21875 
Q 43.265625 74.21875 49.921875 64.515625 
Q 56.59375 54.828125 56.59375 36.375 
Q 56.59375 19.140625 48.40625 8.859375 
Q 40.234375 -1.421875 26.421875 -1.421875 
Q 22.703125 -1.421875 18.890625 -0.6875 
Q 15.09375 0.046875 10.984375 1.515625 
z
M 30.609375 32.421875 
Q 37.25 32.421875 41.125 36.953125 
Q 45.015625 41.5 45.015625 49.421875 
Q 45.015625 57.28125 41.125 61.84375 
Q 37.25 66.40625 30.609375 66.40625 
Q 23.96875 66.40625 20.09375 61.84375 
Q 16.21875 57.28125 16.21875 49.421875 
Q 16.21875 41.5 20.09375 36.953125 
Q 23.96875 32.421875 30.609375 32.421875 
z
" id="DejaVuSans-57"/>
       </defs>
       <use xlink:href="#DejaVuSans-50"/>
       <use x="63.623047" xlink:href="#DejaVuSans-48"/>
       <use x="127.246094" xlink:href="#DejaVuSans-57"/>
       <use x="190.869141" xlink:href="#DejaVuSans-48"/>
      </g>
     </g>
    </g>
    <g id="xtick_9">
     <g id="line2d_9">
      <g>
       <use style="stroke:#000000;stroke-width:0.8;" x="388.8" xlink:href="#md7ab2b4551" y="252"/>
      </g>
     </g>
     <g id="text_9">
      <!-- 2100 -->
      <g transform="translate(376.075 266.598437)scale(0.1 -0.1)">
       <defs>
        <path d="M 12.40625 8.296875 
L 28.515625 8.296875 
L 28.515625 63.921875 
L 10.984375 60.40625 
L 10.984375 69.390625 
L 28.421875 72.90625 
L 38.28125 72.90625 
L 38.28125 8.296875 
L 54.390625 8.296875 
L 54.390625 0 
L 12.40625 0 
z
" id="DejaVuSans-49"/>
       </defs>
       <use xlink:href="#DejaVuSans-50"/>
       <use x="63.623047" xlink:href="#DejaVuSans-49"/>
       <use x="127.246094" xlink:href="#DejaVuSans-48"/>
       <use x="190.869141" xlink:href="#DejaVuSans-48"/>
      </g>
     </g>
    </g>
    <g id="text_10">
     <!-- year -->
     <g transform="translate(210.244531 280.276563)scale(0.1 -0.1)">
      <defs>
       <path d="M 32.171875 -5.078125 
Q 28.375 -14.84375 24.75 -17.8125 
Q 21.140625 -20.796875 15.09375 -20.796875 
L 7.90625 -20.796875 
L 7.90625 -13.28125 
L 13.1875 -13.28125 
Q 16.890625 -13.28125 18.9375 -11.515625 
Q 21 -9.765625 23.484375 -3.21875 
L 25.09375 0.875 
L 2.984375 54.6875 
L 12.5 54.6875 
L 29.59375 11.921875 
L 46.6875 54.6875 
L 56.203125 54.6875 
z
" id="DejaVuSans-121"/>
       <path d="M 56.203125 29.59375 
L 56.203125 25.203125 
L 14.890625 25.203125 
Q 15.484375 15.921875 20.484375 11.0625 
Q 25.484375 6.203125 34.421875 6.203125 
Q 39.59375 6.203125 44.453125 7.46875 
Q 49.3125 8.734375 54.109375 11.28125 
L 54.109375 2.78125 
Q 49.265625 0.734375 44.1875 -0.34375 
Q 39.109375 -1.421875 33.890625 -1.421875 
Q 20.796875 -1.421875 13.15625 6.1875 
Q 5.515625 13.8125 5.515625 26.8125 
Q 5.515625 40.234375 12.765625 48.109375 
Q 20.015625 56 32.328125 56 
Q 43.359375 56 49.78125 48.890625 
Q 56.203125 41.796875 56.203125 29.59375 
z
M 47.21875 32.234375 
Q 47.125 39.59375 43.09375 43.984375 
Q 39.0625 48.390625 32.421875 48.390625 
Q 24.90625 48.390625 20.390625 44.140625 
Q 15.875 39.890625 15.1875 32.171875 
z
" id="DejaVuSans-101"/>
       <path d="M 34.28125 27.484375 
Q 23.390625 27.484375 19.1875 25 
Q 14.984375 22.515625 14.984375 16.5 
Q 14.984375 11.71875 18.140625 8.90625 
Q 21.296875 6.109375 26.703125 6.109375 
Q 34.1875 6.109375 38.703125 11.40625 
Q 43.21875 16.703125 43.21875 25.484375 
L 43.21875 27.484375 
z
M 52.203125 31.203125 
L 52.203125 0 
L 43.21875 0 
L 43.21875 8.296875 
Q 40.140625 3.328125 35.546875 0.953125 
Q 30.953125 -1.421875 24.3125 -1.421875 
Q 15.921875 -1.421875 10.953125 3.296875 
Q 6 8.015625 6 15.921875 
Q 6 25.140625 12.171875 29.828125 
Q 18.359375 34.515625 30.609375 34.515625 
L 43.21875 34.515625 
L 43.21875 35.40625 
Q 43.21875 41.609375 39.140625 45 
Q 35.0625 48.390625 27.6875 48.390625 
Q 23 48.390625 18.546875 47.265625 
Q 14.109375 46.140625 10.015625 43.890625 
L 10.015625 52.203125 
Q 14.9375 54.109375 19.578125 55.046875 
Q 24.21875 56 28.609375 56 
Q 40.484375 56 46.34375 49.84375 
Q 52.203125 43.703125 52.203125 31.203125 
z
" id="DejaVuSans-97"/>
       <path d="M 41.109375 46.296875 
Q 39.59375 47.171875 37.8125 47.578125 
Q 36.03125 48 33.890625 48 
Q 26.265625 48 22.1875 43.046875 
Q 18.109375 38.09375 18.109375 28.8125 
L 18.109375 0 
L 9.078125 0 
L 9.078125 54.6875 
L 18.109375 54.6875 
L 18.109375 46.1875 
Q 20.953125 51.171875 25.484375 53.578125 
Q 30.03125 56 36.53125 56 
Q 37.453125 56 38.578125 55.875 
Q 39.703125 55.765625 41.0625 55.515625 
z
" id="DejaVuSans-114"/>
      </defs>
      <use xlink:href="#DejaVuSans-121"/>
      <use x="59.179688" xlink:href="#DejaVuSans-101"/>
      <use x="120.703125" xlink:href="#DejaVuSans-97"/>
      <use x="181.982422" xlink:href="#DejaVuSans-114"/>
     </g>
    </g>
   </g>
   <g id="matplotlib.axis_2">
    <g id="ytick_1">
     <g id="line2d_10">
      <defs>
       <path d="M 0 0 
L -3.5 0 
" id="mbde9485102" style="stroke:#000000;stroke-width:0.8;"/>
      </defs>
      <g>
       <use style="stroke:#000000;stroke-width:0.8;" x="54" xlink:href="#mbde9485102" y="251.852118"/>
      </g>
     </g>
     <g id="text_11">
      <!-- 1 -->
      <g transform="translate(40.6375 255.651336)scale(0.1 -0.1)">
       <use xlink:href="#DejaVuSans-49"/>
      </g>
     </g>
    </g>
    <g id="ytick_2">
     <g id="line2d_11">
      <g>
       <use style="stroke:#000000;stroke-width:0.8;" x="54" xlink:href="#mbde9485102" y="209.83725"/>
      </g>
     </g>
     <g id="text_12">
      <!-- 2 -->
      <g transform="translate(40.6375 213.636469)scale(0.1 -0.1)">
       <use xlink:href="#DejaVuSans-50"/>
      </g>
     </g>
    </g>
    <g id="ytick_3">
     <g id="line2d_12">
      <g>
       <use style="stroke:#000000;stroke-width:0.8;" x="54" xlink:href="#mbde9485102" y="167.822382"/>
      </g>
     </g>
     <g id="text_13">
      <!-- 3 -->
      <g transform="translate(40.6375 171.621601)scale(0.1 -0.1)">
       <use xlink:href="#DejaVuSans-51"/>
      </g>
     </g>
    </g>
    <g id="ytick_4">
     <g id="line2d_13">
      <g>
       <use style="stroke:#000000;stroke-width:0.8;" x="54" xlink:href="#mbde9485102" y="125.807514"/>
      </g>
     </g>
     <g id="text_14">
      <!-- 4 -->
      <g transform="translate(40.6375 129.606733)scale(0.1 -0.1)">
       <use xlink:href="#DejaVuSans-52"/>
      </g>
     </g>
    </g>
    <g id="ytick_5">
     <g id="line2d_14">
      <g>
       <use style="stroke:#000000;stroke-width:0.8;" x="54" xlink:href="#mbde9485102" y="83.792647"/>
      </g>
     </g>
     <g id="text_15">
      <!-- 5 -->
      <g transform="translate(40.6375 87.591865)scale(0.1 -0.1)">
       <use xlink:href="#DejaVuSans-53"/>
      </g>
     </g>
    </g>
    <g id="ytick_6">
     <g id="line2d_15">
      <g>
       <use style="stroke:#000000;stroke-width:0.8;" x="54" xlink:href="#mbde9485102" y="41.777779"/>
      </g>
     </g>
     <g id="text_16">
      <!-- 6 -->
      <g transform="translate(40.6375 45.576998)scale(0.1 -0.1)">
       <use xlink:href="#DejaVuSans-54"/>
      </g>
     </g>
    </g>
    <g id="text_17">
     <!-- D_Tg/K -->
     <g transform="translate(34.279688 160.821406)rotate(-90)scale(0.1 -0.1)">
      <defs>
       <path d="M 19.671875 64.796875 
L 19.671875 8.109375 
L 31.59375 8.109375 
Q 46.6875 8.109375 53.6875 14.9375 
Q 60.6875 21.78125 60.6875 36.53125 
Q 60.6875 51.171875 53.6875 57.984375 
Q 46.6875 64.796875 31.59375 64.796875 
z
M 9.8125 72.90625 
L 30.078125 72.90625 
Q 51.265625 72.90625 61.171875 64.09375 
Q 71.09375 55.28125 71.09375 36.53125 
Q 71.09375 17.671875 61.125 8.828125 
Q 51.171875 0 30.078125 0 
L 9.8125 0 
z
" id="DejaVuSans-68"/>
       <path d="M 50.984375 -16.609375 
L 50.984375 -23.578125 
L -0.984375 -23.578125 
L -0.984375 -16.609375 
z
" id="DejaVuSans-95"/>
       <path d="M -0.296875 72.90625 
L 61.375 72.90625 
L 61.375 64.59375 
L 35.5 64.59375 
L 35.5 0 
L 25.59375 0 
L 25.59375 64.59375 
L -0.296875 64.59375 
z
" id="DejaVuSans-84"/>
       <path d="M 45.40625 27.984375 
Q 45.40625 37.75 41.375 43.109375 
Q 37.359375 48.484375 30.078125 48.484375 
Q 22.859375 48.484375 18.828125 43.109375 
Q 14.796875 37.75 14.796875 27.984375 
Q 14.796875 18.265625 18.828125 12.890625 
Q 22.859375 7.515625 30.078125 7.515625 
Q 37.359375 7.515625 41.375 12.890625 
Q 45.40625 18.265625 45.40625 27.984375 
z
M 54.390625 6.78125 
Q 54.390625 -7.171875 48.1875 -13.984375 
Q 42 -20.796875 29.203125 -20.796875 
Q 24.46875 -20.796875 20.265625 -20.09375 
Q 16.0625 -19.390625 12.109375 -17.921875 
L 12.109375 -9.1875 
Q 16.0625 -11.328125 19.921875 -12.34375 
Q 23.78125 -13.375 27.78125 -13.375 
Q 36.625 -13.375 41.015625 -8.765625 
Q 45.40625 -4.15625 45.40625 5.171875 
L 45.40625 9.625 
Q 42.625 4.78125 38.28125 2.390625 
Q 33.9375 0 27.875 0 
Q 17.828125 0 11.671875 7.65625 
Q 5.515625 15.328125 5.515625 27.984375 
Q 5.515625 40.671875 11.671875 48.328125 
Q 17.828125 56 27.875 56 
Q 33.9375 56 38.28125 53.609375 
Q 42.625 51.21875 45.40625 46.390625 
L 45.40625 54.6875 
L 54.390625 54.6875 
z
" id="DejaVuSans-103"/>
       <path d="M 25.390625 72.90625 
L 33.6875 72.90625 
L 8.296875 -9.28125 
L 0 -9.28125 
z
" id="DejaVuSans-47"/>
       <path d="M 9.8125 72.90625 
L 19.671875 72.90625 
L 19.671875 42.09375 
L 52.390625 72.90625 
L 65.09375 72.90625 
L 28.90625 38.921875 
L 67.671875 0 
L 54.6875 0 
L 19.671875 35.109375 
L 19.671875 0 
L 9.8125 0 
z
" id="DejaVuSans-75"/>
      </defs>
      <use xlink:href="#DejaVuSans-68"/>
      <use x="77.001953" xlink:href="#DejaVuSans-95"/>
      <use x="127.001953" xlink:href="#DejaVuSans-84"/>
      <use x="188.085938" xlink:href="#DejaVuSans-103"/>
      <use x="251.5625" xlink:href="#DejaVuSans-47"/>
      <use x="285.253906" xlink:href="#DejaVuSans-75"/>
     </g>
    </g>
   </g>
   <g id="line2d_16">
    <path clip-path="url(#p7bdc371c55)" d="M 54 221.908572 
L 57.893023 220.239208 
L 61.786047 219.04694 
L 65.67907 218.104213 
L 69.572093 217.277495 
L 73.465116 216.530057 
L 77.35814 215.833872 
L 81.251163 215.101825 
L 85.144186 214.284077 
L 89.037209 213.451083 
L 92.930233 212.68621 
L 96.823256 211.979793 
L 100.716279 211.30869 
L 104.609302 210.67963 
L 108.502326 210.050344 
L 112.395349 209.414207 
L 116.288372 208.774934 
L 120.181395 208.126706 
L 124.074419 207.443758 
L 127.967442 206.661551 
L 131.860465 205.723587 
L 135.753488 204.728356 
L 139.646512 203.716877 
L 143.539535 202.764779 
L 147.432558 201.883843 
L 151.325581 201.076292 
L 155.218605 200.368182 
L 159.111628 199.730682 
L 163.004651 199.107837 
L 166.897674 198.444273 
L 170.790698 197.710037 
L 174.683721 196.843957 
L 178.576744 195.858152 
L 182.469767 194.803198 
L 186.362791 193.753103 
L 190.255814 192.82153 
L 194.148837 192.058325 
L 198.04186 191.408104 
L 201.934884 190.804592 
L 205.827907 190.221255 
L 209.72093 189.603519 
L 213.613953 188.885872 
L 217.506977 188.056404 
L 221.4 187.187939 
L 225.293023 186.327618 
L 229.186047 185.463872 
L 233.07907 184.658896 
L 236.972093 183.929649 
L 240.865116 183.242785 
L 244.75814 182.556752 
L 248.651163 181.837793 
L 252.544186 181.066724 
L 256.437209 180.177384 
L 260.330233 179.163391 
L 264.223256 178.090657 
L 268.116279 177.042204 
L 272.009302 176.075441 
L 275.902326 175.194095 
L 279.795349 174.352065 
L 283.688372 173.505859 
L 287.581395 172.661335 
L 291.474419 171.802597 
L 295.367442 170.92153 
L 299.260465 170.029125 
L 303.153488 169.083929 
L 307.046512 168.001679 
L 310.939535 166.831057 
L 314.832558 165.662289 
L 318.725581 164.578717 
L 322.618605 163.53961 
L 326.511628 162.512875 
L 330.404651 161.612826 
L 334.297674 160.71405 
L 338.190698 159.790371 
L 342.083721 158.782908 
L 345.976744 157.715293 
L 349.869767 156.574693 
L 353.762791 155.401418 
L 357.655814 154.143898 
L 361.548837 152.86426 
L 365.44186 151.701933 
L 369.334884 150.625022 
L 373.227907 149.609366 
L 377.12093 148.683643 
L 381.013953 147.770632 
L 384.906977 146.75727 
L 388.8 145.742224 
" style="fill:none;stroke:#0000ff;stroke-linecap:square;stroke-width:1.5;"/>
   </g>
   <g id="line2d_17">
    <path clip-path="url(#p7bdc371c55)" d="M 54 221.908572 
L 57.893023 220.257234 
L 61.786047 219.05907 
L 65.67907 218.114696 
L 69.572093 217.289881 
L 73.465116 216.540109 
L 77.35814 215.831763 
L 81.251163 215.063219 
L 85.144186 214.173203 
L 89.037209 213.237643 
L 92.930233 212.343389 
L 96.823256 211.483404 
L 100.716279 210.638134 
L 104.609302 209.81367 
L 108.502326 208.968775 
L 112.395349 208.097586 
L 116.288372 207.204479 
L 120.181395 206.285358 
L 124.074419 205.322572 
L 127.967442 204.25696 
L 131.860465 203.034811 
L 135.753488 201.755023 
L 139.646512 200.47231 
L 143.539535 199.247055 
L 147.432558 198.089626 
L 151.325581 197.002949 
L 155.218605 196.01519 
L 159.111628 195.088756 
L 163.004651 194.162873 
L 166.897674 193.18407 
L 170.790698 192.123827 
L 174.683721 190.921632 
L 178.576744 189.593662 
L 182.469767 188.188119 
L 186.362791 186.778239 
L 190.255814 185.479148 
L 194.148837 184.3396 
L 198.04186 183.305552 
L 201.934884 182.317633 
L 205.827907 181.348105 
L 209.72093 180.343678 
L 213.613953 179.236596 
L 217.506977 178.009187 
L 221.4 176.744806 
L 225.293023 175.49568 
L 229.186047 174.24949 
L 233.07907 173.067159 
L 236.972093 171.98032 
L 240.865116 170.937267 
L 244.75814 169.898892 
L 248.651163 168.826699 
L 252.544186 167.70421 
L 256.437209 166.472534 
L 260.330233 165.114493 
L 264.223256 163.699113 
L 268.116279 162.36383 
L 272.009302 161.067063 
L 275.902326 159.909805 
L 279.795349 158.771769 
L 283.688372 157.721834 
L 287.581395 156.591151 
L 291.474419 155.458806 
L 295.367442 154.340243 
L 299.260465 153.164243 
L 303.153488 151.910259 
L 307.046512 150.55976 
L 310.939535 149.249891 
L 314.832558 147.929143 
L 318.725581 146.601704 
L 322.618605 145.392346 
L 326.511628 144.172671 
L 330.404651 142.991091 
L 334.297674 141.872639 
L 338.190698 140.76198 
L 342.083721 139.55702 
L 345.976744 138.280528 
L 349.869767 136.905297 
L 353.762791 135.417373 
L 357.655814 134.041621 
L 361.548837 132.606247 
L 365.44186 131.261328 
L 369.334884 129.961726 
L 373.227907 128.775338 
L 377.12093 127.610387 
L 381.013953 126.420182 
L 384.906977 125.390021 
L 388.8 123.980531 
" style="fill:none;stroke:#ff0000;stroke-linecap:square;stroke-width:1.5;"/>
   </g>
   <g id="line2d_18">
    <path clip-path="url(#p7bdc371c55)" d="M 54 221.908572 
L 57.893023 220.247292 
L 61.786047 219.040499 
L 65.67907 218.05554 
L 69.572093 217.152321 
L 73.465116 216.287187 
L 77.35814 215.445087 
L 81.251163 214.558461 
L 85.144186 213.592084 
L 89.037209 212.618855 
L 92.930233 211.719398 
L 96.823256 210.882041 
L 100.716279 210.083356 
L 104.609302 209.32816 
L 108.502326 208.574191 
L 112.395349 207.814151 
L 116.288372 207.05299 
L 120.181395 206.312364 
L 124.074419 205.580132 
L 127.967442 204.78332 
L 131.860465 203.859531 
L 135.753488 202.904147 
L 139.646512 201.967847 
L 143.539535 201.108097 
L 147.432558 200.332932 
L 151.325581 199.643563 
L 155.218605 199.065565 
L 159.111628 198.54212 
L 163.004651 198.006134 
L 166.897674 197.412789 
L 170.790698 196.738246 
L 174.683721 195.924505 
L 178.576744 194.989957 
L 182.469767 193.984308 
L 186.362791 192.982616 
L 190.255814 192.099075 
L 194.148837 191.385265 
L 198.04186 190.77975 
L 201.934884 190.219762 
L 205.827907 189.68048 
L 209.72093 189.109785 
L 213.613953 188.441963 
L 217.506977 187.657271 
L 221.4 186.842829 
L 225.293023 186.049182 
L 229.186047 185.265202 
L 233.07907 184.554227 
L 236.972093 183.917017 
L 240.865116 183.295324 
L 244.75814 182.656663 
L 248.651163 181.974066 
L 252.544186 181.236164 
L 256.437209 180.382334 
L 260.330233 179.406095 
L 264.223256 178.376165 
L 268.116279 177.382005 
L 272.009302 176.479362 
L 275.902326 175.686697 
L 279.795349 174.967327 
L 283.688372 174.277227 
L 287.581395 173.608234 
L 291.474419 172.951741 
L 295.367442 172.333023 
L 299.260465 171.709528 
L 303.153488 170.946333 
L 307.046512 170.106106 
L 310.939535 169.221955 
L 314.832558 168.362866 
L 318.725581 167.560404 
L 322.618605 166.840924 
L 326.511628 166.219392 
L 330.404651 165.654436 
L 334.297674 165.202804 
L 338.190698 164.718746 
L 342.083721 164.212811 
L 345.976744 163.659555 
L 349.869767 163.014302 
L 353.762791 162.342063 
L 357.655814 161.585209 
L 361.548837 160.914292 
L 365.44186 160.340902 
L 369.334884 159.921775 
L 373.227907 159.54431 
L 377.12093 159.254615 
L 381.013953 158.955624 
L 384.906977 158.611525 
L 388.8 158.137445 
" style="fill:none;stroke:#008000;stroke-linecap:square;stroke-width:1.5;"/>
   </g>
   <g id="line2d_19">
    <path clip-path="url(#p7bdc371c55)" d="M 54 221.908572 
L 57.893023 220.251369 
L 61.786047 219.04696 
L 65.67907 218.068106 
L 69.572093 217.174463 
L 73.465116 216.321145 
L 77.35814 215.475083 
L 81.251163 214.538547 
L 85.144186 213.460444 
L 89.037209 212.316318 
L 92.930233 211.193103 
L 96.823256 210.083982 
L 100.716279 208.969516 
L 104.609302 207.857035 
L 108.502326 206.705576 
L 112.395349 205.509892 
L 116.288372 204.274821 
L 120.181395 202.986799 
L 124.074419 201.626373 
L 127.967442 200.137087 
L 131.860465 198.467062 
L 135.753488 196.724503 
L 139.646512 194.970183 
L 143.539535 193.26577 
L 147.432558 191.62217 
L 151.325581 190.04318 
L 155.218605 188.55722 
L 159.111628 187.122447 
L 163.004651 185.683828 
L 166.897674 184.190645 
L 170.790698 182.615162 
L 174.683721 180.897104 
L 178.576744 179.053913 
L 182.469767 177.134782 
L 186.362791 175.215131 
L 190.255814 173.408332 
L 194.148837 171.765012 
L 198.04186 170.222525 
L 201.934884 168.719526 
L 205.827907 167.230901 
L 209.72093 165.702969 
L 213.613953 164.072892 
L 217.506977 162.319194 
L 221.4 160.531688 
L 225.293023 158.756614 
L 229.186047 156.992277 
L 233.07907 155.29189 
L 236.972093 153.682749 
L 240.865116 152.131948 
L 244.75814 150.587167 
L 248.651163 149.018626 
L 252.544186 147.437973 
L 256.437209 145.782393 
L 260.330233 144.058085 
L 264.223256 142.179213 
L 268.116279 140.341211 
L 272.009302 138.623074 
L 275.902326 137.052228 
L 279.795349 135.531799 
L 283.688372 134.047261 
L 287.581395 132.528124 
L 291.474419 131.073808 
L 295.367442 129.609474 
L 299.260465 128.127551 
L 303.153488 126.593628 
L 307.046512 124.861497 
L 310.939535 123.177638 
L 314.832558 121.44704 
L 318.725581 119.760857 
L 322.618605 118.075736 
L 326.511628 116.51613 
L 330.404651 114.932483 
L 334.297674 113.346632 
L 338.190698 111.744192 
L 342.083721 110.243306 
L 345.976744 108.613179 
L 349.869767 106.956006 
L 353.762791 105.101336 
L 357.655814 103.292022 
L 361.548837 101.41858 
L 365.44186 99.633828 
L 369.334884 98.088887 
L 373.227907 96.508205 
L 377.12093 95.137802 
L 381.013953 93.663101 
L 384.906977 92.057536 
L 388.8 90.41593 
" style="fill:none;stroke:#ffa500;stroke-linecap:square;stroke-width:1.5;"/>
   </g>
   <g id="patch_3">
    <path d="M 54 252 
L 54 34.56 
" style="fill:none;stroke:#000000;stroke-linecap:square;stroke-linejoin:miter;stroke-width:0.8;"/>
   </g>
   <g id="patch_4">
    <path d="M 388.8 252 
L 388.8 34.56 
" style="fill:none;stroke:#000000;stroke-linecap:square;stroke-linejoin:miter;stroke-width:0.8;"/>
   </g>
   <g id="patch_5">
    <path d="M 54 252 
L 388.8 252 
" style="fill:none;stroke:#000000;stroke-linecap:square;stroke-linejoin:miter;stroke-width:0.8;"/>
   </g>
   <g id="patch_6">
    <path d="M 54 34.56 
L 388.8 34.56 
" style="fill:none;stroke:#000000;stroke-linecap:square;stroke-linejoin:miter;stroke-width:0.8;"/>
   </g>
   <g id="legend_1">
    <g id="patch_7">
     <path d="M 61 102.106875 
L 165.542188 102.106875 
Q 167.542188 102.106875 167.542188 100.106875 
L 167.542188 41.56 
Q 167.542188 39.56 165.542188 39.56 
L 61 39.56 
Q 59 39.56 59 41.56 
L 59 100.106875 
Q 59 102.106875 61 102.106875 
z
" style="fill:#ffffff;opacity:0.8;stroke:#cccccc;stroke-linejoin:miter;"/>
    </g>
    <g id="line2d_20">
     <path d="M 63 47.658437 
L 83 47.658437 
" style="fill:none;stroke:#0000ff;stroke-linecap:square;stroke-width:1.5;"/>
    </g>
    <g id="line2d_21"/>
    <g id="text_18">
     <!-- CD-LINKS NDC -->
     <g transform="translate(91 51.158437)scale(0.1 -0.1)">
      <defs>
       <path d="M 64.40625 67.28125 
L 64.40625 56.890625 
Q 59.421875 61.53125 53.78125 63.8125 
Q 48.140625 66.109375 41.796875 66.109375 
Q 29.296875 66.109375 22.65625 58.46875 
Q 16.015625 50.828125 16.015625 36.375 
Q 16.015625 21.96875 22.65625 14.328125 
Q 29.296875 6.6875 41.796875 6.6875 
Q 48.140625 6.6875 53.78125 8.984375 
Q 59.421875 11.28125 64.40625 15.921875 
L 64.40625 5.609375 
Q 59.234375 2.09375 53.4375 0.328125 
Q 47.65625 -1.421875 41.21875 -1.421875 
Q 24.65625 -1.421875 15.125 8.703125 
Q 5.609375 18.84375 5.609375 36.375 
Q 5.609375 53.953125 15.125 64.078125 
Q 24.65625 74.21875 41.21875 74.21875 
Q 47.75 74.21875 53.53125 72.484375 
Q 59.328125 70.75 64.40625 67.28125 
z
" id="DejaVuSans-67"/>
       <path d="M 4.890625 31.390625 
L 31.203125 31.390625 
L 31.203125 23.390625 
L 4.890625 23.390625 
z
" id="DejaVuSans-45"/>
       <path d="M 9.8125 72.90625 
L 19.671875 72.90625 
L 19.671875 8.296875 
L 55.171875 8.296875 
L 55.171875 0 
L 9.8125 0 
z
" id="DejaVuSans-76"/>
       <path d="M 9.8125 72.90625 
L 19.671875 72.90625 
L 19.671875 0 
L 9.8125 0 
z
" id="DejaVuSans-73"/>
       <path d="M 9.8125 72.90625 
L 23.09375 72.90625 
L 55.421875 11.921875 
L 55.421875 72.90625 
L 64.984375 72.90625 
L 64.984375 0 
L 51.703125 0 
L 19.390625 60.984375 
L 19.390625 0 
L 9.8125 0 
z
" id="DejaVuSans-78"/>
       <path d="M 53.515625 70.515625 
L 53.515625 60.890625 
Q 47.90625 63.578125 42.921875 64.890625 
Q 37.9375 66.21875 33.296875 66.21875 
Q 25.25 66.21875 20.875 63.09375 
Q 16.5 59.96875 16.5 54.203125 
Q 16.5 49.359375 19.40625 46.890625 
Q 22.3125 44.4375 30.421875 42.921875 
L 36.375 41.703125 
Q 47.40625 39.59375 52.65625 34.296875 
Q 57.90625 29 57.90625 20.125 
Q 57.90625 9.515625 50.796875 4.046875 
Q 43.703125 -1.421875 29.984375 -1.421875 
Q 24.8125 -1.421875 18.96875 -0.25 
Q 13.140625 0.921875 6.890625 3.21875 
L 6.890625 13.375 
Q 12.890625 10.015625 18.65625 8.296875 
Q 24.421875 6.59375 29.984375 6.59375 
Q 38.421875 6.59375 43.015625 9.90625 
Q 47.609375 13.234375 47.609375 19.390625 
Q 47.609375 24.75 44.3125 27.78125 
Q 41.015625 30.8125 33.5 32.328125 
L 27.484375 33.5 
Q 16.453125 35.6875 11.515625 40.375 
Q 6.59375 45.0625 6.59375 53.421875 
Q 6.59375 63.09375 13.40625 68.65625 
Q 20.21875 74.21875 32.171875 74.21875 
Q 37.3125 74.21875 42.625 73.28125 
Q 47.953125 72.359375 53.515625 70.515625 
z
" id="DejaVuSans-83"/>
       <path id="DejaVuSans-32"/>
      </defs>
      <use xlink:href="#DejaVuSans-67"/>
      <use x="69.824219" xlink:href="#DejaVuSans-68"/>
      <use x="146.826172" xlink:href="#DejaVuSans-45"/>
      <use x="182.910156" xlink:href="#DejaVuSans-76"/>
      <use x="238.623047" xlink:href="#DejaVuSans-73"/>
      <use x="268.115234" xlink:href="#DejaVuSans-78"/>
      <use x="342.919922" xlink:href="#DejaVuSans-75"/>
      <use x="408.496094" xlink:href="#DejaVuSans-83"/>
      <use x="471.972656" xlink:href="#DejaVuSans-32"/>
      <use x="503.759766" xlink:href="#DejaVuSans-78"/>
      <use x="578.564453" xlink:href="#DejaVuSans-68"/>
      <use x="655.566406" xlink:href="#DejaVuSans-67"/>
     </g>
    </g>
    <g id="line2d_22">
     <path d="M 63 62.336562 
L 83 62.336562 
" style="fill:none;stroke:#ff0000;stroke-linecap:square;stroke-width:1.5;"/>
    </g>
    <g id="line2d_23"/>
    <g id="text_19">
     <!-- CD_NP -->
     <g transform="translate(91 65.836562)scale(0.1 -0.1)">
      <defs>
       <path d="M 19.671875 64.796875 
L 19.671875 37.40625 
L 32.078125 37.40625 
Q 38.96875 37.40625 42.71875 40.96875 
Q 46.484375 44.53125 46.484375 51.125 
Q 46.484375 57.671875 42.71875 61.234375 
Q 38.96875 64.796875 32.078125 64.796875 
z
M 9.8125 72.90625 
L 32.078125 72.90625 
Q 44.34375 72.90625 50.609375 67.359375 
Q 56.890625 61.8125 56.890625 51.125 
Q 56.890625 40.328125 50.609375 34.8125 
Q 44.34375 29.296875 32.078125 29.296875 
L 19.671875 29.296875 
L 19.671875 0 
L 9.8125 0 
z
" id="DejaVuSans-80"/>
      </defs>
      <use xlink:href="#DejaVuSans-67"/>
      <use x="69.824219" xlink:href="#DejaVuSans-68"/>
      <use x="146.826172" xlink:href="#DejaVuSans-95"/>
      <use x="196.826172" xlink:href="#DejaVuSans-78"/>
      <use x="271.630859" xlink:href="#DejaVuSans-80"/>
     </g>
    </g>
    <g id="line2d_24">
     <path d="M 63 77.292812 
L 83 77.292812 
" style="fill:none;stroke:#008000;stroke-linecap:square;stroke-width:1.5;"/>
    </g>
    <g id="line2d_25"/>
    <g id="text_20">
     <!-- AD_NDC -->
     <g transform="translate(91 80.792812)scale(0.1 -0.1)">
      <defs>
       <path d="M 34.1875 63.1875 
L 20.796875 26.90625 
L 47.609375 26.90625 
z
M 28.609375 72.90625 
L 39.796875 72.90625 
L 67.578125 0 
L 57.328125 0 
L 50.6875 18.703125 
L 17.828125 18.703125 
L 11.1875 0 
L 0.78125 0 
z
" id="DejaVuSans-65"/>
      </defs>
      <use xlink:href="#DejaVuSans-65"/>
      <use x="68.408203" xlink:href="#DejaVuSans-68"/>
      <use x="145.410156" xlink:href="#DejaVuSans-95"/>
      <use x="195.410156" xlink:href="#DejaVuSans-78"/>
      <use x="270.214844" xlink:href="#DejaVuSans-68"/>
      <use x="347.216797" xlink:href="#DejaVuSans-67"/>
     </g>
    </g>
    <g id="line2d_26">
     <path d="M 63 92.249062 
L 83 92.249062 
" style="fill:none;stroke:#ffa500;stroke-linecap:square;stroke-width:1.5;"/>
    </g>
    <g id="line2d_27"/>
    <g id="text_21">
     <!-- AD_NP -->
     <g transform="translate(91 95.749062)scale(0.1 -0.1)">
      <use xlink:href="#DejaVuSans-65"/>
      <use x="68.408203" xlink:href="#DejaVuSans-68"/>
      <use x="145.410156" xlink:href="#DejaVuSans-95"/>
      <use x="195.410156" xlink:href="#DejaVuSans-78"/>
      <use x="270.214844" xlink:href="#DejaVuSans-80"/>
     </g>
    </g>
   </g>
  </g>
 </g>
 <defs>
  <clipPath id="p7bdc371c55">
   <rect height="217.44" width="334.8" x="54" y="34.56"/>
  </clipPath>
 </defs>
</svg>
